<?xml version="1.0" encoding="UTF-8" standalone="no"?>
<!-- Created with Inkscape (http://www.inkscape.org/) -->

<svg
   version="1.1"
   id="svg1"
   width="135.20534"
   height="80.918671"
   viewBox="0 0 135.20534 80.918671"
   sodipodi:docname="TikZ.pdf"
   xmlns:inkscape="http://www.inkscape.org/namespaces/inkscape"
   xmlns:sodipodi="http://sodipodi.sourceforge.net/DTD/sodipodi-0.dtd"
   xmlns="http://www.w3.org/2000/svg"
   xmlns:svg="http://www.w3.org/2000/svg">
  <defs
     id="defs1" />
  <sodipodi:namedview
     id="namedview1"
     pagecolor="#505050"
     bordercolor="#eeeeee"
     borderopacity="1"
     inkscape:showpageshadow="0"
     inkscape:pageopacity="0"
     inkscape:pagecheckerboard="0"
     inkscape:deskcolor="#505050">
    <inkscape:page
       x="0"
       y="0"
       inkscape:label="1"
       id="page1"
       width="135.20534"
       height="80.918671"
       margin="0"
       bleed="0" />
  </sodipodi:namedview>
  <g
     id="g1"
     inkscape:groupmode="layer"
     inkscape:label="1">
    <path
       id="path1"
       d="M 0,0 27.45575,13.72787"
       style="fill:none;stroke:#000000;stroke-width:0.99628;stroke-linecap:round;stroke-linejoin:miter;stroke-miterlimit:10;stroke-dasharray:none;stroke-opacity:1"
       transform="matrix(1.3333333,0,0,-1.3333333,21.156,31.416)" />
    <path
       id="path2"
       d="M -2.78957,3.47087 C -2.27992,1.38832 -1.14423,0.40492 0,0 -1.14423,-0.40492 -2.27992,-1.38832 -2.78957,-3.47087"
       style="fill:none;stroke:#000000;stroke-width:0.99628;stroke-linecap:round;stroke-linejoin:round;stroke-miterlimit:10;stroke-dasharray:none;stroke-opacity:1"
       transform="matrix(1.1925067,-0.59622667,-0.59622667,-1.1925067,58.357707,12.815147)" />
    <path
       id="path3"
       d="M 35.43349,7.08669 62.88925,20.81458"
       style="fill:none;stroke:#000000;stroke-width:0.99628;stroke-linecap:round;stroke-linejoin:miter;stroke-miterlimit:10;stroke-dasharray:none;stroke-opacity:1"
       transform="matrix(1.3333333,0,0,-1.3333333,21.156,31.416)" />
    <path
       id="path4"
       d="M -2.78957,3.47087 C -2.27992,1.38832 -1.14423,0.40492 0,0 -1.14423,-0.40492 -2.27992,-1.38832 -2.78957,-3.47087"
       style="fill:none;stroke:#000000;stroke-width:0.99628;stroke-linecap:round;stroke-linejoin:round;stroke-miterlimit:10;stroke-dasharray:none;stroke-opacity:1"
       transform="matrix(1.1925067,-0.59622667,-0.59622667,-1.1925067,105.60237,3.36624)" />
    <path
       id="path5"
       d="M 56.69362,0 84.14937,13.72787"
       style="fill:none;stroke:#000000;stroke-width:0.99628;stroke-linecap:round;stroke-linejoin:miter;stroke-miterlimit:10;stroke-dasharray:none;stroke-opacity:1"
       transform="matrix(1.3333333,0,0,-1.3333333,21.156,31.416)" />
    <path
       id="path6"
       d="M -2.78957,3.47087 C -2.27992,1.38832 -1.14423,0.40492 0,0 -1.14423,-0.40492 -2.27992,-1.38832 -2.78957,-3.47087"
       style="fill:none;stroke:#000000;stroke-width:0.99628;stroke-linecap:round;stroke-linejoin:round;stroke-miterlimit:10;stroke-dasharray:none;stroke-opacity:1"
       transform="matrix(1.1925067,-0.59622667,-0.59622667,-1.1925067,133.9492,12.815147)" />
    <path
       id="path7"
       d="m -14.17339,-35.43349 27.45574,13.72788"
       style="fill:none;stroke:#000000;stroke-width:0.99628;stroke-linecap:round;stroke-linejoin:miter;stroke-miterlimit:10;stroke-dasharray:none;stroke-opacity:1"
       transform="matrix(1.3333333,0,0,-1.3333333,21.156,31.416)" />
    <path
       id="path8"
       d="M -2.78957,3.47087 C -2.27992,1.38832 -1.14423,0.40492 0,0 -1.14423,-0.40492 -2.27992,-1.38832 -2.78957,-3.47087"
       style="fill:none;stroke:#000000;stroke-width:0.99628;stroke-linecap:round;stroke-linejoin:round;stroke-miterlimit:10;stroke-dasharray:none;stroke-opacity:1"
       transform="matrix(1.1925067,-0.59622667,-0.59622667,-1.1925067,39.459827,60.0598)" />
    <path
       id="path9"
       d="m 21.2601,-28.3468 27.45575,13.72789"
       style="fill:none;stroke:#000000;stroke-width:0.99628;stroke-linecap:round;stroke-linejoin:miter;stroke-miterlimit:10;stroke-dasharray:none;stroke-opacity:1"
       transform="matrix(1.3333333,0,0,-1.3333333,21.156,31.416)" />
    <path
       id="path10"
       d="M -2.78957,3.47087 C -2.27992,1.38832 -1.14423,0.40492 0,0 -1.14423,-0.40492 -2.27992,-1.38832 -2.78957,-3.47087"
       style="fill:none;stroke:#000000;stroke-width:0.99628;stroke-linecap:round;stroke-linejoin:round;stroke-miterlimit:10;stroke-dasharray:none;stroke-opacity:1"
       transform="matrix(1.1925067,-0.59622667,-0.59622667,-1.1925067,86.704507,50.61088)" />
    <path
       id="path11"
       d="M 0,0 27.45575,13.72787"
       style="fill:none;stroke:#000000;stroke-width:0.99628;stroke-linecap:round;stroke-linejoin:miter;stroke-miterlimit:10;stroke-dasharray:none;stroke-opacity:1"
       transform="matrix(1.3333333,0,0,-1.3333333,21.156,31.416)" />
    <path
       id="path12"
       d="M -2.78957,3.47087 C -2.27992,1.38832 -1.14423,0.40492 0,0 -1.14423,-0.40492 -2.27992,-1.38832 -2.78957,-3.47087"
       style="fill:none;stroke:#000000;stroke-width:0.99628;stroke-linecap:round;stroke-linejoin:round;stroke-miterlimit:10;stroke-dasharray:none;stroke-opacity:1"
       transform="matrix(1.1925067,-0.59622667,-0.59622667,-1.1925067,58.357707,12.815147)" />
    <path
       id="path13"
       d="M 0,0 27.45575,13.72787"
       style="fill:none;stroke:#000000;stroke-width:0.99628;stroke-linecap:round;stroke-linejoin:miter;stroke-miterlimit:10;stroke-dasharray:none;stroke-opacity:1"
       transform="matrix(1.3333333,0,0,-1.3333333,21.156,31.416)" />
    <path
       id="path14"
       d="M -2.78957,3.47087 C -2.27992,1.38832 -1.14423,0.40492 0,0 -1.14423,-0.40492 -2.27992,-1.38832 -2.78957,-3.47087"
       style="fill:none;stroke:#000000;stroke-width:0.99628;stroke-linecap:round;stroke-linejoin:round;stroke-miterlimit:10;stroke-dasharray:none;stroke-opacity:1"
       transform="matrix(1.1925067,-0.59622667,-0.59622667,-1.1925067,58.357707,12.815147)" />
    <path
       id="path15"
       d="M 0,0 27.45575,13.72787"
       style="fill:none;stroke:#000000;stroke-width:0.99628;stroke-linecap:round;stroke-linejoin:miter;stroke-miterlimit:10;stroke-dasharray:none;stroke-opacity:1"
       transform="matrix(1.3333333,0,0,-1.3333333,21.156,31.416)" />
    <path
       id="path16"
       d="M -2.78957,3.47087 C -2.27992,1.38832 -1.14423,0.40492 0,0 -1.14423,-0.40492 -2.27992,-1.38832 -2.78957,-3.47087"
       style="fill:none;stroke:#000000;stroke-width:0.99628;stroke-linecap:round;stroke-linejoin:round;stroke-miterlimit:10;stroke-dasharray:none;stroke-opacity:1"
       transform="matrix(1.1925067,-0.59622667,-0.59622667,-1.1925067,58.357707,12.815147)" />
    <path
       id="path17"
       d="M 0,0 27.45575,13.72787"
       style="fill:none;stroke:#000000;stroke-width:0.99628;stroke-linecap:round;stroke-linejoin:miter;stroke-miterlimit:10;stroke-dasharray:none;stroke-opacity:1"
       transform="matrix(1.3333333,0,0,-1.3333333,21.156,31.416)" />
    <path
       id="path18"
       d="M -2.78957,3.47087 C -2.27992,1.38832 -1.14423,0.40492 0,0 -1.14423,-0.40492 -2.27992,-1.38832 -2.78957,-3.47087"
       style="fill:none;stroke:#000000;stroke-width:0.99628;stroke-linecap:round;stroke-linejoin:round;stroke-miterlimit:10;stroke-dasharray:none;stroke-opacity:1"
       transform="matrix(1.1925067,-0.59622667,-0.59622667,-1.1925067,58.357707,12.815147)" />
    <path
       id="path19"
       d="m 5.4606875,-4.4656563 c 0,-0.7617187 -0.375,-0.8085937 -0.4804687,-0.8085937 -0.28125,0 -0.5507813,0.2929687 -0.5507813,0.5273437 0,0.140625 0.09375,0.2226563 0.140625,0.28125 0.1171875,0.1054688 0.421875,0.421875 0.421875,1.0429688 0,0.5039062 -0.7148437,3.3046875 -2.1445312,3.3046875 -0.7265625,0 -0.8789063,-0.609375 -0.8789063,-1.0546875 0,-0.5976563 0.28125,-1.4296875 0.5976563,-2.296875 0.1992187,-0.4921875 0.2460937,-0.609375 0.2460937,-0.84375 0,-0.5039063 -0.3632812,-0.9609375 -0.9492187,-0.9609375 -1.10156255,0 -1.5351563,1.734375 -1.5351563,1.828125 0,0.046875 0.046875,0.1054687 0.12890625,0.1054687 0.10546875,0 0.1171875,-0.046875 0.1640625,-0.2109375 0.29296875,-1.03125 0.75000005,-1.4765625 1.20703125,-1.4765625 0.1054688,0 0.3164063,0 0.3164063,0.3867188 0,0.3164062 -0.140625,0.65625 -0.3164063,1.1132812 C 1.2536563,-1.993 1.2536563,-1.6297188 1.2536563,-1.33675 c 0,0.2578125 0.035156,0.75 0.4101562,1.08984375 0.4335938,0.36328125 1.03125,0.36328125 1.1367188,0.36328125 1.9804687,0 2.6601562,-3.9023438 2.6601562,-4.5820313 z m 0,0"
       style="fill:#000000;fill-opacity:1;fill-rule:nonzero;stroke:none"
       aria-label="v"
       transform="matrix(1.3333333,0,0,1.3333333,29.125333,19.157333)" />
    <path
       id="path20"
       d="M 1.49442,0 C 1.49442,0.82533 0.82533,1.49442 0,1.49442 -0.82533,1.49442 -1.49442,0.82533 -1.49442,0 c 0,-0.82533 0.66909,-1.49442 1.49442,-1.49442 0.82533,0 1.49442,0.66909 1.49442,1.49442 z"
       style="fill:#ffffff;fill-opacity:1;fill-rule:nonzero;stroke:#000000;stroke-width:0.3985;stroke-linecap:butt;stroke-linejoin:miter;stroke-miterlimit:10;stroke-dasharray:none;stroke-opacity:1"
       transform="matrix(1.3333333,0,0,-1.3333333,21.156,31.416)" />
    <path
       id="path21"
       d="m 36.9279,7.08669 c 0,0.82534 -0.66907,1.49441 -1.49441,1.49441 -0.82534,0 -1.49442,-0.66907 -1.49442,-1.49441 0,-0.82535 0.66908,-1.49442 1.49442,-1.49442 0.82534,0 1.49441,0.66907 1.49441,1.49442 z"
       style="fill:#ffffff;fill-opacity:1;fill-rule:nonzero;stroke:#000000;stroke-width:0.3985;stroke-linecap:butt;stroke-linejoin:miter;stroke-miterlimit:10;stroke-dasharray:none;stroke-opacity:1"
       transform="matrix(1.3333333,0,0,-1.3333333,21.156,31.416)" />
    <path
       id="path22"
       d="m 58.18803,0 c 0,0.82533 -0.66908,1.49442 -1.49441,1.49442 -0.82535,0 -1.49442,-0.66909 -1.49442,-1.49442 0,-0.82533 0.66907,-1.49442 1.49442,-1.49442 0.82533,0 1.49441,0.66909 1.49441,1.49442 z"
       style="fill:#ffffff;fill-opacity:1;fill-rule:nonzero;stroke:#000000;stroke-width:0.3985;stroke-linecap:butt;stroke-linejoin:miter;stroke-miterlimit:10;stroke-dasharray:none;stroke-opacity:1"
       transform="matrix(1.3333333,0,0,-1.3333333,21.156,31.416)" />
    <path
       id="path23"
       d="m -12.67897,-35.43349 c 0,0.82534 -0.66907,1.49442 -1.49442,1.49442 -0.82534,0 -1.49441,-0.66908 -1.49441,-1.49442 0,-0.82534 0.66907,-1.49441 1.49441,-1.49441 0.82535,0 1.49442,0.66907 1.49442,1.49441 z"
       style="fill:#ffffff;fill-opacity:1;fill-rule:nonzero;stroke:#000000;stroke-width:0.3985;stroke-linecap:butt;stroke-linejoin:miter;stroke-miterlimit:10;stroke-dasharray:none;stroke-opacity:1"
       transform="matrix(1.3333333,0,0,-1.3333333,21.156,31.416)" />
    <path
       id="path24"
       d="m 22.75452,-28.3468 c 0,0.82535 -0.66907,1.49441 -1.49442,1.49441 -0.82535,0 -1.49441,-0.66906 -1.49441,-1.49441 0,-0.82535 0.66906,-1.49442 1.49441,-1.49442 0.82535,0 1.49442,0.66907 1.49442,1.49442 z"
       style="fill:#ffffff;fill-opacity:1;fill-rule:nonzero;stroke:#000000;stroke-width:0.3985;stroke-linecap:butt;stroke-linejoin:miter;stroke-miterlimit:10;stroke-dasharray:none;stroke-opacity:1"
       transform="matrix(1.3333333,0,0,-1.3333333,21.156,31.416)" />
    <path
       id="path25"
       d="M 1.49442,0 C 1.49442,0.82533 0.82533,1.49442 0,1.49442 -0.82533,1.49442 -1.49442,0.82533 -1.49442,0 c 0,-0.82533 0.66909,-1.49442 1.49442,-1.49442 0.82533,0 1.49442,0.66909 1.49442,1.49442 z"
       style="fill:#ffffff;fill-opacity:1;fill-rule:nonzero;stroke:#000000;stroke-width:0.3985;stroke-linecap:butt;stroke-linejoin:miter;stroke-miterlimit:10;stroke-dasharray:none;stroke-opacity:1"
       transform="matrix(1.3333333,0,0,-1.3333333,21.156,31.416)" />
    <path
       id="path26"
       d="M 1.49442,0 C 1.49442,0.82533 0.82533,1.49442 0,1.49442 -0.82533,1.49442 -1.49442,0.82533 -1.49442,0 c 0,-0.82533 0.66909,-1.49442 1.49442,-1.49442 0.82533,0 1.49442,0.66909 1.49442,1.49442 z"
       style="fill:#ffffff;fill-opacity:1;fill-rule:nonzero;stroke:#000000;stroke-width:0.3985;stroke-linecap:butt;stroke-linejoin:miter;stroke-miterlimit:10;stroke-dasharray:none;stroke-opacity:1"
       transform="matrix(1.3333333,0,0,-1.3333333,21.156,31.416)" />
    <path
       id="path27"
       d="M 1.49442,0 C 1.49442,0.82533 0.82533,1.49442 0,1.49442 -0.82533,1.49442 -1.49442,0.82533 -1.49442,0 c 0,-0.82533 0.66909,-1.49442 1.49442,-1.49442 0.82533,0 1.49442,0.66909 1.49442,1.49442 z"
       style="fill:#ffffff;fill-opacity:1;fill-rule:nonzero;stroke:#000000;stroke-width:0.3985;stroke-linecap:butt;stroke-linejoin:miter;stroke-miterlimit:10;stroke-dasharray:none;stroke-opacity:1"
       transform="matrix(1.3333333,0,0,-1.3333333,21.156,31.416)" />
    <path
       id="path28"
       d="M 1.49442,0 C 1.49442,0.82533 0.82533,1.49442 0,1.49442 -0.82533,1.49442 -1.49442,0.82533 -1.49442,0 c 0,-0.82533 0.66909,-1.49442 1.49442,-1.49442 0.82533,0 1.49442,0.66909 1.49442,1.49442 z"
       style="fill:#ffffff;fill-opacity:1;fill-rule:nonzero;stroke:#000000;stroke-width:0.3985;stroke-linecap:butt;stroke-linejoin:miter;stroke-miterlimit:10;stroke-dasharray:none;stroke-opacity:1"
       transform="matrix(1.3333333,0,0,-1.3333333,21.156,31.416)" />
  </g>
</svg>
