<?xml version="1.0" encoding="UTF-8" standalone="no"?>
<!-- Created with Inkscape (http://www.inkscape.org/) -->

<svg
   version="1.1"
   id="svg1"
   width="302.36267"
   height="151.18134"
   viewBox="0 0 302.36267 151.18134"
   sodipodi:docname="TikZ.pdf"
   xmlns:inkscape="http://www.inkscape.org/namespaces/inkscape"
   xmlns:sodipodi="http://sodipodi.sourceforge.net/DTD/sodipodi-0.dtd"
   xmlns="http://www.w3.org/2000/svg"
   xmlns:svg="http://www.w3.org/2000/svg">
  <defs
     id="defs1">
    <clipPath
       clipPathUnits="userSpaceOnUse"
       id="clipPath7">
      <path
         d="M -21.56642,80.789802 V -32.597421 H 205.20805 V 80.789802 Z"
         id="path7" />
    </clipPath>
    <clipPath
       clipPathUnits="userSpaceOnUse"
       id="clipPath12">
      <path
         d="M -157.17242,80.789802 V -32.597421 H 69.602044 V 80.789802 Z"
         id="path12" />
    </clipPath>
  </defs>
  <sodipodi:namedview
     id="namedview1"
     pagecolor="#505050"
     bordercolor="#eeeeee"
     borderopacity="1"
     inkscape:showpageshadow="0"
     inkscape:pageopacity="0"
     inkscape:pagecheckerboard="0"
     inkscape:deskcolor="#505050">
    <inkscape:page
       x="0"
       y="0"
       inkscape:label="1"
       id="page1"
       width="302.36267"
       height="151.18134"
       margin="0"
       bleed="0" />
  </sodipodi:namedview>
  <g
     id="g1"
     inkscape:groupmode="layer"
     inkscape:label="1">
    <path
       id="path1"
       d="m 3.5402344,-3.7963047 h 2.0039062 c 1.6523438,0 3.3046875,-1.21875 3.3046875,-2.5898437 0,-0.9257813 -0.796875,-1.78125 -2.296875,-1.78125 H 2.8605469 c -0.234375,0 -0.3398438,0 -0.3398438,0.234375 0,0.1171875 0.1054688,0.1171875 0.2929688,0.1171875 0.7265625,0 0.7265625,0.09375 0.7265625,0.2226562 0,0.023437 0,0.09375 -0.046875,0.28125 l -1.6171875,6.43359376 c -0.1054688,0.41015625 -0.1289063,0.52734375 -0.96093752,0.52734375 -0.234375,0 -0.3515625,0 -0.3515625,0.22265625 0,0.1289062525 0.10546875,0.1289062525 0.17578125,0.1289062525 0.234375,0 0.46874997,-0.0234375025 0.69140627,-0.0234375025 h 1.40625 c 0.2226562,0 0.4804687,0.0234375025 0.703125,0.0234375025 0.09375,0 0.2226562,0 0.2226562,-0.2226562525 0,-0.12890625 -0.1054687,-0.12890625 -0.28125,-0.12890625 -0.7148437,0 -0.7265625,-0.0820313 -0.7265625,-0.19921875 0,-0.0585938 0.011719,-0.140625 0.023437,-0.19921875 z m 0.8554687,-3.5507812 c 0.1171875,-0.4453125 0.1640625,-0.46875 0.6210938,-0.46875 h 1.1835937 c 0.9023438,0 1.640625,0.28125 1.640625,1.1835937 0,0.3046875 -0.1523437,1.3242188 -0.703125,1.875 -0.1992187,0.2109375 -0.7734375,0.6679688 -1.8632812,0.6679688 h -1.6875 z m 0,0"
       style="fill:#000000;fill-opacity:1;fill-rule:nonzero;stroke:none"
       aria-label="P"
       transform="matrix(1.3333333,0,0,1.3333333,20.1,129.74533)" />
    <path
       id="path2"
       d="m 5.0990234,-0.06974219 c 2.0507813,-0.83203125 3.5859375,-3.00000001 3.5859375,-5.16796871 0,-1.96875 -1.3007812,-3.1757813 -2.9648437,-3.1757813 -2.5664063,0 -5.14453126,2.7539063 -5.14453126,5.5078125 0,1.875 1.24218746,3.15234376 2.97656246,3.15234376 0.4101563,0 0.796875,-0.0585938 1.1835938,-0.17578125 -0.070312,0.71484375 -0.070312,0.7734375 -0.070312,1.00781249 0,0.3398438 0,1.2421875 0.9492187,1.2421875 1.4296875,0 1.9570313,-2.23828124 1.9570313,-2.30859374 0,-0.0703125 -0.046875,-0.1171875 -0.1171875,-0.1171875 -0.070312,0 -0.09375,0.05859375 -0.1289063,0.1875 -0.2578125,0.75 -0.8789062,1.18359374 -1.40625,1.18359374 -0.609375,0 -0.7617187,-0.42187499 -0.820313,-1.33593749 z m -2.15625,-0.05859375 C 1.9935547,-0.45646094 1.5482422,-1.4408359 1.5482422,-2.5423984 c 0,-0.84375 0.3046875,-2.4257813 1.0898437,-3.6328125 0.890625,-1.3710938 2.0742188,-1.9804688 3,-1.9804688 1.2539063,0 2.0859375,1.0078125 2.0859375,2.5664063 0,0.8789062 -0.421875,3.84375 -2.671875,5.15624996 C 4.9935547,-1.0423984 4.8294922,-1.7572422 4.0443359,-1.7572422 c -0.6445312,0 -1.1953125,0.6445313 -1.1953125,1.23046876 0,0.12890625 0.046875,0.31640625 0.09375,0.3984375 z m 1.8164063,-0.140625 c -0.4335938,0.1875 -0.796875,0.2578125 -1.1367188,0.2578125 -0.1171875,0 -0.5390625,0 -0.5390625,-0.52734375 0,-0.43359375 0.421875,-0.98437501 0.9609375,-0.98437501 0.5976563,0 0.7265625,0.4101563 0.7265625,1.00781251 0,0.0703125 0,0.1640625 -0.011719,0.24609375 z m 0,0"
       style="fill:#000000;fill-opacity:1;fill-rule:nonzero;stroke:none"
       aria-label="Q"
       transform="matrix(1.3333333,0,0,1.3333333,270.03333,129.74533)" />
    <g
       id="g2"
       aria-label="σ(P)"
       transform="matrix(1.3333333,0,0,1.3333333,28.753333,43.462667)"
       clip-path="url(#clipPath7)">
      <path
         id="path3"
         d="m 6.0707422,-4.5130156 c 0.1523437,0 0.5507812,0 0.5507812,-0.375 0,-0.2695313 -0.2226562,-0.2695313 -0.4453125,-0.2695313 H 3.5394922 c -1.7929688,0 -3.08203126,2.0039063 -3.08203126,3.4101563 0,1.01953123 0.65624996,1.86328123 1.73437496,1.86328123 1.40625,0 2.953125,-1.51171873 2.953125,-3.30468753 0,-0.46875 -0.1171875,-0.9257812 -0.3984375,-1.3242187 z m -3.8671875,4.39453123 c -0.609375,0 -1.0546875,-0.46875 -1.0546875,-1.28906253 0,-0.7265625 0.4335937,-3.1054687 2.1914062,-3.1054687 0.5039063,0 1.078125,0.2578125 1.078125,1.171875 0,0.421875 -0.1875,1.4296875 -0.609375,2.1210937 -0.421875,0.70312503 -1.0664062,1.10156253 -1.6054687,1.10156253 z m 0,0"
         style="fill:#000000;fill-opacity:1;fill-rule:nonzero;stroke:none" />
      <path
         id="path4"
         d="m 10.975039,2.9049531 c 0,-0.035156 0,-0.058594 -0.210937,-0.2695312 -1.1953129,-1.2070313 -1.8632817,-3.17578127 -1.8632817,-5.6132813 0,-2.3203125 0.5625,-4.3125 1.9453127,-5.7304687 0.128906,-0.1054688 0.128906,-0.1289063 0.128906,-0.1640625 0,-0.070312 -0.07031,-0.09375 -0.117187,-0.09375 -0.152344,0 -1.1367192,0.8554687 -1.7226567,2.0273437 -0.609375,1.2070313 -0.8789062,2.4960938 -0.8789062,3.9609375 0,1.0664063 0.1640625,2.48437503 0.7851562,3.76171878 0.703125,1.44140622 1.6874997,2.21484372 1.8164067,2.21484372 0.04687,0 0.117187,-0.023437 0.117187,-0.09375 z m 0,0"
         style="fill:#000000;fill-opacity:1;fill-rule:nonzero;stroke:none" />
      <path
         id="path5"
         d="m 15.176211,-3.7981719 h 2.003906 c 1.652344,0 3.304688,-1.21875 3.304688,-2.5898437 0,-0.9257813 -0.796875,-1.78125 -2.296875,-1.78125 h -3.691407 c -0.234375,0 -0.339843,0 -0.339843,0.234375 0,0.1171875 0.105468,0.1171875 0.292968,0.1171875 0.726563,0 0.726563,0.09375 0.726563,0.2226562 0,0.023437 0,0.09375 -0.04687,0.28125 l -1.617188,6.43359378 c -0.105468,0.41015625 -0.128906,0.52734375 -0.960937,0.52734375 -0.234375,0 -0.351563,0 -0.351563,0.22265625 0,0.12890625 0.105469,0.12890625 0.175782,0.12890625 0.234375,0 0.46875,-0.0234375 0.691406,-0.0234375 h 1.40625 c 0.222656,0 0.480469,0.0234375 0.703125,0.0234375 0.09375,0 0.222656,0 0.222656,-0.22265625 0,-0.12890625 -0.105469,-0.12890625 -0.28125,-0.12890625 -0.714844,0 -0.726562,-0.0820313 -0.726562,-0.19921875 0,-0.0585938 0.01172,-0.140625 0.02344,-0.19921875 z m 0.855469,-3.5507812 c 0.117187,-0.4453125 0.164062,-0.46875 0.621093,-0.46875 h 1.183594 c 0.902344,0 1.640625,0.28125 1.640625,1.1835937 0,0.3046875 -0.152344,1.3242188 -0.703125,1.875 -0.199219,0.2109375 -0.773437,0.6679688 -1.863281,0.6679688 h -1.6875 z m 0,0"
         style="fill:#000000;fill-opacity:1;fill-rule:nonzero;stroke:none" />
      <path
         id="path6"
         d="m 24.18207,-2.9778594 c 0,-0.9140625 -0.128906,-2.390625 -0.796875,-3.7734375 -0.703125,-1.4414062 -1.675781,-2.2148437 -1.816406,-2.2148437 -0.04687,0 -0.105469,0.023437 -0.105469,0.09375 0,0.035156 0,0.058594 0.199219,0.2695312 1.195313,1.2070313 1.875,3.1757813 1.875,5.6132813 0,2.32031248 -0.5625,4.3125 -1.957031,5.7304687 -0.117188,0.1054688 -0.117188,0.1289063 -0.117188,0.1640625 0,0.070312 0.05859,0.09375 0.105469,0.09375 0.164063,0 1.136719,-0.8554687 1.722656,-2.02734372 0.609375,-1.21875 0.890625,-2.51953128 0.890625,-3.94921878 z m 0,0"
         style="fill:#000000;fill-opacity:1;fill-rule:nonzero;stroke:none" />
    </g>
    <g
       id="g7"
       aria-label="σ(Q)"
       transform="matrix(1.3333333,0,0,1.3333333,209.56133,43.462667)"
       clip-path="url(#clipPath12)">
      <path
         id="path8"
         d="m 6.0711875,-4.5130156 c 0.1523438,0 0.5507813,0 0.5507813,-0.375 0,-0.2695313 -0.2226563,-0.2695313 -0.4453125,-0.2695313 H 3.5399375 c -1.7929687,0 -3.08203125,2.0039063 -3.08203125,3.4101563 0,1.01953123 0.65625005,1.86328123 1.73437505,1.86328123 1.40625,0 2.953125,-1.51171873 2.953125,-3.30468753 0,-0.46875 -0.1171875,-0.9257812 -0.3984375,-1.3242187 z M 2.204,-0.11848437 c -0.609375,0 -1.0546875,-0.46875 -1.0546875,-1.28906253 0,-0.7265625 0.4335938,-3.1054687 2.1914063,-3.1054687 0.5039062,0 1.078125,0.2578125 1.078125,1.171875 0,0.421875 -0.1875,1.4296875 -0.609375,2.1210937 C 3.3875938,-0.51692187 2.7430625,-0.11848437 2.204,-0.11848437 Z m 0,0"
         style="fill:#000000;fill-opacity:1;fill-rule:nonzero;stroke:none" />
      <path
         id="path9"
         d="m 10.975484,2.9049531 c 0,-0.035156 0,-0.058594 -0.210937,-0.2695312 -1.1953126,-1.2070313 -1.8632814,-3.17578127 -1.8632814,-5.6132813 0,-2.3203125 0.5625,-4.3125 1.9453124,-5.7304687 0.128906,-0.1054688 0.128906,-0.1289063 0.128906,-0.1640625 0,-0.070312 -0.07031,-0.09375 -0.117187,-0.09375 -0.152344,0 -1.1367189,0.8554687 -1.7226564,2.0273437 -0.609375,1.2070313 -0.8789062,2.4960938 -0.8789062,3.9609375 0,1.0664063 0.1640625,2.48437503 0.7851562,3.76171878 0.703125,1.44140622 1.6875004,2.21484372 1.8164064,2.21484372 0.04687,0 0.117187,-0.023437 0.117187,-0.09375 z m 0,0"
         style="fill:#000000;fill-opacity:1;fill-rule:nonzero;stroke:none" />
      <path
         id="path10"
         d="m 16.73232,-0.07160937 c 2.050782,-0.83203125 3.585938,-3.00000003 3.585938,-5.16796873 0,-1.96875 -1.300781,-3.1757813 -2.964844,-3.1757813 -2.566406,0 -5.144531,2.7539063 -5.144531,5.5078125 0,1.875 1.242187,3.15234378 2.976562,3.15234378 0.410157,0 0.796875,-0.0585938 1.183594,-0.17578125 -0.07031,0.71484375 -0.07031,0.7734375 -0.07031,1.00781247 0,0.3398438 0,1.2421875 0.949218,1.2421875 1.429688,0 1.957032,-2.23828122 1.957032,-2.30859372 0,-0.0703125 -0.04687,-0.1171875 -0.117188,-0.1171875 -0.07031,0 -0.09375,0.05859375 -0.128906,0.1875 -0.257813,0.75 -0.878906,1.18359372 -1.40625,1.18359372 -0.609375,0 -0.761719,-0.42187497 -0.820313,-1.33593747 z m -2.15625,-0.05859375 c -0.949218,-0.328125 -1.394531,-1.31249998 -1.394531,-2.41406248 0,-0.84375 0.304688,-2.4257813 1.089844,-3.6328125 0.890625,-1.3710938 2.074219,-1.9804688 3,-1.9804688 1.253906,0 2.085937,1.0078125 2.085937,2.5664063 0,0.8789062 -0.421875,3.84375 -2.671875,5.15624998 -0.05859,-0.60937498 -0.222656,-1.32421878 -1.007812,-1.32421878 -0.644531,0 -1.195313,0.6445313 -1.195313,1.23046878 0,0.12890625 0.04687,0.31640625 0.09375,0.3984375 z m 1.816407,-0.140625 c -0.433594,0.1875 -0.796875,0.2578125 -1.136719,0.2578125 -0.117188,0 -0.539063,0 -0.539063,-0.52734375 0,-0.43359375 0.421875,-0.98437503 0.960938,-0.98437503 0.597656,0 0.726562,0.4101563 0.726562,1.00781253 0,0.0703125 0,0.1640625 -0.01172,0.24609375 z m 0,0"
         style="fill:#000000;fill-opacity:1;fill-rule:nonzero;stroke:none" />
      <path
         id="path11"
         d="m 24.282125,-2.9778594 c 0,-0.9140625 -0.128906,-2.390625 -0.796875,-3.7734375 -0.703125,-1.4414062 -1.675781,-2.2148437 -1.816406,-2.2148437 -0.04687,0 -0.105469,0.023437 -0.105469,0.09375 0,0.035156 0,0.058594 0.199219,0.2695312 1.195312,1.2070313 1.875,3.1757813 1.875,5.6132813 0,2.32031248 -0.5625,4.3125 -1.957031,5.7304687 -0.117188,0.1054688 -0.117188,0.1289063 -0.117188,0.1640625 0,0.070312 0.05859,0.09375 0.105469,0.09375 0.164062,0 1.136719,-0.8554687 1.722656,-2.02734372 0.609375,-1.21875 0.890625,-2.51953128 0.890625,-3.94921878 z m 0,0"
         style="fill:#000000;fill-opacity:1;fill-rule:nonzero;stroke:none" />
    </g>
    <path
       id="path13"
       d="M -56.69362,0 H 113.38724"
       style="fill:none;stroke:#000000;stroke-width:0.99628;stroke-linecap:round;stroke-linejoin:miter;stroke-miterlimit:10;stroke-dasharray:none;stroke-opacity:1"
       transform="matrix(1.3333333,0,0,-1.3333333,113.38533,113.38667)" />
    <path
       id="path14"
       d="M -34.0165,45.3542 H 68.03302"
       style="fill:none;stroke:#000000;stroke-width:0.99628;stroke-linecap:round;stroke-linejoin:miter;stroke-miterlimit:10;stroke-dasharray:none;stroke-opacity:1"
       transform="matrix(1.3333333,0,0,-1.3333333,113.38533,113.38667)" />
    <path
       id="path15"
       d="m -55.1992,0 c 0,0.82533 -0.66907,1.49442 -1.49442,1.49442 -0.82533,0 -1.49441,-0.66909 -1.49441,-1.49442 0,-0.82533 0.66908,-1.49442 1.49441,-1.49442 0.82535,0 1.49442,0.66909 1.49442,1.49442 z"
       style="fill:#ffffff;fill-opacity:1;fill-rule:nonzero;stroke:#000000;stroke-width:0.3985;stroke-linecap:butt;stroke-linejoin:miter;stroke-miterlimit:10;stroke-dasharray:none;stroke-opacity:1"
       transform="matrix(1.3333333,0,0,-1.3333333,113.38533,113.38667)" />
    <path
       id="path16"
       d="m 114.88165,0 c 0,0.82533 -0.66908,1.49442 -1.49441,1.49442 -0.82535,0 -1.49442,-0.66909 -1.49442,-1.49442 0,-0.82533 0.66907,-1.49442 1.49442,-1.49442 0.82533,0 1.49441,0.66909 1.49441,1.49442 z"
       style="fill:#ffffff;fill-opacity:1;fill-rule:nonzero;stroke:#000000;stroke-width:0.3985;stroke-linecap:butt;stroke-linejoin:miter;stroke-miterlimit:10;stroke-dasharray:none;stroke-opacity:1"
       transform="matrix(1.3333333,0,0,-1.3333333,113.38533,113.38667)" />
    <path
       id="path17"
       d="m -32.52208,45.3542 c 0,0.82535 -0.66908,1.49442 -1.49442,1.49442 -0.82534,0 -1.49441,-0.66907 -1.49441,-1.49442 0,-0.82535 0.66907,-1.49441 1.49441,-1.49441 0.82534,0 1.49442,0.66906 1.49442,1.49441 z"
       style="fill:#ffffff;fill-opacity:1;fill-rule:nonzero;stroke:#000000;stroke-width:0.3985;stroke-linecap:butt;stroke-linejoin:miter;stroke-miterlimit:10;stroke-dasharray:none;stroke-opacity:1"
       transform="matrix(1.3333333,0,0,-1.3333333,113.38533,113.38667)" />
    <path
       id="path18"
       d="m 69.52744,45.3542 c 0,0.82535 -0.66907,1.49442 -1.49442,1.49442 -0.82533,0 -1.49442,-0.66907 -1.49442,-1.49442 0,-0.82535 0.66909,-1.49441 1.49442,-1.49441 0.82535,0 1.49442,0.66906 1.49442,1.49441 z"
       style="fill:#ffffff;fill-opacity:1;fill-rule:nonzero;stroke:#000000;stroke-width:0.3985;stroke-linecap:butt;stroke-linejoin:miter;stroke-miterlimit:10;stroke-dasharray:none;stroke-opacity:1"
       transform="matrix(1.3333333,0,0,-1.3333333,113.38533,113.38667)" />
  </g>
</svg>
