<?xml version="1.0" encoding="UTF-8" standalone="no"?>
<!-- Created with Inkscape (http://www.inkscape.org/) -->

<svg
   version="1.1"
   id="svg1"
   width="813.21466"
   height="209.85733"
   viewBox="0 0 813.21466 209.85733"
   sodipodi:docname="TikZ.pdf"
   xmlns:inkscape="http://www.inkscape.org/namespaces/inkscape"
   xmlns:sodipodi="http://sodipodi.sourceforge.net/DTD/sodipodi-0.dtd"
   xmlns="http://www.w3.org/2000/svg"
   xmlns:svg="http://www.w3.org/2000/svg">
  <defs
     id="defs1" />
  <sodipodi:namedview
     id="namedview1"
     pagecolor="#505050"
     bordercolor="#eeeeee"
     borderopacity="1"
     inkscape:showpageshadow="0"
     inkscape:pageopacity="0"
     inkscape:pagecheckerboard="0"
     inkscape:deskcolor="#505050">
    <inkscape:page
       x="0"
       y="0"
       inkscape:label="1"
       id="page1"
       width="813.21466"
       height="209.85733"
       margin="0"
       bleed="0" />
  </sodipodi:namedview>
  <g
     id="g1"
     inkscape:groupmode="layer"
     inkscape:label="1">
    <g
       id="g2"
       aria-label="(0,0)"
       transform="matrix(1.3333333,0,0,1.3333333,14.644,200.672)">
      <path
         id="path2"
         d="m 3.8910234,2.9061563 c 0,-0.035156 0,-0.058594 -0.2109375,-0.2695313 -1.1953125,-1.2070312 -1.8632812,-3.17578125 -1.8632812,-5.6132812 0,-2.3203125 0.5625,-4.3125 1.9453125,-5.7304688 0.1289062,-0.1054687 0.1289062,-0.1289062 0.1289062,-0.1640625 0,-0.070312 -0.070312,-0.09375 -0.1171875,-0.09375 -0.1523437,0 -1.1367187,0.8554688 -1.7226562,2.0273438 -0.609375,1.2070312 -0.8789063,2.4960937 -0.8789063,3.9609375 0,1.0664062 0.1640625,2.48437495 0.7851563,3.7617187 0.703125,1.4414063 1.6875,2.2148438 1.8164062,2.2148438 0.046875,0 0.1171875,-0.023437 0.1171875,-0.09375 z m 6.0175782,-6.7265625 c 0,-0.9960938 -0.058594,-1.96875 -0.4921875,-2.8710938 -0.4921875,-0.9960937 -1.3476563,-1.2539062 -1.9335938,-1.2539062 -0.6914062,0 -1.546875,0.3398437 -1.9804687,1.3359375 -0.3398438,0.75 -0.4570313,1.4882812 -0.4570313,2.7890625 0,1.1601562 0.082031,2.0273437 0.515625,2.8710937 C 6.0179766,-0.03525 6.8500078,0.246 7.4711016,0.246 c 1.0429687,0 1.640625,-0.62109375 1.9804687,-1.3125 0.4335938,-0.890625 0.4570313,-2.0625 0.4570313,-2.7539062 z m -2.4375,3.8320312 c -0.3867188,0 -1.1601563,-0.2109375 -1.3828125,-1.5234375 C 5.9476641,-2.2266562 5.9476641,-3.129 5.9476641,-3.97275 c 0,-0.9726562 0,-1.8632812 0.1992187,-2.5664062 0.1992188,-0.796875 0.8085938,-1.171875 1.3242188,-1.171875 0.4570312,0 1.1484375,0.28125 1.3710937,1.3007812 0.1523438,0.6796875 0.1523438,1.6289063 0.1523438,2.4375 0,0.8085938 0,1.7109375 -0.1289063,2.4375 -0.2226562,1.32421875 -0.9726562,1.546875 -1.3945312,1.546875 z m 0,0"
         style="fill:#000000;fill-opacity:1;fill-rule:nonzero;stroke:none" />
      <path
         id="path3"
         d="m 12.73868,0.04678125 c 0,-0.69140625 -0.222657,-1.20703125 -0.714844,-1.20703125 -0.386719,0 -0.574219,0.31640625 -0.574219,0.57421875 0,0.2578125 0.175781,0.5859375 0.585938,0.5859375 0.152343,0 0.28125,-0.046875 0.386718,-0.15234375 0.02344,-0.0234375 0.03516,-0.0234375 0.04687,-0.0234375 0.03516,0 0.03516,0.1640625 0.03516,0.22265625 0,0.3984375 -0.08203,1.17187505 -0.773438,1.94531255 -0.128906,0.1523437 -0.128906,0.1757812 -0.128906,0.1992187 0,0.058594 0.05859,0.1171875 0.117187,0.1171875 0.09375,0 1.019532,-0.890625 1.019532,-2.26171875 z m 0,0"
         style="fill:#000000;fill-opacity:1;fill-rule:nonzero;stroke:none" />
      <path
         id="path4"
         d="m 21.009187,-3.8204062 c 0,-0.9960938 -0.05859,-1.96875 -0.492187,-2.8710938 -0.492188,-0.9960937 -1.347656,-1.2539062 -1.933594,-1.2539062 -0.691406,0 -1.546875,0.3398437 -1.980469,1.3359375 -0.339843,0.75 -0.457031,1.4882812 -0.457031,2.7890625 0,1.1601562 0.08203,2.0273437 0.515625,2.8710937 C 17.118562,-0.03525 17.950594,0.246 18.571687,0.246 c 1.042969,0 1.640625,-0.62109375 1.980469,-1.3125 0.433594,-0.890625 0.457031,-2.0625 0.457031,-2.7539062 z m -2.4375,3.8320312 c -0.386718,0 -1.160156,-0.2109375 -1.382812,-1.5234375 C 17.04825,-2.2266562 17.04825,-3.129 17.04825,-3.97275 c 0,-0.9726562 0,-1.8632812 0.199219,-2.5664062 0.199218,-0.796875 0.808593,-1.171875 1.324218,-1.171875 0.457032,0 1.148438,0.28125 1.371094,1.3007812 0.152344,0.6796875 0.152344,1.6289063 0.152344,2.4375 0,0.8085938 0,1.7109375 -0.128906,2.4375 -0.222657,1.32421875 -0.972657,1.546875 -1.394532,1.546875 z m 6.310547,-2.9882812 c 0,-0.9140625 -0.128906,-2.390625 -0.796875,-3.7734375 -0.703125,-1.4414063 -1.675781,-2.2148438 -1.816406,-2.2148438 -0.04687,0 -0.105469,0.023437 -0.105469,0.09375 0,0.035156 0,0.058594 0.199219,0.2695313 1.195313,1.2070312 1.875,3.1757812 1.875,5.6132812 0,2.3203125 -0.5625,4.3125 -1.957031,5.7304688 -0.117188,0.1054687 -0.117188,0.1289062 -0.117188,0.1640625 0,0.070312 0.05859,0.09375 0.105469,0.09375 0.164063,0 1.136719,-0.8554688 1.722656,-2.0273438 0.609375,-1.21875 0.890625,-2.5195312 0.890625,-3.9492187 z m 0,0"
         style="fill:#000000;fill-opacity:1;fill-rule:nonzero;stroke:none" />
    </g>
    <g
       id="g4"
       aria-label="(1,0)"
       transform="matrix(1.3333333,0,0,1.3333333,75.276,200.672)">
      <path
         id="path5"
         d="m 3.8916328,2.9061563 c 0,-0.035156 0,-0.058594 -0.2109375,-0.2695313 -1.1953125,-1.2070312 -1.8632812,-3.17578125 -1.8632812,-5.6132812 0,-2.3203125 0.5625,-4.3125 1.9453125,-5.7304688 0.1289062,-0.1054687 0.1289062,-0.1289062 0.1289062,-0.1640625 0,-0.070312 -0.070312,-0.09375 -0.1171875,-0.09375 -0.1523437,0 -1.1367187,0.8554688 -1.7226562,2.0273438 -0.609375,1.2070312 -0.8789063,2.4960937 -0.8789063,3.9609375 0,1.0664062 0.1640625,2.48437495 0.7851563,3.7617187 0.703125,1.4414063 1.6875,2.2148438 1.8164062,2.2148438 0.046875,0 0.1171875,-0.023437 0.1171875,-0.09375 z M 7.9990547,-7.6641562 c 0,-0.2695313 0,-0.28125 -0.2460938,-0.28125 -0.28125,0.3164062 -0.8789062,0.7617187 -2.109375,0.7617187 v 0.3515625 c 0.2695313,0 0.8671875,0 1.5234375,-0.3164062 v 6.2226562 c 0,0.43359375 -0.035156,0.57421875 -1.078125,0.57421875 h -0.375 v 0.3515625 c 0.3164063,-0.0234375 1.4765625,-0.0234375 1.875,-0.0234375 0.3984375,0 1.546875,0 1.8632813,0.0234375 v -0.3515625 H 9.0888984 c -1.0546875,0 -1.0898437,-0.140625 -1.0898437,-0.57421875 z m 0,0"
         style="fill:#000000;fill-opacity:1;fill-rule:nonzero;stroke:none" />
      <path
         id="path6"
         d="m 12.739289,0.04678125 c 0,-0.69140625 -0.222656,-1.20703125 -0.714844,-1.20703125 -0.386718,0 -0.574218,0.31640625 -0.574218,0.57421875 0,0.2578125 0.175781,0.5859375 0.585937,0.5859375 0.152344,0 0.28125,-0.046875 0.386719,-0.15234375 0.02344,-0.0234375 0.03516,-0.0234375 0.04687,-0.0234375 0.03516,0 0.03516,0.1640625 0.03516,0.22265625 0,0.3984375 -0.08203,1.17187505 -0.773437,1.94531255 -0.128907,0.1523437 -0.128907,0.1757812 -0.128907,0.1992187 0,0.058594 0.05859,0.1171875 0.117188,0.1171875 0.09375,0 1.019531,-0.890625 1.019532,-2.26171875 z m 0,0"
         style="fill:#000000;fill-opacity:1;fill-rule:nonzero;stroke:none" />
      <path
         id="path7"
         d="m 21.009797,-3.8204062 c 0,-0.9960938 -0.05859,-1.96875 -0.492188,-2.8710938 -0.492187,-0.9960937 -1.347656,-1.2539062 -1.933593,-1.2539062 -0.691407,0 -1.546875,0.3398437 -1.980469,1.3359375 -0.339844,0.75 -0.457031,1.4882812 -0.457031,2.7890625 0,1.1601562 0.08203,2.0273437 0.515625,2.8710937 C 17.119172,-0.03525 17.951203,0.246 18.572297,0.246 c 1.042969,0 1.640625,-0.62109375 1.980469,-1.3125 0.433593,-0.890625 0.457031,-2.0625 0.457031,-2.7539062 z m -2.4375,3.8320312 c -0.386719,0 -1.160156,-0.2109375 -1.382813,-1.5234375 C 17.048859,-2.2266562 17.048859,-3.129 17.048859,-3.97275 c 0,-0.9726562 0,-1.8632812 0.199219,-2.5664062 0.199219,-0.796875 0.808594,-1.171875 1.324219,-1.171875 0.457031,0 1.148437,0.28125 1.371094,1.3007812 0.152343,0.6796875 0.152343,1.6289063 0.152343,2.4375 0,0.8085938 0,1.7109375 -0.128906,2.4375 -0.222656,1.32421875 -0.972656,1.546875 -1.394531,1.546875 z m 6.310547,-2.9882812 c 0,-0.9140625 -0.128907,-2.390625 -0.796875,-3.7734375 -0.703125,-1.4414063 -1.675782,-2.2148438 -1.816407,-2.2148438 -0.04687,0 -0.105468,0.023437 -0.105468,0.09375 0,0.035156 0,0.058594 0.199218,0.2695313 1.195313,1.2070312 1.875,3.1757812 1.875,5.6132812 0,2.3203125 -0.5625,4.3125 -1.957031,5.7304688 -0.117187,0.1054687 -0.117187,0.1289062 -0.117187,0.1640625 0,0.070312 0.05859,0.09375 0.105468,0.09375 0.164063,0 1.136719,-0.8554688 1.722657,-2.0273438 0.609375,-1.21875 0.890625,-2.5195312 0.890625,-3.9492187 z m 0,0"
         style="fill:#000000;fill-opacity:1;fill-rule:nonzero;stroke:none" />
    </g>
    <g
       id="g7"
       aria-label="(0,1)"
       transform="matrix(1.3333333,0,0,1.3333333,14.644,149.44)">
      <path
         id="path8"
         d="m 3.8910234,2.9073047 c 0,-0.035156 0,-0.058594 -0.2109375,-0.2695313 -1.1953125,-1.2070312 -1.8632812,-3.17578121 -1.8632812,-5.6132812 0,-2.3203125 0.5625,-4.3125 1.9453125,-5.7304688 0.1289062,-0.1054687 0.1289062,-0.1289062 0.1289062,-0.1640625 0,-0.070312 -0.070312,-0.09375 -0.1171875,-0.09375 -0.1523437,0 -1.1367187,0.8554688 -1.7226562,2.0273438 -0.609375,1.2070312 -0.8789063,2.4960937 -0.8789063,3.9609375 0,1.0664062 0.1640625,2.48437499 0.7851563,3.76171874 0.703125,1.44140626 1.6875,2.21484376 1.8164062,2.21484376 0.046875,0 0.1171875,-0.023437 0.1171875,-0.09375 z m 6.0175782,-6.7265625 c 0,-0.9960938 -0.058594,-1.96875 -0.4921875,-2.8710938 -0.4921875,-0.9960937 -1.3476563,-1.2539062 -1.9335938,-1.2539062 -0.6914062,0 -1.546875,0.3398437 -1.9804687,1.3359375 -0.3398438,0.75 -0.4570313,1.4882812 -0.4570313,2.7890625 0,1.1601562 0.082031,2.0273437 0.515625,2.87109374 0.4570313,0.9140625 1.2890625,1.1953125 1.9101563,1.1953125 1.0429687,0 1.640625,-0.62109375 1.9804687,-1.31250004 0.4335938,-0.890625 0.4570313,-2.0625 0.4570313,-2.7539062 z m -2.4375,3.83203124 c -0.3867188,0 -1.1601563,-0.2109375 -1.3828125,-1.52343754 -0.140625,-0.7148437 -0.140625,-1.6171875 -0.140625,-2.4609375 0,-0.9726562 0,-1.8632812 0.1992187,-2.5664062 0.1992188,-0.796875 0.8085938,-1.171875 1.3242188,-1.171875 0.4570312,0 1.1484375,0.28125 1.3710937,1.3007812 0.1523438,0.6796875 0.1523438,1.6289063 0.1523438,2.4375 0,0.8085938 0,1.7109375 -0.1289063,2.4375 -0.2226562,1.32421879 -0.9726562,1.54687504 -1.3945312,1.54687504 z m 0,0"
         style="fill:#000000;fill-opacity:1;fill-rule:nonzero;stroke:none" />
      <path
         id="path9"
         d="m 12.73868,0.04792969 c 0,-0.69140625 -0.222657,-1.20703129 -0.714844,-1.20703129 -0.386719,0 -0.574219,0.31640629 -0.574219,0.57421879 0,0.2578125 0.175781,0.5859375 0.585938,0.5859375 0.152343,0 0.28125,-0.046875 0.386718,-0.15234375 0.02344,-0.0234375 0.03516,-0.0234375 0.04687,-0.0234375 0.03516,0 0.03516,0.1640625 0.03516,0.22265625 0,0.3984375 -0.08203,1.17187501 -0.773438,1.94531251 -0.128906,0.1523437 -0.128906,0.1757812 -0.128906,0.1992187 0,0.058594 0.05859,0.1171875 0.117187,0.1171875 0.09375,0 1.019532,-0.890625 1.019532,-2.26171871 z m 0,0"
         style="fill:#000000;fill-opacity:1;fill-rule:nonzero;stroke:none" />
      <path
         id="path10"
         d="m 19.099031,-7.6630078 c 0,-0.2695313 0,-0.28125 -0.246094,-0.28125 -0.28125,0.3164062 -0.878906,0.7617187 -2.109375,0.7617187 v 0.3515625 c 0.269532,0 0.867188,0 1.523438,-0.3164062 v 6.22265624 c 0,0.43359375 -0.03516,0.57421875 -1.078125,0.57421875 h -0.375 v 0.3515625 c 0.316406,-0.0234375 1.476562,-0.0234375 1.875,-0.0234375 0.398437,0 1.546875,0 1.863281,0.0234375 v -0.3515625 h -0.363281 c -1.054688,0 -1.089844,-0.140625 -1.089844,-0.57421875 z m 5.783203,4.6875 c 0,-0.9140625 -0.128906,-2.390625 -0.796875,-3.7734375 -0.703125,-1.4414063 -1.675781,-2.2148438 -1.816406,-2.2148438 -0.04687,0 -0.105469,0.023437 -0.105469,0.09375 0,0.035156 0,0.058594 0.199219,0.2695313 1.195313,1.2070312 1.875,3.1757812 1.875,5.6132812 0,2.32031254 -0.5625,4.3125 -1.957031,5.7304688 -0.117188,0.1054687 -0.117188,0.1289062 -0.117188,0.1640625 0,0.070312 0.05859,0.09375 0.105469,0.09375 0.164063,0 1.136719,-0.8554688 1.722656,-2.02734376 0.609375,-1.21875 0.890625,-2.51953124 0.890625,-3.94921874 z m 0,0"
         style="fill:#000000;fill-opacity:1;fill-rule:nonzero;stroke:none" />
    </g>
    <g
       id="g10"
       aria-label="σ(1,0)"
       transform="matrix(1.3333333,0,0,1.3333333,165.04267,200.672)">
      <path
         id="path11"
         d="m 6.0705391,-4.5118125 c 0.1523437,0 0.5507812,0 0.5507812,-0.375 0,-0.2695312 -0.2226562,-0.2695312 -0.4453125,-0.2695312 H 3.5392891 c -1.7929688,0 -3.08203129,2.0039062 -3.08203129,3.4101562 0,1.01953125 0.65624999,1.86328125 1.73437499,1.86328125 1.40625,0 2.953125,-1.51171875 2.953125,-3.30468745 0,-0.46875 -0.1171875,-0.9257813 -0.3984375,-1.3242188 z m -3.8671875,4.39453125 c -0.609375,0 -1.0546875,-0.46875 -1.0546875,-1.28906245 0,-0.7265625 0.4335937,-3.1054688 2.1914062,-3.1054688 0.5039063,0 1.078125,0.2578125 1.078125,1.171875 0,0.421875 -0.1875,1.4296875 -0.609375,2.1210938 -0.421875,0.70312495 -1.0664062,1.10156245 -1.6054687,1.10156245 z m 0,0"
         style="fill:#000000;fill-opacity:1;fill-rule:nonzero;stroke:none" />
      <path
         id="path12"
         d="m 10.974836,2.9061563 c 0,-0.035156 0,-0.058594 -0.210938,-0.2695313 -1.1953121,-1.2070312 -1.8632808,-3.17578125 -1.8632808,-5.6132812 0,-2.3203125 0.5625,-4.3125 1.9453128,-5.7304688 0.128906,-0.1054687 0.128906,-0.1289062 0.128906,-0.1640625 0,-0.070312 -0.07031,-0.09375 -0.117188,-0.09375 -0.152343,0 -1.1367183,0.8554688 -1.7226558,2.0273438 -0.609375,1.2070312 -0.8789063,2.4960937 -0.8789063,3.9609375 0,1.0664062 0.1640625,2.48437495 0.7851563,3.7617187 0.703125,1.4414063 1.6874998,2.2148438 1.8164058,2.2148438 0.04687,0 0.117188,-0.023437 0.117188,-0.09375 z m 4.107422,-10.5703125 c 0,-0.2695313 0,-0.28125 -0.246094,-0.28125 -0.28125,0.3164062 -0.878906,0.7617187 -2.109375,0.7617187 v 0.3515625 c 0.269531,0 0.867188,0 1.523438,-0.3164062 v 6.2226562 c 0,0.43359375 -0.03516,0.57421875 -1.078125,0.57421875 h -0.375 v 0.3515625 c 0.316406,-0.0234375 1.476562,-0.0234375 1.875,-0.0234375 0.398437,0 1.546875,0 1.863281,0.0234375 v -0.3515625 h -0.363281 c -1.054688,0 -1.089844,-0.140625 -1.089844,-0.57421875 z m 0,0"
         style="fill:#000000;fill-opacity:1;fill-rule:nonzero;stroke:none" />
      <path
         id="path13"
         d="m 19.822492,0.04678125 c 0,-0.69140625 -0.222656,-1.20703125 -0.714844,-1.20703125 -0.386718,0 -0.574218,0.31640625 -0.574218,0.57421875 0,0.2578125 0.175781,0.5859375 0.585937,0.5859375 0.152344,0 0.28125,-0.046875 0.386719,-0.15234375 0.02344,-0.0234375 0.03516,-0.0234375 0.04687,-0.0234375 0.03516,0 0.03516,0.1640625 0.03516,0.22265625 0,0.3984375 -0.08203,1.17187505 -0.773437,1.94531255 -0.128907,0.1523437 -0.128907,0.1757812 -0.128907,0.1992187 0,0.058594 0.05859,0.1171875 0.117188,0.1171875 0.09375,0 1.019531,-0.890625 1.019531,-2.26171875 z m 0,0"
         style="fill:#000000;fill-opacity:1;fill-rule:nonzero;stroke:none" />
      <path
         id="path14"
         d="m 28.081281,-3.8204062 c 0,-0.9960938 -0.05859,-1.96875 -0.492187,-2.8710938 -0.492188,-0.9960937 -1.347656,-1.2539062 -1.933594,-1.2539062 -0.691406,0 -1.546875,0.3398437 -1.980469,1.3359375 -0.339843,0.75 -0.457031,1.4882812 -0.457031,2.7890625 0,1.1601562 0.08203,2.0273437 0.515625,2.8710937 C 24.190656,-0.03525 25.022688,0.246 25.643781,0.246 c 1.042969,0 1.640625,-0.62109375 1.980469,-1.3125 0.433594,-0.890625 0.457031,-2.0625 0.457031,-2.7539062 z m -2.4375,3.8320312 c -0.386718,0 -1.160156,-0.2109375 -1.382812,-1.5234375 C 24.120344,-2.2266562 24.120344,-3.129 24.120344,-3.97275 c 0,-0.9726562 0,-1.8632812 0.199219,-2.5664062 0.199218,-0.796875 0.808593,-1.171875 1.324218,-1.171875 0.457032,0 1.148438,0.28125 1.371094,1.3007812 0.152344,0.6796875 0.152344,1.6289063 0.152344,2.4375 0,0.8085938 0,1.7109375 -0.128906,2.4375 -0.222657,1.32421875 -0.972657,1.546875 -1.394532,1.546875 z m 6.310547,-2.9882812 c 0,-0.9140625 -0.128906,-2.390625 -0.796875,-3.7734375 -0.703125,-1.4414063 -1.675781,-2.2148438 -1.816406,-2.2148438 -0.04687,0 -0.105469,0.023437 -0.105469,0.09375 0,0.035156 0,0.058594 0.199219,0.2695313 1.195312,1.2070312 1.875,3.1757812 1.875,5.6132812 0,2.3203125 -0.5625,4.3125 -1.957031,5.7304688 -0.117188,0.1054687 -0.117188,0.1289062 -0.117188,0.1640625 0,0.070312 0.05859,0.09375 0.105469,0.09375 0.164062,0 1.136719,-0.8554688 1.722656,-2.0273438 0.609375,-1.21875 0.890625,-2.5195312 0.890625,-3.9492187 z m 0,0"
         style="fill:#000000;fill-opacity:1;fill-rule:nonzero;stroke:none" />
    </g>
    <g
       id="g14"
       aria-label="µ(1,0)"
       transform="matrix(1.3333333,0,0,1.3333333,230.396,200.672)">
      <path
         id="path15"
         d="m 1.7215547,-0.25790625 c 0.2929687,0.26953125 0.7382812,0.375 1.1484375,0.375 0.7617187,0 1.2890625,-0.515625 1.5585937,-0.87890625 0.1289063,0.6328125 0.6210938,0.87890625 1.0429688,0.87890625 0.3632812,0 0.6445312,-0.2109375 0.8671875,-0.64453125 0.1875,-0.41015625 0.3515625,-1.1367187 0.3515625,-1.1835937 0,-0.058594 -0.046875,-0.1054688 -0.1171875,-0.1054688 -0.1054688,0 -0.1171875,0.058594 -0.1640625,0.234375 -0.1875,0.71484375 -0.4101563,1.46484375 -0.9023438,1.46484375 -0.3398437,0 -0.3632812,-0.31640625 -0.3632812,-0.55078125 0,-0.28125 0.1054687,-0.703125 0.1875,-1.0664062 l 0.328125,-1.2890625 c 0.058594,-0.2226563 0.1875,-0.7617188 0.2460937,-0.984375 0.070312,-0.28125 0.1992188,-0.796875 0.1992188,-0.84375 0,-0.1757813 -0.140625,-0.3046875 -0.3164063,-0.3046875 -0.1054687,0 -0.3632812,0.046875 -0.4570312,0.4101562 l -0.8320313,3.328125 c -0.070312,0.234375 -0.070312,0.2578125 -0.2226562,0.4453125 -0.140625,0.2109375 -0.609375,0.85546875 -1.359375,0.85546875 -0.6679688,0 -0.890625,-0.4921875 -0.890625,-1.05468745 0,-0.3515625 0.1171875,-0.7617188 0.1640625,-0.9726563 l 0.5390625,-2.1445312 c 0.058594,-0.234375 0.1523437,-0.609375 0.1523437,-0.6796875 0,-0.1992188 -0.1523437,-0.3046875 -0.3164062,-0.3046875 -0.1054688,0 -0.3632813,0.035156 -0.4570313,0.421875 L 0.37389844,2.0624063 c -0.0117188,0.070312 -0.0351563,0.140625 -0.0351563,0.2109375 0,0.1757812 0.140625,0.2929687 0.31640625,0.2929687 0.35156251,0 0.42187501,-0.2695312 0.50390621,-0.609375 z m 0,0"
         style="fill:#000000;fill-opacity:1;fill-rule:nonzero;stroke:none" />
      <path
         id="path16"
         d="m 10.932492,2.9061563 c 0,-0.035156 0,-0.058594 -0.210937,-0.2695313 -1.1953128,-1.2070312 -1.8632816,-3.17578125 -1.8632816,-5.6132812 0,-2.3203125 0.5625,-4.3125 1.9453126,-5.7304688 0.128906,-0.1054687 0.128906,-0.1289062 0.128906,-0.1640625 0,-0.070312 -0.07031,-0.09375 -0.117187,-0.09375 -0.152344,0 -1.1367191,0.8554688 -1.7226566,2.0273438 -0.609375,1.2070312 -0.8789062,2.4960937 -0.8789062,3.9609375 0,1.0664062 0.1640625,2.48437495 0.7851562,3.7617187 0.703125,1.4414063 1.6874996,2.2148438 1.8164066,2.2148438 0.04687,0 0.117187,-0.023437 0.117187,-0.09375 z m 4.107422,-10.5703125 c 0,-0.2695313 0,-0.28125 -0.246094,-0.28125 -0.28125,0.3164062 -0.878906,0.7617187 -2.109375,0.7617187 v 0.3515625 c 0.269532,0 0.867188,0 1.523438,-0.3164062 v 6.2226562 c 0,0.43359375 -0.03516,0.57421875 -1.078125,0.57421875 h -0.375 v 0.3515625 c 0.316406,-0.0234375 1.476562,-0.0234375 1.875,-0.0234375 0.398437,0 1.546875,0 1.863281,0.0234375 v -0.3515625 h -0.363281 c -1.054688,0 -1.089844,-0.140625 -1.089844,-0.57421875 z m 0,0"
         style="fill:#000000;fill-opacity:1;fill-rule:nonzero;stroke:none" />
      <path
         id="path17"
         d="m 19.780148,0.04678125 c 0,-0.69140625 -0.222656,-1.20703125 -0.714843,-1.20703125 -0.386719,0 -0.574219,0.31640625 -0.574219,0.57421875 0,0.2578125 0.175781,0.5859375 0.585937,0.5859375 0.152344,0 0.28125,-0.046875 0.386719,-0.15234375 0.02344,-0.0234375 0.03516,-0.0234375 0.04687,-0.0234375 0.03516,0 0.03516,0.1640625 0.03516,0.22265625 0,0.3984375 -0.08203,1.17187505 -0.773437,1.94531255 -0.128906,0.1523437 -0.128906,0.1757812 -0.128906,0.1992187 0,0.058594 0.05859,0.1171875 0.117187,0.1171875 0.09375,0 1.019531,-0.890625 1.019532,-2.26171875 z m 0,0"
         style="fill:#000000;fill-opacity:1;fill-rule:nonzero;stroke:none" />
      <path
         id="path18"
         d="m 28.053586,-3.8204062 c 0,-0.9960938 -0.05859,-1.96875 -0.492188,-2.8710938 -0.492187,-0.9960937 -1.347656,-1.2539062 -1.933593,-1.2539062 -0.691407,0 -1.546875,0.3398437 -1.980469,1.3359375 -0.339844,0.75 -0.457031,1.4882812 -0.457031,2.7890625 0,1.1601562 0.08203,2.0273437 0.515625,2.8710937 C 24.162961,-0.03525 24.994992,0.246 25.616086,0.246 c 1.042969,0 1.640625,-0.62109375 1.980469,-1.3125 0.433593,-0.890625 0.457031,-2.0625 0.457031,-2.7539062 z m -2.4375,3.8320312 c -0.386719,0 -1.160156,-0.2109375 -1.382813,-1.5234375 C 24.092648,-2.2266562 24.092648,-3.129 24.092648,-3.97275 c 0,-0.9726562 0,-1.8632812 0.199219,-2.5664062 0.199219,-0.796875 0.808594,-1.171875 1.324219,-1.171875 0.457031,0 1.148437,0.28125 1.371094,1.3007812 0.152343,0.6796875 0.152343,1.6289063 0.152343,2.4375 0,0.8085938 0,1.7109375 -0.128906,2.4375 -0.222656,1.32421875 -0.972656,1.546875 -1.394531,1.546875 z m 6.310547,-2.9882812 c 0,-0.9140625 -0.128906,-2.390625 -0.796875,-3.7734375 -0.703125,-1.4414063 -1.675781,-2.2148438 -1.816406,-2.2148438 -0.04687,0 -0.105469,0.023437 -0.105469,0.09375 0,0.035156 0,0.058594 0.199219,0.2695313 1.195312,1.2070312 1.875,3.1757812 1.875,5.6132812 0,2.3203125 -0.5625,4.3125 -1.957032,5.7304688 -0.117187,0.1054687 -0.117187,0.1289062 -0.117187,0.1640625 0,0.070312 0.05859,0.09375 0.105469,0.09375 0.164062,0 1.136718,-0.8554688 1.722656,-2.0273438 0.609375,-1.21875 0.890625,-2.5195312 0.890625,-3.9492187 z m 0,0"
         style="fill:#000000;fill-opacity:1;fill-rule:nonzero;stroke:none" />
    </g>
    <g
       id="g18"
       aria-label="σ(0,1)"
       transform="matrix(1.3333333,0,0,1.3333333,5.2013333,54.950667)">
      <path
         id="path19"
         d="m 6.0716562,-4.5128047 c 0.1523438,0 0.5507813,0 0.5507813,-0.375 0,-0.2695312 -0.2226563,-0.2695312 -0.4453125,-0.2695312 H 3.5404062 c -1.7929687,0 -3.0820312,2.0039062 -3.0820312,3.4101562 0,1.01953126 0.65625,1.86328126 1.734375,1.86328126 1.40625,0 2.953125,-1.51171876 2.953125,-3.30468746 0,-0.46875 -0.1171875,-0.9257813 -0.3984375,-1.3242188 z m -3.8671875,4.39453126 c -0.609375,0 -1.0546875,-0.46875 -1.0546875,-1.28906246 0,-0.7265625 0.4335938,-3.1054688 2.1914063,-3.1054688 0.5039062,0 1.078125,0.2578125 1.078125,1.171875 0,0.421875 -0.1875,1.4296875 -0.609375,2.1210938 -0.421875,0.70312496 -1.0664063,1.10156246 -1.6054688,1.10156246 z m 0,0"
         style="fill:#000000;fill-opacity:1;fill-rule:nonzero;stroke:none" />
      <path
         id="path20"
         d="m 10.973023,2.9051641 c 0,-0.035156 0,-0.058594 -0.210937,-0.2695313 -1.1953126,-1.2070312 -1.8632813,-3.17578124 -1.8632813,-5.6132812 0,-2.3203125 0.5625,-4.3125 1.9453123,-5.7304688 0.128906,-0.1054687 0.128906,-0.1289062 0.128906,-0.1640625 0,-0.070312 -0.07031,-0.09375 -0.117187,-0.09375 -0.152344,0 -1.1367188,0.8554688 -1.7226563,2.0273438 -0.609375,1.2070312 -0.8789063,2.4960937 -0.8789063,3.9609375 0,1.0664062 0.1640625,2.48437496 0.7851563,3.76171871 0.703125,1.44140629 1.6875003,2.21484379 1.8164063,2.21484379 0.04687,0 0.117187,-0.023437 0.117187,-0.09375 z m 6.017579,-6.7265625 c 0,-0.9960938 -0.05859,-1.96875 -0.492188,-2.8710938 -0.492187,-0.9960937 -1.347656,-1.2539062 -1.933594,-1.2539062 -0.691406,0 -1.546875,0.3398437 -1.980468,1.3359375 -0.339844,0.75 -0.457032,1.4882812 -0.457032,2.7890625 0,1.1601562 0.08203,2.0273437 0.515625,2.87109371 0.457032,0.9140625 1.289063,1.1953125 1.910157,1.1953125 1.042968,0 1.640625,-0.62109375 1.980468,-1.31250001 0.433594,-0.890625 0.457032,-2.0625 0.457032,-2.7539062 z m -2.4375,3.83203121 c -0.386719,0 -1.160157,-0.2109375 -1.382813,-1.52343751 -0.140625,-0.7148437 -0.140625,-1.6171875 -0.140625,-2.4609375 0,-0.9726562 0,-1.8632812 0.199219,-2.5664062 0.199219,-0.796875 0.808594,-1.171875 1.324219,-1.171875 0.457031,0 1.148437,0.28125 1.371093,1.3007812 0.152344,0.6796875 0.152344,1.6289063 0.152344,2.4375 0,0.8085938 0,1.7109375 -0.128906,2.4375 -0.222656,1.32421876 -0.972656,1.54687501 -1.394531,1.54687501 z m 0,0"
         style="fill:#000000;fill-opacity:1;fill-rule:nonzero;stroke:none" />
      <path
         id="path21"
         d="m 19.82068,0.04578906 c 0,-0.69140625 -0.222657,-1.20703126 -0.714844,-1.20703126 -0.386719,0 -0.574219,0.31640626 -0.574219,0.57421876 0,0.2578125 0.175781,0.5859375 0.585938,0.5859375 0.152343,0 0.28125,-0.046875 0.386718,-0.15234375 0.02344,-0.0234375 0.03516,-0.0234375 0.04687,-0.0234375 0.03516,0 0.03516,0.1640625 0.03516,0.22265625 0,0.3984375 -0.08203,1.17187504 -0.773438,1.94531254 -0.128906,0.1523437 -0.128906,0.1757812 -0.128906,0.1992187 0,0.058594 0.05859,0.1171875 0.117187,0.1171875 0.09375,0 1.019532,-0.890625 1.019532,-2.26171874 z m 0,0"
         style="fill:#000000;fill-opacity:1;fill-rule:nonzero;stroke:none" />
      <path
         id="path22"
         d="m 26.172242,-7.6651484 c 0,-0.2695313 0,-0.28125 -0.246094,-0.28125 -0.28125,0.3164062 -0.878906,0.7617187 -2.109375,0.7617187 v 0.3515625 c 0.269532,0 0.867188,0 1.523438,-0.3164062 v 6.22265621 c 0,0.43359375 -0.03516,0.57421875 -1.078125,0.57421875 h -0.375 v 0.3515625 c 0.316406,-0.0234375 1.476562,-0.0234375 1.875,-0.0234375 0.398437,0 1.546875,0 1.863281,0.0234375 v -0.3515625 h -0.363281 c -1.054688,0 -1.089844,-0.140625 -1.089844,-0.57421875 z m 5.780274,4.6875 c 0,-0.9140625 -0.128907,-2.390625 -0.796875,-3.7734375 -0.703125,-1.4414063 -1.675782,-2.2148438 -1.816407,-2.2148438 -0.04687,0 -0.105468,0.023437 -0.105468,0.09375 0,0.035156 0,0.058594 0.199218,0.2695313 1.195313,1.2070312 1.875,3.1757812 1.875,5.6132812 0,2.32031251 -0.5625,4.3125 -1.957031,5.7304688 -0.117187,0.1054687 -0.117187,0.1289062 -0.117187,0.1640625 0,0.070312 0.05859,0.09375 0.105468,0.09375 0.164063,0 1.136719,-0.8554688 1.722657,-2.02734379 0.609375,-1.21875 0.890625,-2.51953121 0.890625,-3.94921871 z m 0,0"
         style="fill:#000000;fill-opacity:1;fill-rule:nonzero;stroke:none" />
    </g>
    <g
       id="g22"
       aria-label="µ(0,1)"
       transform="matrix(1.3333333,0,0,1.3333333,5.2533333,17.156)">
      <path
         id="path23"
         d="m 1.7230859,-0.257625 c 0.2929688,0.26953125 0.7382813,0.375 1.1484375,0.375 0.7617188,0 1.2890625,-0.515625 1.5585938,-0.87890625 0.1289062,0.6328125 0.6210937,0.87890625 1.0429687,0.87890625 0.3632813,0 0.6445313,-0.2109375 0.8671875,-0.64453125 0.1875,-0.41015625 0.3515625,-1.13671875 0.3515625,-1.18359375 0,-0.058594 -0.046875,-0.1054688 -0.1171875,-0.1054688 -0.1054687,0 -0.1171875,0.058594 -0.1640625,0.234375 C 6.2230859,-0.867 6.0004297,-0.117 5.5082422,-0.117 c -0.3398438,0 -0.3632813,-0.31640625 -0.3632813,-0.55078125 0,-0.28125 0.1054688,-0.70312505 0.1875,-1.06640625 L 5.6605859,-3.02325 c 0.058594,-0.2226563 0.1875,-0.7617188 0.2460938,-0.984375 0.070312,-0.28125 0.1992187,-0.796875 0.1992187,-0.84375 0,-0.1757813 -0.140625,-0.3046875 -0.3164062,-0.3046875 -0.1054688,0 -0.3632813,0.046875 -0.4570313,0.4101562 l -0.8320312,3.328125 c -0.070312,0.234375 -0.070312,0.2578125 -0.2226563,0.44531255 C 4.1371484,-0.76153125 3.6683984,-0.117 2.9183984,-0.117 c -0.6679687,0 -0.890625,-0.4921875 -0.890625,-1.0546875 0,-0.3515625 0.1171875,-0.7617188 0.1640625,-0.9726563 L 2.7308984,-4.288875 c 0.058594,-0.234375 0.1523438,-0.609375 0.1523438,-0.6796875 0,-0.1992188 -0.1523438,-0.3046875 -0.3164063,-0.3046875 -0.1054687,0 -0.3632812,0.035156 -0.4570312,0.421875 L 0.37542969,2.0626875 C 0.36371094,2.133 0.34027344,2.2033125 0.34027344,2.273625 c 0,0.1757812 0.140625,0.2929687 0.31640625,0.2929687 0.35156251,0 0.42187501,-0.2695312 0.50390621,-0.609375 z m 0,0"
         style="fill:#000000;fill-opacity:1;fill-rule:nonzero;stroke:none" />
      <path
         id="path24"
         d="m 10.934023,2.9064375 c 0,-0.035156 0,-0.058594 -0.210937,-0.2695313 C 9.5277734,1.429875 8.8598047,-0.538875 8.8598047,-2.976375 c 0,-2.3203125 0.5625,-4.3125 1.9453123,-5.7304688 0.128906,-0.1054687 0.128906,-0.1289062 0.128906,-0.1640625 0,-0.070312 -0.07031,-0.09375 -0.117187,-0.09375 -0.152344,0 -1.1367188,0.8554688 -1.7226563,2.0273438 -0.609375,1.2070312 -0.8789063,2.4960937 -0.8789063,3.9609375 0,1.0664062 0.1640625,2.484375 0.7851563,3.76171875 C 9.7035547,2.22675 10.68793,3.0001875 10.816836,3.0001875 c 0.04687,0 0.117187,-0.023437 0.117187,-0.09375 z m 6.017579,-6.7265625 c 0,-0.9960938 -0.05859,-1.96875 -0.492188,-2.8710938 -0.492187,-0.9960937 -1.347656,-1.2539062 -1.933594,-1.2539062 -0.691406,0 -1.546875,0.3398437 -1.980468,1.3359375 -0.339844,0.75 -0.457032,1.4882812 -0.457032,2.7890625 0,1.1601562 0.08203,2.0273437 0.515625,2.87109375 0.457032,0.9140625 1.289063,1.1953125 1.910157,1.1953125 1.042968,0 1.640625,-0.62109375 1.980468,-1.31250005 0.433594,-0.890625 0.457032,-2.0625 0.457032,-2.7539062 z m -2.4375,3.83203125 c -0.386719,0 -1.160157,-0.2109375 -1.382813,-1.52343755 -0.140625,-0.7148437 -0.140625,-1.6171875 -0.140625,-2.4609375 0,-0.9726562 0,-1.8632812 0.199219,-2.5664062 0.199219,-0.796875 0.808594,-1.171875 1.324219,-1.171875 0.457031,0 1.148437,0.28125 1.371093,1.3007812 0.152344,0.6796875 0.152344,1.6289063 0.152344,2.4375 0,0.8085938 0,1.7109375 -0.128906,2.4375 -0.222656,1.3242188 -0.972656,1.54687505 -1.394531,1.54687505 z m 0,0"
         style="fill:#000000;fill-opacity:1;fill-rule:nonzero;stroke:none" />
      <path
         id="path25"
         d="m 19.78168,0.0470625 c 0,-0.69140625 -0.222657,-1.2070313 -0.714844,-1.2070313 -0.386719,0 -0.574219,0.3164063 -0.574219,0.5742188 0,0.2578125 0.175781,0.5859375 0.585938,0.5859375 0.152343,0 0.28125,-0.046875 0.386718,-0.15234375 0.02344,-0.0234375 0.03516,-0.0234375 0.04687,-0.0234375 0.03516,0 0.03516,0.1640625 0.03516,0.22265625 0,0.3984375 -0.08203,1.171875 -0.773438,1.9453125 -0.128906,0.1523437 -0.128906,0.1757812 -0.128906,0.1992187 0,0.058594 0.05859,0.1171875 0.117187,0.1171875 0.09375,0 1.019532,-0.890625 1.019532,-2.2617187 z m 0,0"
         style="fill:#000000;fill-opacity:1;fill-rule:nonzero;stroke:none" />
      <path
         id="path26"
         d="m 26.142031,-7.663875 c 0,-0.2695313 0,-0.28125 -0.246093,-0.28125 -0.28125,0.3164062 -0.878907,0.7617187 -2.109375,0.7617187 v 0.3515625 c 0.269531,0 0.867187,0 1.523437,-0.3164062 v 6.22265625 C 25.31,-0.492 25.274844,-0.351375 24.231875,-0.351375 h -0.375 V 1.875e-4 c 0.316406,-0.0234375 1.476563,-0.0234375 1.875,-0.0234375 0.398438,0 1.546875,0 1.863281,0.0234375 V -0.351375 h -0.363281 c -1.054687,0 -1.089844,-0.140625 -1.089844,-0.57421875 z m 5.783203,4.6875 c 0,-0.9140625 -0.128906,-2.390625 -0.796875,-3.7734375 -0.703125,-1.4414063 -1.675781,-2.2148438 -1.816406,-2.2148438 -0.04687,0 -0.105469,0.023437 -0.105469,0.09375 0,0.035156 0,0.058594 0.199219,0.2695313 1.195313,1.2070312 1.875,3.1757812 1.875,5.6132812 0,2.32031255 -0.5625,4.3125 -1.957031,5.7304688 -0.117188,0.1054687 -0.117188,0.1289062 -0.117188,0.1640625 0,0.070312 0.05859,0.09375 0.105469,0.09375 0.164063,0 1.136719,-0.8554688 1.722656,-2.02734375 0.609375,-1.21875 0.890625,-2.51953125 0.890625,-3.94921875 z m 0,0"
         style="fill:#000000;fill-opacity:1;fill-rule:nonzero;stroke:none" />
    </g>
    <g
       id="g26"
       aria-label="(σµ)(1,0)=(µσ)(1,0)"
       transform="matrix(1.3333333,0,0,1.3333333,655.592,200.67067)">
      <path
         id="path27"
         d="m 3.8919375,2.9071563 c 0,-0.035156 0,-0.058594 -0.2109375,-0.2695313 -1.1953125,-1.2070312 -1.8632812,-3.17578125 -1.8632812,-5.6132812 0,-2.3203125 0.5625,-4.3125 1.9453125,-5.7304688 0.1289062,-0.1054687 0.1289062,-0.1289062 0.1289062,-0.1640625 0,-0.070312 -0.070312,-0.09375 -0.1171875,-0.09375 -0.1523437,0 -1.1367187,0.8554688 -1.7226562,2.0273438 -0.609375,1.2070312 -0.8789063,2.4960937 -0.8789063,3.9609375 0,1.0664062 0.1640625,2.48437495 0.7851563,3.7617187 0.703125,1.4414063 1.6875,2.2148438 1.8164062,2.2148438 0.046875,0 0.1171875,-0.023437 0.1171875,-0.09375 z m 0,0"
         style="fill:#000000;fill-opacity:1;fill-rule:nonzero;stroke:none" />
      <path
         id="path28"
         d="m 10.62143,-4.5108125 c 0.152343,0 0.550781,0 0.550781,-0.375 0,-0.2695312 -0.222656,-0.2695312 -0.445313,-0.2695312 H 8.0901797 c -1.7929688,0 -3.0820313,2.0039062 -3.0820313,3.4101562 0,1.01953125 0.65625,1.86328125 1.734375,1.86328125 1.40625,0 2.953125,-1.51171875 2.953125,-3.30468745 0,-0.46875 -0.1171875,-0.9257813 -0.3984375,-1.3242188 z m -3.8671878,4.39453125 c -0.609375,0 -1.0546875,-0.46875 -1.0546875,-1.28906245 0,-0.7265625 0.4335937,-3.1054688 2.1914062,-3.1054688 0.5039063,0 1.078125,0.2578125 1.078125,1.171875 0,0.421875 -0.1875,1.4296875 -0.609375,2.1210938 -0.421875,0.70312495 -1.0664062,1.10156245 -1.6054687,1.10156245 z m 6.6035158,-0.140625 c 0.292969,0.26953125 0.738281,0.375 1.148437,0.375 0.761719,0 1.289063,-0.515625 1.558594,-0.87890625 0.128906,0.6328125 0.621094,0.87890625 1.042969,0.87890625 0.363281,0 0.644531,-0.2109375 0.867187,-0.64453125 0.1875,-0.41015625 0.351563,-1.1367187 0.351563,-1.1835937 0,-0.058594 -0.04687,-0.1054688 -0.117188,-0.1054688 -0.105468,0 -0.117187,0.058594 -0.164062,0.234375 -0.1875,0.71484375 -0.410156,1.46484375 -0.902344,1.46484375 -0.339844,0 -0.363281,-0.31640625 -0.363281,-0.55078125 0,-0.28125 0.105469,-0.703125 0.1875,-1.0664062 l 0.328125,-1.2890625 c 0.05859,-0.2226563 0.1875,-0.7617188 0.246094,-0.984375 0.07031,-0.28125 0.199218,-0.796875 0.199218,-0.84375 0,-0.1757813 -0.140625,-0.3046875 -0.316406,-0.3046875 -0.105469,0 -0.363281,0.046875 -0.457031,0.4101562 l -0.832031,3.328125 c -0.07031,0.234375 -0.07031,0.2578125 -0.222657,0.4453125 -0.140625,0.2109375 -0.609375,0.85546875 -1.359375,0.85546875 -0.667968,0 -0.890625,-0.4921875 -0.890625,-1.05468745 0,-0.3515625 0.117188,-0.7617188 0.164063,-0.9726563 l 0.539062,-2.1445312 c 0.05859,-0.234375 0.152344,-0.609375 0.152344,-0.6796875 0,-0.1992188 -0.152344,-0.3046875 -0.316406,-0.3046875 -0.105469,0 -0.363281,0.035156 -0.457031,0.421875 l -1.734375,6.9140625 c -0.01172,0.070312 -0.03516,0.140625 -0.03516,0.2109375 0,0.1757812 0.140625,0.2929687 0.316407,0.2929687 0.351562,0 0.421875,-0.2695312 0.503906,-0.609375 z m 0,0"
         style="fill:#000000;fill-opacity:1;fill-rule:nonzero;stroke:none" />
      <path
         id="path29"
         d="m 22.05307,-2.9756562 c 0,-0.9140625 -0.128906,-2.390625 -0.796875,-3.7734375 -0.703125,-1.4414063 -1.675781,-2.2148438 -1.816406,-2.2148438 -0.04687,0 -0.105469,0.023437 -0.105469,0.09375 0,0.035156 0,0.058594 0.199219,0.2695313 1.195313,1.2070312 1.875,3.1757812 1.875,5.6132812 0,2.3203125 -0.5625,4.3125 -1.957031,5.7304688 C 19.33432,2.8485625 19.33432,2.872 19.33432,2.9071563 c 0,0.070312 0.05859,0.09375 0.105469,0.09375 0.164063,0 1.136719,-0.8554688 1.722656,-2.0273438 0.609375,-1.21875 0.890625,-2.5195312 0.890625,-3.9492187 z m 5.06836,5.8828125 c 0,-0.035156 0,-0.058594 -0.210938,-0.2695313 -1.195312,-1.2070312 -1.863281,-3.17578125 -1.863281,-5.6132812 0,-2.3203125 0.5625,-4.3125 1.945312,-5.7304688 0.128907,-0.1054687 0.128907,-0.1289062 0.128907,-0.1640625 0,-0.070312 -0.07031,-0.09375 -0.117188,-0.09375 -0.152344,0 -1.136719,0.8554688 -1.722656,2.0273438 -0.609375,1.2070312 -0.878906,2.4960937 -0.878906,3.9609375 0,1.0664062 0.164062,2.48437495 0.785156,3.7617187 0.703125,1.4414063 1.6875,2.2148438 1.816406,2.2148438 0.04687,0 0.117188,-0.023437 0.117188,-0.09375 z m 4.107422,-10.5703125 c 0,-0.2695313 0,-0.28125 -0.246094,-0.28125 -0.28125,0.3164062 -0.878906,0.7617187 -2.109375,0.7617187 v 0.3515625 c 0.269531,0 0.867187,0 1.523437,-0.3164062 v 6.2226562 c 0,0.43359375 -0.03516,0.57421875 -1.078125,0.57421875 h -0.375 v 0.3515625 c 0.316407,-0.0234375 1.476563,-0.0234375 1.875,-0.0234375 0.398438,0 1.546875,0 1.863282,0.0234375 v -0.3515625 h -0.363282 c -1.054687,0 -1.089843,-0.140625 -1.089843,-0.57421875 z m 0,0"
         style="fill:#000000;fill-opacity:1;fill-rule:nonzero;stroke:none" />
      <path
         id="path30"
         d="m 35.969086,0.04778125 c 0,-0.69140625 -0.222656,-1.20703125 -0.714844,-1.20703125 -0.386719,0 -0.574219,0.31640625 -0.574219,0.57421875 0,0.2578125 0.175782,0.5859375 0.585938,0.5859375 0.152344,0 0.28125,-0.046875 0.386719,-0.15234375 0.02344,-0.0234375 0.03516,-0.0234375 0.04687,-0.0234375 0.03516,0 0.03516,0.1640625 0.03516,0.22265625 0,0.3984375 -0.08203,1.17187505 -0.773438,1.94531255 -0.128906,0.1523437 -0.128906,0.1757812 -0.128906,0.1992187 0,0.058594 0.05859,0.1171875 0.117188,0.1171875 0.09375,0 1.019531,-0.890625 1.019531,-2.26171875 z m 0,0"
         style="fill:#000000;fill-opacity:1;fill-rule:nonzero;stroke:none" />
      <path
         id="path31"
         d="m 44.239594,-3.8194062 c 0,-0.9960938 -0.05859,-1.96875 -0.492188,-2.8710938 -0.492187,-0.9960937 -1.347656,-1.2539062 -1.933593,-1.2539062 -0.691407,0 -1.546875,0.3398437 -1.980469,1.3359375 -0.339844,0.75 -0.457031,1.4882812 -0.457031,2.7890625 0,1.1601562 0.08203,2.0273437 0.515625,2.8710937 C 40.348969,-0.03425 41.181,0.247 41.802094,0.247 c 1.042969,0 1.640625,-0.62109375 1.980469,-1.3125 0.433593,-0.890625 0.457031,-2.0625 0.457031,-2.7539062 z m -2.4375,3.8320312 c -0.386719,0 -1.160156,-0.2109375 -1.382813,-1.5234375 C 40.278656,-2.2256562 40.278656,-3.128 40.278656,-3.97175 c 0,-0.9726562 0,-1.8632812 0.199219,-2.5664062 0.199219,-0.796875 0.808594,-1.171875 1.324219,-1.171875 0.457031,0 1.148437,0.28125 1.371094,1.3007812 0.152343,0.6796875 0.152343,1.6289063 0.152343,2.4375 0,0.8085938 0,1.7109375 -0.128906,2.4375 -0.222656,1.32421875 -0.972656,1.546875 -1.394531,1.546875 z m 6.298828,-2.9882812 c 0,-0.9140625 -0.128906,-2.390625 -0.796875,-3.7734375 -0.703125,-1.4414063 -1.675781,-2.2148438 -1.816406,-2.2148438 -0.04687,0 -0.105469,0.023437 -0.105469,0.09375 0,0.035156 0,0.058594 0.199219,0.2695313 1.195312,1.2070312 1.875,3.1757812 1.875,5.6132812 0,2.3203125 -0.5625,4.3125 -1.957032,5.7304688 -0.117187,0.1054687 -0.117187,0.1289062 -0.117187,0.1640625 0,0.070312 0.05859,0.09375 0.105469,0.09375 0.164062,0 1.136718,-0.8554688 1.722656,-2.0273438 0.609375,-1.21875 0.890625,-2.5195312 0.890625,-3.9492187 z m 12.577148,-0.890625 c 0.164063,0 0.375,0 0.375,-0.2226563 0,-0.2226562 -0.199218,-0.2226562 -0.375,-0.2226562 h -7.042968 c -0.175782,0 -0.386719,0 -0.386719,0.2109375 0,0.234375 0.199219,0.234375 0.386719,0.234375 z m 0,2.2148437 c 0.164063,0 0.375,0 0.375,-0.2109375 0,-0.234375 -0.199218,-0.234375 -0.375,-0.234375 h -7.042968 c -0.175782,0 -0.386719,0 -0.386719,0.2226563 0,0.2226562 0.199219,0.2226562 0.386719,0.2226562 z m 8.244141,4.5585938 c 0,-0.035156 0,-0.058594 -0.210938,-0.2695313 -1.195312,-1.2070312 -1.863281,-3.17578125 -1.863281,-5.6132812 0,-2.3203125 0.5625,-4.3125 1.945313,-5.7304688 0.128906,-0.1054687 0.128906,-0.1289062 0.128906,-0.1640625 0,-0.070312 -0.07031,-0.09375 -0.117188,-0.09375 -0.152343,0 -1.136718,0.8554688 -1.722656,2.0273438 -0.609375,1.2070312 -0.878906,2.4960937 -0.878906,3.9609375 0,1.0664062 0.164062,2.48437495 0.785156,3.7617187 0.703125,1.4414063 1.6875,2.2148438 1.816406,2.2148438 0.04687,0 0.117188,-0.023437 0.117188,-0.09375 z m 0,0"
         style="fill:#000000;fill-opacity:1;fill-rule:nonzero;stroke:none" />
      <path
         id="path32"
         d="m 71.306977,-0.25690625 c 0.292968,0.26953125 0.738281,0.375 1.148437,0.375 0.761719,0 1.289063,-0.515625 1.558594,-0.87890625 0.128906,0.6328125 0.621094,0.87890625 1.042969,0.87890625 0.363281,0 0.644531,-0.2109375 0.867187,-0.64453125 0.1875,-0.41015625 0.351563,-1.1367187 0.351563,-1.1835937 0,-0.058594 -0.04687,-0.1054688 -0.117188,-0.1054688 -0.105469,0 -0.117187,0.058594 -0.164062,0.234375 -0.1875,0.71484375 -0.410157,1.46484375 -0.902344,1.46484375 -0.339844,0 -0.363281,-0.31640625 -0.363281,-0.55078125 0,-0.28125 0.105468,-0.703125 0.1875,-1.0664062 l 0.328125,-1.2890625 c 0.05859,-0.2226563 0.1875,-0.7617188 0.246093,-0.984375 0.07031,-0.28125 0.199219,-0.796875 0.199219,-0.84375 0,-0.1757813 -0.140625,-0.3046875 -0.316406,-0.3046875 -0.105469,0 -0.363281,0.046875 -0.457031,0.4101562 l -0.832032,3.328125 c -0.07031,0.234375 -0.07031,0.2578125 -0.222656,0.4453125 -0.140625,0.2109375 -0.609375,0.85546875 -1.359375,0.85546875 -0.667969,0 -0.890625,-0.4921875 -0.890625,-1.05468745 0,-0.3515625 0.117188,-0.7617188 0.164063,-0.9726563 l 0.539062,-2.1445312 c 0.05859,-0.234375 0.152344,-0.609375 0.152344,-0.6796875 0,-0.1992188 -0.152344,-0.3046875 -0.316406,-0.3046875 -0.105469,0 -0.363282,0.035156 -0.457032,0.421875 L 69.95932,2.0634063 c -0.01172,0.070312 -0.03516,0.140625 -0.03516,0.2109375 0,0.1757812 0.140625,0.2929687 0.316406,0.2929687 0.351563,0 0.421875,-0.2695312 0.503907,-0.609375 z M 82.697602,-4.5108125 c 0.152343,0 0.550781,0 0.550781,-0.375 0,-0.2695312 -0.222656,-0.2695312 -0.445313,-0.2695312 h -2.636718 c -1.792969,0 -3.082032,2.0039062 -3.082032,3.4101562 0,1.01953125 0.65625,1.86328125 1.734375,1.86328125 1.40625,0 2.953125,-1.51171875 2.953125,-3.30468745 0,-0.46875 -0.117187,-0.9257813 -0.398437,-1.3242188 z m -3.867188,4.39453125 c -0.609375,0 -1.054687,-0.46875 -1.054687,-1.28906245 0,-0.7265625 0.433593,-3.1054688 2.191406,-3.1054688 0.503906,0 1.078125,0.2578125 1.078125,1.171875 0,0.421875 -0.1875,1.4296875 -0.609375,2.1210938 -0.421875,0.70312495 -1.066406,1.10156245 -1.605469,1.10156245 z m 0,0"
         style="fill:#000000;fill-opacity:1;fill-rule:nonzero;stroke:none" />
      <path
         id="path33"
         d="m 87.086273,-2.9756562 c 0,-0.9140625 -0.128906,-2.390625 -0.796875,-3.7734375 -0.703125,-1.4414063 -1.675781,-2.2148438 -1.816406,-2.2148438 -0.04687,0 -0.105469,0.023437 -0.105469,0.09375 0,0.035156 0,0.058594 0.199219,0.2695313 1.195313,1.2070312 1.875,3.1757812 1.875,5.6132812 0,2.3203125 -0.5625,4.3125 -1.957031,5.7304688 -0.117188,0.1054687 -0.117188,0.1289062 -0.117188,0.1640625 0,0.070312 0.05859,0.09375 0.105469,0.09375 0.164063,0 1.136719,-0.8554688 1.722656,-2.0273438 0.609375,-1.21875 0.890625,-2.5195312 0.890625,-3.9492187 z m 5.06836,5.8828125 c 0,-0.035156 0,-0.058594 -0.210938,-0.2695313 -1.195312,-1.2070312 -1.863281,-3.17578125 -1.863281,-5.6132812 0,-2.3203125 0.5625,-4.3125 1.945313,-5.7304688 0.128906,-0.1054687 0.128906,-0.1289062 0.128906,-0.1640625 0,-0.070312 -0.07031,-0.09375 -0.117188,-0.09375 -0.152343,0 -1.136718,0.8554688 -1.722656,2.0273438 -0.609375,1.2070312 -0.878906,2.4960937 -0.878906,3.9609375 0,1.0664062 0.164062,2.48437495 0.785156,3.7617187 0.703125,1.4414063 1.6875,2.2148438 1.816406,2.2148438 0.04687,0 0.117188,-0.023437 0.117188,-0.09375 z m 4.107422,-10.5703125 c 0,-0.2695313 0,-0.28125 -0.246094,-0.28125 -0.28125,0.3164062 -0.878906,0.7617187 -2.109375,0.7617187 v 0.3515625 c 0.269531,0 0.867187,0 1.523437,-0.3164062 v 6.2226562 c 0,0.43359375 -0.03516,0.57421875 -1.078125,0.57421875 h -0.375 v 0.3515625 c 0.316407,-0.0234375 1.476563,-0.0234375 1.875,-0.0234375 0.398438,0 1.546875,0 1.863282,0.0234375 v -0.3515625 h -0.363282 c -1.054687,0 -1.089843,-0.140625 -1.089843,-0.57421875 z m 0,0"
         style="fill:#000000;fill-opacity:1;fill-rule:nonzero;stroke:none" />
      <path
         id="path34"
         d="m 100.99936,0.04778125 c 0,-0.69140625 -0.22266,-1.20703125 -0.71484,-1.20703125 -0.386723,0 -0.574223,0.31640625 -0.574223,0.57421875 0,0.2578125 0.175781,0.5859375 0.585933,0.5859375 0.15235,0 0.28125,-0.046875 0.38672,-0.15234375 0.0234,-0.0234375 0.0352,-0.0234375 0.0469,-0.0234375 0.0351,0 0.0351,0.1640625 0.0351,0.22265625 0,0.3984375 -0.082,1.17187505 -0.773433,1.94531255 -0.128906,0.1523437 -0.128906,0.1757812 -0.128906,0.1992187 0,0.058594 0.05859,0.1171875 0.117187,0.1171875 0.09375,0 1.019532,-0.890625 1.019532,-2.26171875 z m 0,0"
         style="fill:#000000;fill-opacity:1;fill-rule:nonzero;stroke:none" />
      <path
         id="path35"
         d="m 109.26108,-3.8194062 c 0,-0.9960938 -0.0586,-1.96875 -0.49219,-2.8710938 -0.49219,-0.9960937 -1.34766,-1.2539062 -1.93359,-1.2539062 -0.69141,0 -1.54688,0.3398437 -1.98047,1.3359375 -0.33985,0.75 -0.45703,1.4882812 -0.45703,2.7890625 0,1.1601562 0.082,2.0273437 0.51562,2.8710937 0.45703,0.9140625 1.28906,1.1953125 1.91016,1.1953125 1.04297,0 1.64062,-0.62109375 1.98047,-1.3125 0.43359,-0.890625 0.45703,-2.0625 0.45703,-2.7539062 z m -2.4375,3.8320312 c -0.38672,0 -1.16016,-0.2109375 -1.38281,-1.5234375 -0.14063,-0.7148437 -0.14063,-1.6171875 -0.14063,-2.4609375 0,-0.9726562 0,-1.8632812 0.19922,-2.5664062 0.19922,-0.796875 0.80859,-1.171875 1.32422,-1.171875 0.45703,0 1.14844,0.28125 1.37109,1.3007812 0.15235,0.6796875 0.15235,1.6289063 0.15235,2.4375 0,0.8085938 0,1.7109375 -0.12891,2.4375 -0.22266,1.32421875 -0.97266,1.546875 -1.39453,1.546875 z m 6.31055,-2.9882812 c 0,-0.9140625 -0.12891,-2.390625 -0.79688,-3.7734375 -0.70312,-1.4414063 -1.67578,-2.2148438 -1.81641,-2.2148438 -0.0469,0 -0.10546,0.023437 -0.10546,0.09375 0,0.035156 0,0.058594 0.19921,0.2695313 1.19532,1.2070312 1.875,3.1757812 1.875,5.6132812 0,2.3203125 -0.5625,4.3125 -1.95703,5.7304688 -0.11718,0.1054687 -0.11718,0.1289062 -0.11718,0.1640625 0,0.070312 0.0586,0.09375 0.10546,0.09375 0.16407,0 1.13672,-0.8554688 1.72266,-2.0273438 0.60938,-1.21875 0.89063,-2.5195312 0.89063,-3.9492187 z m 0,0"
         style="fill:#000000;fill-opacity:1;fill-rule:nonzero;stroke:none" />
    </g>
    <path
       id="path36"
       d="M 28.3468,0 0,28.3468"
       style="fill:none;stroke:#000000;stroke-width:0.99628;stroke-linecap:round;stroke-linejoin:miter;stroke-miterlimit:10;stroke-dasharray:none;stroke-opacity:1"
       transform="matrix(1.3333333,0,0,-1.3333333,54.850667,183.24933)" />
    <path
       id="path37"
       d="M 0,0 H 446.46225"
       style="fill:none;stroke:#000000;stroke-width:0.99628;stroke-linecap:round;stroke-linejoin:miter;stroke-miterlimit:10;stroke-dasharray:none;stroke-opacity:1"
       transform="matrix(1.3333333,0,0,-1.3333333,54.850667,183.24933)" />
    <path
       id="path38"
       d="M 0,0 V 127.56062"
       style="fill:none;stroke:#000000;stroke-width:0.99628;stroke-linecap:round;stroke-linejoin:miter;stroke-miterlimit:10;stroke-dasharray:none;stroke-opacity:1"
       transform="matrix(1.3333333,0,0,-1.3333333,54.850667,183.24933)" />
    <path
       id="path39"
       d="M 0,127.56062 446.46225,0"
       style="fill:none;stroke:#000000;stroke-width:0.99628;stroke-linecap:round;stroke-linejoin:miter;stroke-miterlimit:10;stroke-dasharray:none;stroke-opacity:1"
       transform="matrix(1.3333333,0,0,-1.3333333,54.850667,183.24933)" />
    <path
       id="path40"
       d="M 0,28.3468 99.21382,0"
       style="fill:none;stroke:#000000;stroke-width:0.99628;stroke-linecap:round;stroke-linejoin:miter;stroke-miterlimit:10;stroke-dasharray:none;stroke-opacity:1"
       transform="matrix(1.3333333,0,0,-1.3333333,54.850667,183.24933)" />
    <path
       id="path41"
       d="M 127.56062,0 0,127.56062"
       style="fill:none;stroke:#000000;stroke-width:0.99628;stroke-linecap:round;stroke-linejoin:miter;stroke-miterlimit:10;stroke-dasharray:none;stroke-opacity:1"
       transform="matrix(1.3333333,0,0,-1.3333333,54.850667,183.24933)" />
    <path
       id="path42"
       d="M 99.21382,0 0,99.21382"
       style="fill:none;stroke:#000000;stroke-width:0.99628;stroke-linecap:round;stroke-linejoin:miter;stroke-miterlimit:10;stroke-dasharray:none;stroke-opacity:1"
       transform="matrix(1.3333333,0,0,-1.3333333,54.850667,183.24933)" />
    <path
       id="path43"
       d="M 0,99.21382 446.46225,0"
       style="fill:none;stroke:#000000;stroke-width:0.99628;stroke-linecap:round;stroke-linejoin:miter;stroke-miterlimit:10;stroke-dasharray:none;stroke-opacity:1"
       transform="matrix(1.3333333,0,0,-1.3333333,54.850667,183.24933)" />
    <path
       id="path44"
       d="M 0,28.3468 127.56062,0"
       style="fill:none;stroke:#000000;stroke-width:0.99628;stroke-linecap:round;stroke-linejoin:miter;stroke-miterlimit:10;stroke-dasharray:none;stroke-opacity:1"
       transform="matrix(1.3333333,0,0,-1.3333333,54.850667,183.24933)" />
    <path
       id="path45"
       d="m 100.70824,0 c 0,0.82533 -0.66907,1.49442 -1.49442,1.49442 -0.82535,0 -1.49442,-0.66909 -1.49442,-1.49442 0,-0.82533 0.66907,-1.49442 1.49442,-1.49442 0.82535,0 1.49442,0.66909 1.49442,1.49442 z"
       style="fill:#ffffff;fill-opacity:1;fill-rule:nonzero;stroke:#000000;stroke-width:0.3985;stroke-linecap:butt;stroke-linejoin:miter;stroke-miterlimit:10;stroke-dasharray:none;stroke-opacity:1"
       transform="matrix(1.3333333,0,0,-1.3333333,54.850667,183.24933)" />
    <path
       id="path46"
       d="m 129.05504,0 c 0,0.82533 -0.66907,1.49442 -1.49442,1.49442 -0.82533,0 -1.49441,-0.66909 -1.49441,-1.49442 0,-0.82533 0.66908,-1.49442 1.49441,-1.49442 0.82535,0 1.49442,0.66909 1.49442,1.49442 z"
       style="fill:#ffffff;fill-opacity:1;fill-rule:nonzero;stroke:#000000;stroke-width:0.3985;stroke-linecap:butt;stroke-linejoin:miter;stroke-miterlimit:10;stroke-dasharray:none;stroke-opacity:1"
       transform="matrix(1.3333333,0,0,-1.3333333,54.850667,183.24933)" />
    <path
       id="path47"
       d="m 1.49442,99.21382 c 0,0.82535 -0.66909,1.49442 -1.49442,1.49442 -0.82533,0 -1.49442,-0.66907 -1.49442,-1.49442 0,-0.82535 0.66909,-1.49442 1.49442,-1.49442 0.82533,0 1.49442,0.66907 1.49442,1.49442 z"
       style="fill:#ffffff;fill-opacity:1;fill-rule:nonzero;stroke:#000000;stroke-width:0.3985;stroke-linecap:butt;stroke-linejoin:miter;stroke-miterlimit:10;stroke-dasharray:none;stroke-opacity:1"
       transform="matrix(1.3333333,0,0,-1.3333333,54.850667,183.24933)" />
    <path
       id="path48"
       d="m 1.49442,127.56062 c 0,0.82535 -0.66909,1.49442 -1.49442,1.49442 -0.82533,0 -1.49442,-0.66907 -1.49442,-1.49442 0,-0.82533 0.66909,-1.49441 1.49442,-1.49441 0.82533,0 1.49442,0.66908 1.49442,1.49441 z"
       style="fill:#ffffff;fill-opacity:1;fill-rule:nonzero;stroke:#000000;stroke-width:0.3985;stroke-linecap:butt;stroke-linejoin:miter;stroke-miterlimit:10;stroke-dasharray:none;stroke-opacity:1"
       transform="matrix(1.3333333,0,0,-1.3333333,54.850667,183.24933)" />
    <path
       id="path49"
       d="m 29.84122,0 c 0,0.82533 -0.66907,1.49442 -1.49442,1.49442 -0.82535,0 -1.49441,-0.66909 -1.49441,-1.49442 0,-0.82533 0.66906,-1.49442 1.49441,-1.49442 0.82535,0 1.49442,0.66909 1.49442,1.49442 z"
       style="fill:#ffffff;fill-opacity:1;fill-rule:nonzero;stroke:#000000;stroke-width:0.3985;stroke-linecap:butt;stroke-linejoin:miter;stroke-miterlimit:10;stroke-dasharray:none;stroke-opacity:1"
       transform="matrix(1.3333333,0,0,-1.3333333,54.850667,183.24933)" />
    <path
       id="path50"
       d="m 1.49442,28.3468 c 0,0.82535 -0.66909,1.49442 -1.49442,1.49442 -0.82533,0 -1.49442,-0.66907 -1.49442,-1.49442 0,-0.82535 0.66909,-1.49441 1.49442,-1.49441 0.82533,0 1.49442,0.66906 1.49442,1.49441 z"
       style="fill:#ffffff;fill-opacity:1;fill-rule:nonzero;stroke:#000000;stroke-width:0.3985;stroke-linecap:butt;stroke-linejoin:miter;stroke-miterlimit:10;stroke-dasharray:none;stroke-opacity:1"
       transform="matrix(1.3333333,0,0,-1.3333333,54.850667,183.24933)" />
    <path
       id="path51"
       d="M 1.49442,0 C 1.49442,0.82533 0.82533,1.49442 0,1.49442 -0.82533,1.49442 -1.49442,0.82533 -1.49442,0 c 0,-0.82533 0.66909,-1.49442 1.49442,-1.49442 0.82533,0 1.49442,0.66909 1.49442,1.49442 z"
       style="fill:#ffffff;fill-opacity:1;fill-rule:nonzero;stroke:#000000;stroke-width:0.3985;stroke-linecap:butt;stroke-linejoin:miter;stroke-miterlimit:10;stroke-dasharray:none;stroke-opacity:1"
       transform="matrix(1.3333333,0,0,-1.3333333,54.850667,183.24933)" />
    <path
       id="path52"
       d="m 447.95667,0 c 0,0.82533 -0.66909,1.49442 -1.49442,1.49442 -0.82535,0 -1.49442,-0.66909 -1.49442,-1.49442 0,-0.82533 0.66907,-1.49442 1.49442,-1.49442 0.82533,0 1.49442,0.66909 1.49442,1.49442 z"
       style="fill:#ffffff;fill-opacity:1;fill-rule:nonzero;stroke:#000000;stroke-width:0.3985;stroke-linecap:butt;stroke-linejoin:miter;stroke-miterlimit:10;stroke-dasharray:none;stroke-opacity:1"
       transform="matrix(1.3333333,0,0,-1.3333333,54.850667,183.24933)" />
  </g>
</svg>
