<?xml version="1.0" encoding="UTF-8" standalone="no"?>
<!-- Created with Inkscape (http://www.inkscape.org/) -->

<svg
   version="1.1"
   id="svg1"
   width="726.45331"
   height="209.85733"
   viewBox="0 0 726.45331 209.85733"
   sodipodi:docname="TikZ.pdf"
   xmlns:inkscape="http://www.inkscape.org/namespaces/inkscape"
   xmlns:sodipodi="http://sodipodi.sourceforge.net/DTD/sodipodi-0.dtd"
   xmlns="http://www.w3.org/2000/svg"
   xmlns:svg="http://www.w3.org/2000/svg">
  <defs
     id="defs1" />
  <sodipodi:namedview
     id="namedview1"
     pagecolor="#505050"
     bordercolor="#eeeeee"
     borderopacity="1"
     inkscape:showpageshadow="0"
     inkscape:pageopacity="0"
     inkscape:pagecheckerboard="0"
     inkscape:deskcolor="#505050">
    <inkscape:page
       x="0"
       y="0"
       inkscape:label="1"
       id="page1"
       width="726.45331"
       height="209.85733"
       margin="0"
       bleed="0" />
  </sodipodi:namedview>
  <g
     id="g1"
     inkscape:groupmode="layer"
     inkscape:label="1">
    <g
       id="g2"
       aria-label="(0,0)"
       transform="matrix(1.3333333,0,0,1.3333333,14.592,200.672)">
      <path
         id="path2"
         d="m 3.8919375,2.9061563 c 0,-0.035156 0,-0.058594 -0.2109375,-0.2695313 -1.1953125,-1.2070312 -1.8632813,-3.17578125 -1.8632813,-5.6132812 0,-2.3203125 0.5625,-4.3125 1.9453125,-5.7304688 0.1289063,-0.1054687 0.1289063,-0.1289062 0.1289063,-0.1640625 0,-0.070312 -0.070312,-0.09375 -0.1171875,-0.09375 -0.1523438,0 -1.1367188,0.8554688 -1.7226563,2.0273438 -0.609375,1.2070312 -0.8789062,2.4960937 -0.8789062,3.9609375 0,1.0664062 0.1640625,2.48437495 0.7851562,3.7617187 0.703125,1.4414063 1.6875,2.2148438 1.8164063,2.2148438 0.046875,0 0.1171875,-0.023437 0.1171875,-0.09375 z m 6.0146484,-6.7265625 c 0,-0.9960938 -0.058594,-1.96875 -0.4921875,-2.8710938 -0.4921875,-0.9960937 -1.3476562,-1.2539062 -1.9335937,-1.2539062 -0.6914063,0 -1.546875,0.3398437 -1.9804688,1.3359375 -0.3398437,0.75 -0.4570312,1.4882812 -0.4570312,2.7890625 0,1.1601562 0.082031,2.0273437 0.515625,2.8710937 C 6.0159609,-0.03525 6.8479922,0.246 7.4690859,0.246 c 1.0429688,0 1.640625,-0.62109375 1.9804688,-1.3125 0.4335937,-0.890625 0.4570312,-2.0625 0.4570312,-2.7539062 z m -2.4375,3.8320312 c -0.3867187,0 -1.1601562,-0.2109375 -1.3828125,-1.5234375 C 5.9456484,-2.2266562 5.9456484,-3.129 5.9456484,-3.97275 c 0,-0.9726562 0,-1.8632812 0.1992188,-2.5664062 0.1992187,-0.796875 0.8085937,-1.171875 1.3242187,-1.171875 0.4570313,0 1.1484375,0.28125 1.3710938,1.3007812 0.1523437,0.6796875 0.1523437,1.6289063 0.1523437,2.4375 0,0.8085938 0,1.7109375 -0.1289062,2.4375 -0.2226563,1.32421875 -0.9726563,1.546875 -1.3945313,1.546875 z m 0,0"
         style="fill:#000000;fill-opacity:1;fill-rule:nonzero;stroke:none" />
      <path
         id="path3"
         d="m 12.736664,0.04678125 c 0,-0.69140625 -0.222656,-1.20703125 -0.714844,-1.20703125 -0.386718,0 -0.574218,0.31640625 -0.574218,0.57421875 0,0.2578125 0.175781,0.5859375 0.585937,0.5859375 0.152344,0 0.28125,-0.046875 0.386719,-0.15234375 0.02344,-0.0234375 0.03516,-0.0234375 0.04687,-0.0234375 0.03516,0 0.03516,0.1640625 0.03516,0.22265625 0,0.3984375 -0.08203,1.17187505 -0.773437,1.94531255 -0.128907,0.1523437 -0.128907,0.1757812 -0.128907,0.1992187 0,0.058594 0.05859,0.1171875 0.117188,0.1171875 0.09375,0 1.019531,-0.890625 1.019532,-2.26171875 z m 0,0"
         style="fill:#000000;fill-opacity:1;fill-rule:nonzero;stroke:none" />
      <path
         id="path4"
         d="m 21.010102,-3.8204062 c 0,-0.9960938 -0.05859,-1.96875 -0.492188,-2.8710938 -0.492187,-0.9960937 -1.347656,-1.2539062 -1.933594,-1.2539062 -0.691406,0 -1.546875,0.3398437 -1.980468,1.3359375 -0.339844,0.75 -0.457032,1.4882812 -0.457032,2.7890625 0,1.1601562 0.08203,2.0273437 0.515625,2.8710937 C 17.119477,-0.03525 17.951508,0.246 18.572602,0.246 c 1.042968,0 1.640625,-0.62109375 1.980468,-1.3125 0.433594,-0.890625 0.457032,-2.0625 0.457032,-2.7539062 z m -2.4375,3.8320312 c -0.386719,0 -1.160157,-0.2109375 -1.382813,-1.5234375 C 17.049164,-2.2266562 17.049164,-3.129 17.049164,-3.97275 c 0,-0.9726562 0,-1.8632812 0.199219,-2.5664062 0.199219,-0.796875 0.808594,-1.171875 1.324219,-1.171875 0.457031,0 1.148437,0.28125 1.371093,1.3007812 0.152344,0.6796875 0.152344,1.6289063 0.152344,2.4375 0,0.8085938 0,1.7109375 -0.128906,2.4375 -0.222656,1.32421875 -0.972656,1.546875 -1.394531,1.546875 z m 6.310546,-2.9882812 c 0,-0.9140625 -0.128906,-2.390625 -0.796875,-3.7734375 -0.703125,-1.4414063 -1.675781,-2.2148438 -1.816406,-2.2148438 -0.04687,0 -0.105469,0.023437 -0.105469,0.09375 0,0.035156 0,0.058594 0.199219,0.2695313 1.195313,1.2070312 1.875,3.1757812 1.875,5.6132812 0,2.3203125 -0.5625,4.3125 -1.957031,5.7304688 -0.117188,0.1054687 -0.117188,0.1289062 -0.117188,0.1640625 0,0.070312 0.05859,0.09375 0.105469,0.09375 0.164063,0 1.136719,-0.8554688 1.722656,-2.0273438 0.609375,-1.21875 0.890625,-2.5195312 0.890625,-3.9492187 z m 0,0"
         style="fill:#000000;fill-opacity:1;fill-rule:nonzero;stroke:none" />
    </g>
    <g
       id="g4"
       aria-label="(1,0)"
       transform="matrix(1.3333333,0,0,1.3333333,75.222667,200.672)">
      <path
         id="path5"
         d="m 3.8906172,2.9061563 c 0,-0.035156 0,-0.058594 -0.2109375,-0.2695313 -1.1953125,-1.2070312 -1.8632813,-3.17578125 -1.8632813,-5.6132812 0,-2.3203125 0.5625,-4.3125 1.9453125,-5.7304688 0.1289063,-0.1054687 0.1289063,-0.1289062 0.1289063,-0.1640625 0,-0.070312 -0.070312,-0.09375 -0.1171875,-0.09375 -0.1523438,0 -1.1367188,0.8554688 -1.7226563,2.0273438 -0.609375,1.2070312 -0.8789062,2.4960937 -0.8789062,3.9609375 0,1.0664062 0.1640625,2.48437495 0.7851562,3.7617187 0.703125,1.4414063 1.6875,2.2148438 1.8164063,2.2148438 0.046875,0 0.1171875,-0.023437 0.1171875,-0.09375 z M 7.9980391,-7.6641562 c 0,-0.2695313 0,-0.28125 -0.2460938,-0.28125 -0.28125,0.3164062 -0.8789062,0.7617187 -2.109375,0.7617187 v 0.3515625 c 0.2695313,0 0.8671875,0 1.5234375,-0.3164062 v 6.2226562 c 0,0.43359375 -0.035156,0.57421875 -1.078125,0.57421875 h -0.375 v 0.3515625 c 0.3164063,-0.0234375 1.4765625,-0.0234375 1.875,-0.0234375 0.3984375,0 1.546875,0 1.8632813,0.0234375 v -0.3515625 H 9.0878828 c -1.0546875,0 -1.0898437,-0.140625 -1.0898437,-0.57421875 z m 0,0"
         style="fill:#000000;fill-opacity:1;fill-rule:nonzero;stroke:none" />
      <path
         id="path6"
         d="m 12.738273,0.04678125 c 0,-0.69140625 -0.222656,-1.20703125 -0.714843,-1.20703125 -0.386719,0 -0.574219,0.31640625 -0.574219,0.57421875 0,0.2578125 0.175781,0.5859375 0.585937,0.5859375 0.152344,0 0.28125,-0.046875 0.386719,-0.15234375 0.02344,-0.0234375 0.03516,-0.0234375 0.04687,-0.0234375 0.03516,0 0.03516,0.1640625 0.03516,0.22265625 0,0.3984375 -0.08203,1.17187505 -0.773437,1.94531255 -0.128906,0.1523437 -0.128906,0.1757812 -0.128906,0.1992187 0,0.058594 0.05859,0.1171875 0.117187,0.1171875 0.09375,0 1.019531,-0.890625 1.019531,-2.26171875 z m 0,0"
         style="fill:#000000;fill-opacity:1;fill-rule:nonzero;stroke:none" />
      <path
         id="path7"
         d="m 21.008781,-3.8204062 c 0,-0.9960938 -0.05859,-1.96875 -0.492187,-2.8710938 -0.492188,-0.9960937 -1.347657,-1.2539062 -1.933594,-1.2539062 -0.691406,0 -1.546875,0.3398437 -1.980469,1.3359375 -0.339844,0.75 -0.457031,1.4882812 -0.457031,2.7890625 0,1.1601562 0.08203,2.0273437 0.515625,2.8710937 C 17.118156,-0.03525 17.950187,0.246 18.571281,0.246 c 1.042969,0 1.640625,-0.62109375 1.980469,-1.3125 0.433594,-0.890625 0.457031,-2.0625 0.457031,-2.7539062 z m -2.4375,3.8320312 c -0.386719,0 -1.160156,-0.2109375 -1.382812,-1.5234375 C 17.047844,-2.2266562 17.047844,-3.129 17.047844,-3.97275 c 0,-0.9726562 0,-1.8632812 0.199218,-2.5664062 0.199219,-0.796875 0.808594,-1.171875 1.324219,-1.171875 0.457031,0 1.148438,0.28125 1.371094,1.3007812 0.152344,0.6796875 0.152344,1.6289063 0.152344,2.4375 0,0.8085938 0,1.7109375 -0.128907,2.4375 -0.222656,1.32421875 -0.972656,1.546875 -1.394531,1.546875 z m 6.310547,-2.9882812 c 0,-0.9140625 -0.128906,-2.390625 -0.796875,-3.7734375 -0.703125,-1.4414063 -1.675781,-2.2148438 -1.816406,-2.2148438 -0.04687,0 -0.105469,0.023437 -0.105469,0.09375 0,0.035156 0,0.058594 0.199219,0.2695313 1.195312,1.2070312 1.875,3.1757812 1.875,5.6132812 0,2.3203125 -0.5625,4.3125 -1.957031,5.7304688 -0.117188,0.1054687 -0.117188,0.1289062 -0.117188,0.1640625 0,0.070312 0.05859,0.09375 0.105469,0.09375 0.164062,0 1.136719,-0.8554688 1.722656,-2.0273438 0.609375,-1.21875 0.890625,-2.5195312 0.890625,-3.9492187 z m 0,0"
         style="fill:#000000;fill-opacity:1;fill-rule:nonzero;stroke:none" />
    </g>
    <g
       id="g7"
       aria-label="(0,1)"
       transform="matrix(1.3333333,0,0,1.3333333,14.592,149.44)">
      <path
         id="path8"
         d="m 3.8919375,2.9073047 c 0,-0.035156 0,-0.058594 -0.2109375,-0.2695313 -1.1953125,-1.2070312 -1.8632813,-3.17578121 -1.8632813,-5.6132812 0,-2.3203125 0.5625,-4.3125 1.9453125,-5.7304688 0.1289063,-0.1054687 0.1289063,-0.1289062 0.1289063,-0.1640625 0,-0.070312 -0.070312,-0.09375 -0.1171875,-0.09375 -0.1523438,0 -1.1367188,0.8554688 -1.7226563,2.0273438 -0.609375,1.2070312 -0.8789062,2.4960937 -0.8789062,3.9609375 0,1.0664062 0.1640625,2.48437499 0.7851562,3.76171874 0.703125,1.44140626 1.6875,2.21484376 1.8164063,2.21484376 0.046875,0 0.1171875,-0.023437 0.1171875,-0.09375 z m 6.0146484,-6.7265625 c 0,-0.9960938 -0.058594,-1.96875 -0.4921875,-2.8710938 -0.4921875,-0.9960937 -1.3476562,-1.2539062 -1.9335937,-1.2539062 -0.6914063,0 -1.546875,0.3398437 -1.9804688,1.3359375 -0.3398437,0.75 -0.4570312,1.4882812 -0.4570312,2.7890625 0,1.1601562 0.082031,2.0273437 0.515625,2.87109374 0.4570312,0.9140625 1.2890625,1.1953125 1.9101562,1.1953125 1.0429688,0 1.640625,-0.62109375 1.9804688,-1.31250004 0.4335937,-0.890625 0.4570312,-2.0625 0.4570312,-2.7539062 z m -2.4375,3.83203124 c -0.3867187,0 -1.1601562,-0.2109375 -1.3828125,-1.52343754 -0.140625,-0.7148437 -0.140625,-1.6171875 -0.140625,-2.4609375 0,-0.9726562 0,-1.8632812 0.1992188,-2.5664062 0.1992187,-0.796875 0.8085937,-1.171875 1.3242187,-1.171875 0.4570313,0 1.1484375,0.28125 1.3710938,1.3007812 0.1523437,0.6796875 0.1523437,1.6289063 0.1523437,2.4375 0,0.8085938 0,1.7109375 -0.1289062,2.4375 -0.2226563,1.32421879 -0.9726563,1.54687504 -1.3945313,1.54687504 z m 0,0"
         style="fill:#000000;fill-opacity:1;fill-rule:nonzero;stroke:none" />
      <path
         id="path9"
         d="m 12.736664,0.04792969 c 0,-0.69140625 -0.222656,-1.20703129 -0.714844,-1.20703129 -0.386718,0 -0.574218,0.31640629 -0.574218,0.57421879 0,0.2578125 0.175781,0.5859375 0.585937,0.5859375 0.152344,0 0.28125,-0.046875 0.386719,-0.15234375 0.02344,-0.0234375 0.03516,-0.0234375 0.04687,-0.0234375 0.03516,0 0.03516,0.1640625 0.03516,0.22265625 0,0.3984375 -0.08203,1.17187501 -0.773437,1.94531251 -0.128907,0.1523437 -0.128907,0.1757812 -0.128907,0.1992187 0,0.058594 0.05859,0.1171875 0.117188,0.1171875 0.09375,0 1.019531,-0.890625 1.019532,-2.26171871 z m 0,0"
         style="fill:#000000;fill-opacity:1;fill-rule:nonzero;stroke:none" />
      <path
         id="path10"
         d="m 19.099945,-7.6630078 c 0,-0.2695313 0,-0.28125 -0.246093,-0.28125 -0.28125,0.3164062 -0.878907,0.7617187 -2.109375,0.7617187 v 0.3515625 c 0.269531,0 0.867187,0 1.523437,-0.3164062 v 6.22265624 c 0,0.43359375 -0.03516,0.57421875 -1.078125,0.57421875 h -0.375 v 0.3515625 c 0.316406,-0.0234375 1.476563,-0.0234375 1.875,-0.0234375 0.398438,0 1.546875,0 1.863281,0.0234375 v -0.3515625 h -0.363281 c -1.054687,0 -1.089844,-0.140625 -1.089844,-0.57421875 z m 5.783203,4.6875 c 0,-0.9140625 -0.128906,-2.390625 -0.796875,-3.7734375 -0.703125,-1.4414063 -1.675781,-2.2148438 -1.816406,-2.2148438 -0.04687,0 -0.105469,0.023437 -0.105469,0.09375 0,0.035156 0,0.058594 0.199219,0.2695313 1.195313,1.2070312 1.875,3.1757812 1.875,5.6132812 0,2.32031254 -0.5625,4.3125 -1.957031,5.7304688 -0.117188,0.1054687 -0.117188,0.1289062 -0.117188,0.1640625 0,0.070312 0.05859,0.09375 0.105469,0.09375 0.164063,0 1.136719,-0.8554688 1.722656,-2.02734376 0.609375,-1.21875 0.890625,-2.51953124 0.890625,-3.94921874 z m 0,0"
         style="fill:#000000;fill-opacity:1;fill-rule:nonzero;stroke:none" />
    </g>
    <g
       id="g10"
       aria-label="σ(1,0)"
       transform="matrix(1.3333333,0,0,1.3333333,164.98933,200.672)">
      <path
         id="path11"
         d="m 6.0695234,-4.5118125 c 0.1523438,0 0.5507813,0 0.5507813,-0.375 0,-0.2695312 -0.2226563,-0.2695312 -0.4453125,-0.2695312 H 3.5382734 c -1.7929687,0 -3.08203121,2.0039062 -3.08203121,3.4101562 0,1.01953125 0.65625001,1.86328125 1.73437501,1.86328125 1.40625,0 2.953125,-1.51171875 2.953125,-3.30468745 0,-0.46875 -0.1171875,-0.9257813 -0.3984375,-1.3242188 z m -3.8671875,4.39453125 c -0.609375,0 -1.0546875,-0.46875 -1.0546875,-1.28906245 0,-0.7265625 0.4335938,-3.1054688 2.1914063,-3.1054688 0.5039062,0 1.078125,0.2578125 1.078125,1.171875 0,0.421875 -0.1875,1.4296875 -0.609375,2.1210938 -0.421875,0.70312495 -1.0664063,1.10156245 -1.6054688,1.10156245 z m 0,0"
         style="fill:#000000;fill-opacity:1;fill-rule:nonzero;stroke:none" />
      <path
         id="path12"
         d="m 10.97382,2.9061563 c 0,-0.035156 0,-0.058594 -0.210937,-0.2695313 -1.1953127,-1.2070312 -1.8632814,-3.17578125 -1.8632814,-5.6132812 0,-2.3203125 0.5625,-4.3125 1.9453124,-5.7304688 0.128906,-0.1054687 0.128906,-0.1289062 0.128906,-0.1640625 0,-0.070312 -0.07031,-0.09375 -0.117187,-0.09375 -0.152344,0 -1.1367189,0.8554688 -1.7226564,2.0273438 -0.609375,1.2070312 -0.8789063,2.4960937 -0.8789063,3.9609375 0,1.0664062 0.1640625,2.48437495 0.7851563,3.7617187 0.703125,1.4414063 1.6875004,2.2148438 1.8164064,2.2148438 0.04687,0 0.117187,-0.023437 0.117187,-0.09375 z m 4.107422,-10.5703125 c 0,-0.2695313 0,-0.28125 -0.246094,-0.28125 -0.28125,0.3164062 -0.878906,0.7617187 -2.109375,0.7617187 v 0.3515625 c 0.269532,0 0.867188,0 1.523438,-0.3164062 v 6.2226562 c 0,0.43359375 -0.03516,0.57421875 -1.078125,0.57421875 h -0.375 v 0.3515625 c 0.316406,-0.0234375 1.476562,-0.0234375 1.875,-0.0234375 0.398437,0 1.546875,0 1.863281,0.0234375 v -0.3515625 h -0.363281 c -1.054688,0 -1.089844,-0.140625 -1.089844,-0.57421875 z m 0,0"
         style="fill:#000000;fill-opacity:1;fill-rule:nonzero;stroke:none" />
      <path
         id="path13"
         d="m 19.821477,0.04678125 c 0,-0.69140625 -0.222657,-1.20703125 -0.714844,-1.20703125 -0.386719,0 -0.574219,0.31640625 -0.574219,0.57421875 0,0.2578125 0.175781,0.5859375 0.585938,0.5859375 0.152343,0 0.28125,-0.046875 0.386718,-0.15234375 0.02344,-0.0234375 0.03516,-0.0234375 0.04687,-0.0234375 0.03516,0 0.03516,0.1640625 0.03516,0.22265625 0,0.3984375 -0.08203,1.17187505 -0.773438,1.94531255 -0.128906,0.1523437 -0.128906,0.1757812 -0.128906,0.1992187 0,0.058594 0.05859,0.1171875 0.117187,0.1171875 0.09375,0 1.019532,-0.890625 1.019532,-2.26171875 z m 0,0"
         style="fill:#000000;fill-opacity:1;fill-rule:nonzero;stroke:none" />
      <path
         id="path14"
         d="m 28.091984,-3.8204062 c 0,-0.9960938 -0.05859,-1.96875 -0.492187,-2.8710938 -0.492188,-0.9960937 -1.347656,-1.2539062 -1.933594,-1.2539062 -0.691406,0 -1.546875,0.3398437 -1.980469,1.3359375 -0.339843,0.75 -0.457031,1.4882812 -0.457031,2.7890625 0,1.1601562 0.08203,2.0273437 0.515625,2.8710937 C 24.201359,-0.03525 25.033391,0.246 25.654484,0.246 c 1.042969,0 1.640625,-0.62109375 1.980469,-1.3125 0.433594,-0.890625 0.457031,-2.0625 0.457031,-2.7539062 z m -2.4375,3.8320312 c -0.386718,0 -1.160156,-0.2109375 -1.382812,-1.5234375 C 24.131047,-2.2266562 24.131047,-3.129 24.131047,-3.97275 c 0,-0.9726562 0,-1.8632812 0.199219,-2.5664062 0.199218,-0.796875 0.808593,-1.171875 1.324218,-1.171875 0.457032,0 1.148438,0.28125 1.371094,1.3007812 0.152344,0.6796875 0.152344,1.6289063 0.152344,2.4375 0,0.8085938 0,1.7109375 -0.128906,2.4375 -0.222657,1.32421875 -0.972657,1.546875 -1.394532,1.546875 z m 6.310547,-2.9882812 c 0,-0.9140625 -0.128906,-2.390625 -0.796875,-3.7734375 -0.703125,-1.4414063 -1.675781,-2.2148438 -1.816406,-2.2148438 -0.04687,0 -0.105469,0.023437 -0.105469,0.09375 0,0.035156 0,0.058594 0.199219,0.2695313 1.195312,1.2070312 1.875,3.1757812 1.875,5.6132812 0,2.3203125 -0.5625,4.3125 -1.957031,5.7304688 -0.117188,0.1054687 -0.117188,0.1289062 -0.117188,0.1640625 0,0.070312 0.05859,0.09375 0.105469,0.09375 0.164062,0 1.136719,-0.8554688 1.722656,-2.0273438 0.609375,-1.21875 0.890625,-2.5195312 0.890625,-3.9492187 z m 0,0"
         style="fill:#000000;fill-opacity:1;fill-rule:nonzero;stroke:none" />
    </g>
    <g
       id="g14"
       aria-label="µ(1,0)"
       transform="matrix(1.3333333,0,0,1.3333333,230.34267,200.672)">
      <path
         id="path15"
         d="m 1.7234688,-0.25790625 c 0.2929687,0.26953125 0.7382812,0.375 1.1484375,0.375 0.7617187,0 1.2890625,-0.515625 1.5585937,-0.87890625 0.1289063,0.6328125 0.6210938,0.87890625 1.0429688,0.87890625 0.3632812,0 0.6445312,-0.2109375 0.8671875,-0.64453125 0.1875,-0.41015625 0.3515625,-1.1367187 0.3515625,-1.1835937 0,-0.058594 -0.046875,-0.1054688 -0.1171875,-0.1054688 -0.1054688,0 -0.1171875,0.058594 -0.1640625,0.234375 -0.1875,0.71484375 -0.4101563,1.46484375 -0.9023438,1.46484375 -0.3398437,0 -0.3632812,-0.31640625 -0.3632812,-0.55078125 0,-0.28125 0.1054687,-0.703125 0.1875,-1.0664062 l 0.328125,-1.2890625 c 0.058594,-0.2226563 0.1875,-0.7617188 0.2460937,-0.984375 0.070312,-0.28125 0.1992188,-0.796875 0.1992188,-0.84375 0,-0.1757813 -0.140625,-0.3046875 -0.3164063,-0.3046875 -0.1054687,0 -0.3632812,0.046875 -0.4570312,0.4101562 l -0.8320313,3.328125 C 4.4305,-1.1836875 4.4305,-1.16025 4.2781563,-0.97275 c -0.140625,0.2109375 -0.609375,0.85546875 -1.359375,0.85546875 -0.6679688,0 -0.890625,-0.4921875 -0.890625,-1.05468745 0,-0.3515625 0.1171875,-0.7617188 0.1640625,-0.9726563 l 0.5390625,-2.1445312 c 0.058594,-0.234375 0.1523437,-0.609375 0.1523437,-0.6796875 0,-0.1992188 -0.1523437,-0.3046875 -0.3164062,-0.3046875 -0.1054688,0 -0.3632813,0.035156 -0.4570313,0.421875 l -1.734375,6.9140625 c -0.0117188,0.070312 -0.0351563,0.140625 -0.0351563,0.2109375 0,0.1757812 0.140625,0.2929687 0.31640625,0.2929687 0.35156245,0 0.42187495,-0.2695312 0.50390625,-0.609375 z m 0,0"
         style="fill:#000000;fill-opacity:1;fill-rule:nonzero;stroke:none" />
      <path
         id="path16"
         d="m 10.934406,2.9061563 c 0,-0.035156 0,-0.058594 -0.210937,-0.2695313 -1.1953127,-1.2070312 -1.8632815,-3.17578125 -1.8632815,-5.6132812 0,-2.3203125 0.5625,-4.3125 1.9453125,-5.7304688 0.128906,-0.1054687 0.128906,-0.1289062 0.128906,-0.1640625 0,-0.070312 -0.07031,-0.09375 -0.117187,-0.09375 -0.152344,0 -1.136719,0.8554688 -1.7226565,2.0273438 -0.609375,1.2070312 -0.8789062,2.4960937 -0.8789062,3.9609375 0,1.0664062 0.1640625,2.48437495 0.7851562,3.7617187 0.703125,1.4414063 1.6875005,2.2148438 1.8164065,2.2148438 0.04687,0 0.117187,-0.023437 0.117187,-0.09375 z m 4.107422,-10.5703125 c 0,-0.2695313 0,-0.28125 -0.246094,-0.28125 -0.28125,0.3164062 -0.878906,0.7617187 -2.109375,0.7617187 v 0.3515625 c 0.269532,0 0.867188,0 1.523438,-0.3164062 v 6.2226562 c 0,0.43359375 -0.03516,0.57421875 -1.078125,0.57421875 h -0.375 v 0.3515625 c 0.316406,-0.0234375 1.476562,-0.0234375 1.875,-0.0234375 0.398437,0 1.546875,0 1.863281,0.0234375 v -0.3515625 h -0.363281 c -1.054688,0 -1.089844,-0.140625 -1.089844,-0.57421875 z m 0,0"
         style="fill:#000000;fill-opacity:1;fill-rule:nonzero;stroke:none" />
      <path
         id="path17"
         d="m 19.782063,0.04678125 c 0,-0.69140625 -0.222657,-1.20703125 -0.714844,-1.20703125 -0.386719,0 -0.574219,0.31640625 -0.574219,0.57421875 0,0.2578125 0.175781,0.5859375 0.585938,0.5859375 0.152343,0 0.28125,-0.046875 0.386718,-0.15234375 0.02344,-0.0234375 0.03516,-0.0234375 0.04687,-0.0234375 0.03516,0 0.03516,0.1640625 0.03516,0.22265625 0,0.3984375 -0.08203,1.17187505 -0.773438,1.94531255 -0.128906,0.1523437 -0.128906,0.1757812 -0.128906,0.1992187 0,0.058594 0.05859,0.1171875 0.117187,0.1171875 0.09375,0 1.019532,-0.890625 1.019532,-2.26171875 z m 0,0"
         style="fill:#000000;fill-opacity:1;fill-rule:nonzero;stroke:none" />
      <path
         id="path18"
         d="m 28.05257,-3.8204062 c 0,-0.9960938 -0.05859,-1.96875 -0.492187,-2.8710938 -0.492188,-0.9960937 -1.347656,-1.2539062 -1.933594,-1.2539062 -0.691406,0 -1.546875,0.3398437 -1.980469,1.3359375 -0.339843,0.75 -0.457031,1.4882812 -0.457031,2.7890625 0,1.1601562 0.08203,2.0273437 0.515625,2.8710937 C 24.161945,-0.03525 24.993977,0.246 25.61507,0.246 c 1.042969,0 1.640625,-0.62109375 1.980469,-1.3125 0.433594,-0.890625 0.457031,-2.0625 0.457031,-2.7539062 z m -2.4375,3.8320312 c -0.386718,0 -1.160156,-0.2109375 -1.382812,-1.5234375 C 24.091633,-2.2266562 24.091633,-3.129 24.091633,-3.97275 c 0,-0.9726562 0,-1.8632812 0.199219,-2.5664062 0.199218,-0.796875 0.808593,-1.171875 1.324218,-1.171875 0.457032,0 1.148438,0.28125 1.371094,1.3007812 0.152344,0.6796875 0.152344,1.6289063 0.152344,2.4375 0,0.8085938 0,1.7109375 -0.128906,2.4375 -0.222657,1.32421875 -0.972657,1.546875 -1.394532,1.546875 z m 6.310547,-2.9882812 c 0,-0.9140625 -0.128906,-2.390625 -0.796875,-3.7734375 -0.703125,-1.4414063 -1.675781,-2.2148438 -1.816406,-2.2148438 -0.04687,0 -0.105469,0.023437 -0.105469,0.09375 0,0.035156 0,0.058594 0.199219,0.2695313 1.195312,1.2070312 1.875,3.1757812 1.875,5.6132812 0,2.3203125 -0.5625,4.3125 -1.957031,5.7304688 -0.117188,0.1054687 -0.117188,0.1289062 -0.117188,0.1640625 0,0.070312 0.05859,0.09375 0.105469,0.09375 0.164062,0 1.136719,-0.8554688 1.722656,-2.0273438 0.609375,-1.21875 0.890625,-2.5195312 0.890625,-3.9492187 z m 0,0"
         style="fill:#000000;fill-opacity:1;fill-rule:nonzero;stroke:none" />
    </g>
    <g
       id="g18"
       aria-label="µ(0,1)"
       transform="matrix(1.3333333,0,0,1.3333333,5.2013333,17.156)">
      <path
         id="path19"
         d="m 1.724,-0.257625 c 0.2929687,0.26953125 0.7382812,0.375 1.1484375,0.375 0.7617187,0 1.2890625,-0.515625 1.5585937,-0.87890625 C 4.5599375,-0.12871875 5.052125,0.117375 5.474,0.117375 c 0.3632812,0 0.6445312,-0.2109375 0.8671875,-0.64453125 C 6.5286875,-0.9373125 6.69275,-1.663875 6.69275,-1.71075 c 0,-0.058594 -0.046875,-0.1054688 -0.1171875,-0.1054688 -0.1054688,0 -0.1171875,0.058594 -0.1640625,0.234375 C 6.224,-0.867 6.0013437,-0.117 5.5091562,-0.117 c -0.3398437,0 -0.3632812,-0.31640625 -0.3632812,-0.55078125 0,-0.28125 0.1054687,-0.70312505 0.1875,-1.06640625 L 5.6615,-3.02325 c 0.058594,-0.2226563 0.1875,-0.7617188 0.2460937,-0.984375 0.070312,-0.28125 0.1992188,-0.796875 0.1992188,-0.84375 0,-0.1757813 -0.140625,-0.3046875 -0.3164063,-0.3046875 -0.1054687,0 -0.3632812,0.046875 -0.4570312,0.4101562 l -0.8320313,3.328125 c -0.070312,0.234375 -0.070312,0.2578125 -0.2226562,0.44531255 C 4.1380625,-0.76153125 3.6693125,-0.117 2.9193125,-0.117 c -0.6679688,0 -0.890625,-0.4921875 -0.890625,-1.0546875 0,-0.3515625 0.1171875,-0.7617188 0.1640625,-0.9726563 L 2.7318125,-4.288875 c 0.058594,-0.234375 0.1523437,-0.609375 0.1523437,-0.6796875 0,-0.1992188 -0.1523437,-0.3046875 -0.3164062,-0.3046875 -0.1054688,0 -0.3632813,0.035156 -0.4570313,0.421875 L 0.37634375,2.0626875 C 0.364625,2.133 0.3411875,2.2033125 0.3411875,2.273625 c 0,0.1757812 0.140625,0.2929687 0.31640625,0.2929687 0.35156245,0 0.42187495,-0.2695312 0.50390625,-0.609375 z m 0,0"
         style="fill:#000000;fill-opacity:1;fill-rule:nonzero;stroke:none" />
      <path
         id="path20"
         d="m 10.932008,2.9064375 c 0,-0.035156 0,-0.058594 -0.210938,-0.2695313 C 9.5257578,1.429875 8.8577891,-0.538875 8.8577891,-2.976375 c 0,-2.3203125 0.5625,-4.3125 1.9453129,-5.7304688 0.128906,-0.1054687 0.128906,-0.1289062 0.128906,-0.1640625 0,-0.070312 -0.07031,-0.09375 -0.117188,-0.09375 -0.152343,0 -1.1367184,0.8554688 -1.7226559,2.0273438 -0.609375,1.2070312 -0.8789063,2.4960937 -0.8789063,3.9609375 0,1.0664062 0.1640625,2.484375 0.7851563,3.76171875 C 9.7015391,2.22675 10.685914,3.0001875 10.81482,3.0001875 c 0.04687,0 0.117188,-0.023437 0.117188,-0.09375 z m 6.017578,-6.7265625 c 0,-0.9960938 -0.05859,-1.96875 -0.492188,-2.8710938 -0.492187,-0.9960937 -1.347656,-1.2539062 -1.933593,-1.2539062 -0.691407,0 -1.546875,0.3398437 -1.980469,1.3359375 -0.339844,0.75 -0.457031,1.4882812 -0.457031,2.7890625 0,1.1601562 0.08203,2.0273437 0.515625,2.87109375 0.457031,0.9140625 1.289062,1.1953125 1.910156,1.1953125 1.042969,0 1.640625,-0.62109375 1.980469,-1.31250005 0.433593,-0.890625 0.457031,-2.0625 0.457031,-2.7539062 z m -2.4375,3.83203125 c -0.386719,0 -1.160156,-0.2109375 -1.382813,-1.52343755 -0.140625,-0.7148437 -0.140625,-1.6171875 -0.140625,-2.4609375 0,-0.9726562 0,-1.8632812 0.199219,-2.5664062 0.199219,-0.796875 0.808594,-1.171875 1.324219,-1.171875 0.457031,0 1.148437,0.28125 1.371094,1.3007812 0.152343,0.6796875 0.152343,1.6289063 0.152343,2.4375 0,0.8085938 0,1.7109375 -0.128906,2.4375 -0.222656,1.3242188 -0.972656,1.54687505 -1.394531,1.54687505 z m 0,0"
         style="fill:#000000;fill-opacity:1;fill-rule:nonzero;stroke:none" />
      <path
         id="path21"
         d="m 19.779664,0.0470625 c 0,-0.69140625 -0.222656,-1.2070313 -0.714844,-1.2070313 -0.386718,0 -0.574218,0.3164063 -0.574218,0.5742188 0,0.2578125 0.175781,0.5859375 0.585937,0.5859375 0.152344,0 0.28125,-0.046875 0.386719,-0.15234375 0.02344,-0.0234375 0.03516,-0.0234375 0.04687,-0.0234375 0.03516,0 0.03516,0.1640625 0.03516,0.22265625 0,0.3984375 -0.08203,1.171875 -0.773437,1.9453125 -0.128907,0.1523437 -0.128907,0.1757812 -0.128907,0.1992187 0,0.058594 0.05859,0.1171875 0.117188,0.1171875 0.09375,0 1.019531,-0.890625 1.019531,-2.2617187 z m 0,0"
         style="fill:#000000;fill-opacity:1;fill-rule:nonzero;stroke:none" />
      <path
         id="path22"
         d="m 26.142945,-7.663875 c 0,-0.2695313 0,-0.28125 -0.246093,-0.28125 -0.28125,0.3164062 -0.878907,0.7617187 -2.109375,0.7617187 v 0.3515625 c 0.269531,0 0.867187,0 1.523437,-0.3164062 v 6.22265625 c 0,0.43359375 -0.03516,0.57421875 -1.078125,0.57421875 h -0.375 V 1.875e-4 c 0.316406,-0.0234375 1.476563,-0.0234375 1.875,-0.0234375 0.398438,0 1.546875,0 1.863281,0.0234375 V -0.351375 h -0.363281 c -1.054687,0 -1.089844,-0.140625 -1.089844,-0.57421875 z m 5.783203,4.6875 c 0,-0.9140625 -0.128906,-2.390625 -0.796875,-3.7734375 -0.703125,-1.4414063 -1.675781,-2.2148438 -1.816406,-2.2148438 -0.04687,0 -0.105469,0.023437 -0.105469,0.09375 0,0.035156 0,0.058594 0.199219,0.2695313 1.195313,1.2070312 1.875,3.1757812 1.875,5.6132812 0,2.32031255 -0.5625,4.3125 -1.957031,5.7304688 -0.117188,0.1054687 -0.117188,0.1289062 -0.117188,0.1640625 0,0.070312 0.05859,0.09375 0.105469,0.09375 0.164063,0 1.136719,-0.8554688 1.722656,-2.02734375 0.609375,-1.21875 0.890625,-2.51953125 0.890625,-3.94921875 z m 0,0"
         style="fill:#000000;fill-opacity:1;fill-rule:nonzero;stroke:none" />
    </g>
    <g
       id="g22"
       aria-label="(σµ)(1,0)"
       transform="matrix(1.3333333,0,0,1.3333333,655.54,200.672)">
      <path
         id="path23"
         d="m 3.8899219,2.9061563 c 0,-0.035156 0,-0.058594 -0.2109375,-0.2695313 -1.1953125,-1.2070312 -1.8632813,-3.17578125 -1.8632813,-5.6132812 0,-2.3203125 0.5625,-4.3125 1.9453125,-5.7304688 0.1289063,-0.1054687 0.1289063,-0.1289062 0.1289063,-0.1640625 0,-0.070312 -0.070312,-0.09375 -0.1171875,-0.09375 -0.1523438,0 -1.1367188,0.8554688 -1.7226563,2.0273438 -0.609375,1.2070312 -0.8789062,2.4960937 -0.8789062,3.9609375 0,1.0664062 0.1640625,2.48437495 0.7851562,3.7617187 0.703125,1.4414063 1.6875,2.2148438 1.8164063,2.2148438 0.046875,0 0.1171875,-0.023437 0.1171875,-0.09375 z m 0,0"
         style="fill:#000000;fill-opacity:1;fill-rule:nonzero;stroke:none" />
      <path
         id="path24"
         d="m 10.622344,-4.5118125 c 0.152344,0 0.550781,0 0.550781,-0.375 0,-0.2695312 -0.222656,-0.2695312 -0.445312,-0.2695312 H 8.0910938 c -1.7929688,0 -3.0820313,2.0039062 -3.0820313,3.4101562 0,1.01953125 0.65625,1.86328125 1.734375,1.86328125 1.40625,0 2.953125,-1.51171875 2.953125,-3.30468745 0,-0.46875 -0.1171875,-0.9257813 -0.3984375,-1.3242188 z m -3.8671877,4.39453125 c -0.609375,0 -1.0546875,-0.46875 -1.0546875,-1.28906245 0,-0.7265625 0.4335937,-3.1054688 2.1914062,-3.1054688 0.5039063,0 1.078125,0.2578125 1.078125,1.171875 0,0.421875 -0.1875,1.4296875 -0.609375,2.1210938 -0.421875,0.70312495 -1.0664062,1.10156245 -1.6054687,1.10156245 z m 6.6035157,-0.140625 c 0.292969,0.26953125 0.738281,0.375 1.148437,0.375 0.761719,0 1.289063,-0.515625 1.558594,-0.87890625 0.128906,0.6328125 0.621094,0.87890625 1.042969,0.87890625 0.363281,0 0.644531,-0.2109375 0.867187,-0.64453125 0.1875,-0.41015625 0.351563,-1.1367187 0.351563,-1.1835937 0,-0.058594 -0.04687,-0.1054688 -0.117188,-0.1054688 -0.105468,0 -0.117187,0.058594 -0.164062,0.234375 -0.1875,0.71484375 -0.410156,1.46484375 -0.902344,1.46484375 -0.339844,0 -0.363281,-0.31640625 -0.363281,-0.55078125 0,-0.28125 0.105469,-0.703125 0.1875,-1.0664062 l 0.328125,-1.2890625 c 0.05859,-0.2226563 0.1875,-0.7617188 0.246094,-0.984375 0.07031,-0.28125 0.199218,-0.796875 0.199218,-0.84375 0,-0.1757813 -0.140625,-0.3046875 -0.316406,-0.3046875 -0.105469,0 -0.363281,0.046875 -0.457031,0.4101562 l -0.832031,3.328125 c -0.07031,0.234375 -0.07031,0.2578125 -0.222657,0.4453125 -0.140625,0.2109375 -0.609375,0.85546875 -1.359375,0.85546875 -0.667968,0 -0.890625,-0.4921875 -0.890625,-1.05468745 0,-0.3515625 0.117188,-0.7617188 0.164063,-0.9726563 l 0.539062,-2.1445312 c 0.05859,-0.234375 0.152344,-0.609375 0.152344,-0.6796875 0,-0.1992188 -0.152344,-0.3046875 -0.316406,-0.3046875 -0.105469,0 -0.363281,0.035156 -0.457031,0.421875 l -1.734375,6.9140625 c -0.01172,0.070312 -0.03516,0.140625 -0.03516,0.2109375 0,0.1757812 0.140625,0.2929687 0.316407,0.2929687 0.351562,0 0.421875,-0.2695312 0.503906,-0.609375 z m 0,0"
         style="fill:#000000;fill-opacity:1;fill-rule:nonzero;stroke:none" />
      <path
         id="path25"
         d="m 22.053984,-2.9766562 c 0,-0.9140625 -0.128906,-2.390625 -0.796875,-3.7734375 -0.703125,-1.4414063 -1.675781,-2.2148438 -1.816406,-2.2148438 -0.04687,0 -0.105469,0.023437 -0.105469,0.09375 0,0.035156 0,0.058594 0.199219,0.2695313 1.195313,1.2070312 1.875,3.1757812 1.875,5.6132812 0,2.3203125 -0.5625,4.3125 -1.957031,5.7304688 -0.117188,0.1054687 -0.117188,0.1289062 -0.117188,0.1640625 0,0.070312 0.05859,0.09375 0.105469,0.09375 0.164063,0 1.136719,-0.8554688 1.722656,-2.0273438 0.609375,-1.21875 0.890625,-2.5195312 0.890625,-3.9492187 z m 5.06836,5.8828125 c 0,-0.035156 0,-0.058594 -0.210938,-0.2695313 -1.195312,-1.2070312 -1.863281,-3.17578125 -1.863281,-5.6132812 0,-2.3203125 0.5625,-4.3125 1.945313,-5.7304688 0.128906,-0.1054687 0.128906,-0.1289062 0.128906,-0.1640625 0,-0.070312 -0.07031,-0.09375 -0.117188,-0.09375 -0.152343,0 -1.136718,0.8554688 -1.722656,2.0273438 -0.609375,1.2070312 -0.878906,2.4960937 -0.878906,3.9609375 0,1.0664062 0.164062,2.48437495 0.785156,3.7617187 0.703125,1.4414063 1.6875,2.2148438 1.816406,2.2148438 0.04687,0 0.117188,-0.023437 0.117188,-0.09375 z m 4.107422,-10.5703125 c 0,-0.2695313 0,-0.28125 -0.246094,-0.28125 -0.28125,0.3164062 -0.878906,0.7617187 -2.109375,0.7617187 v 0.3515625 c 0.269531,0 0.867187,0 1.523437,-0.3164062 v 6.2226562 c 0,0.43359375 -0.03516,0.57421875 -1.078125,0.57421875 h -0.375 v 0.3515625 c 0.316407,-0.0234375 1.476563,-0.0234375 1.875,-0.0234375 0.398438,0 1.546875,0 1.863282,0.0234375 v -0.3515625 h -0.363282 c -1.054687,0 -1.089843,-0.140625 -1.089843,-0.57421875 z m 0,0"
         style="fill:#000000;fill-opacity:1;fill-rule:nonzero;stroke:none" />
      <path
         id="path26"
         d="M 35.97,0.04678125 C 35.97,-0.644625 35.747344,-1.16025 35.255156,-1.16025 c -0.386718,0 -0.574218,0.31640625 -0.574218,0.57421875 0,0.2578125 0.175781,0.5859375 0.585937,0.5859375 0.152344,0 0.28125,-0.046875 0.386719,-0.15234375 0.02344,-0.0234375 0.03516,-0.0234375 0.04687,-0.0234375 0.03516,0 0.03516,0.1640625 0.03516,0.22265625 0,0.3984375 -0.08203,1.17187505 -0.773437,1.94531255 -0.128907,0.1523437 -0.128907,0.1757812 -0.128907,0.1992187 0,0.058594 0.05859,0.1171875 0.117188,0.1171875 0.09375,0 1.019531,-0.890625 1.019531,-2.26171875 z m 0,0"
         style="fill:#000000;fill-opacity:1;fill-rule:nonzero;stroke:none" />
      <path
         id="path27"
         d="m 44.228789,-3.8204062 c 0,-0.9960938 -0.05859,-1.96875 -0.492187,-2.8710938 -0.492188,-0.9960937 -1.347657,-1.2539062 -1.933594,-1.2539062 -0.691406,0 -1.546875,0.3398437 -1.980469,1.3359375 -0.339844,0.75 -0.457031,1.4882812 -0.457031,2.7890625 0,1.1601562 0.08203,2.0273437 0.515625,2.8710937 C 40.338164,-0.03525 41.170195,0.246 41.791289,0.246 c 1.042969,0 1.640625,-0.62109375 1.980469,-1.3125 0.433594,-0.890625 0.457031,-2.0625 0.457031,-2.7539062 z m -2.4375,3.8320312 c -0.386719,0 -1.160156,-0.2109375 -1.382812,-1.5234375 C 40.267852,-2.2266562 40.267852,-3.129 40.267852,-3.97275 c 0,-0.9726562 0,-1.8632812 0.199218,-2.5664062 0.199219,-0.796875 0.808594,-1.171875 1.324219,-1.171875 0.457031,0 1.148438,0.28125 1.371094,1.3007812 0.152344,0.6796875 0.152344,1.6289063 0.152344,2.4375 0,0.8085938 0,1.7109375 -0.128907,2.4375 -0.222656,1.32421875 -0.972656,1.546875 -1.394531,1.546875 z m 6.310547,-2.9882812 c 0,-0.9140625 -0.128906,-2.390625 -0.796875,-3.7734375 -0.703125,-1.4414063 -1.675781,-2.2148438 -1.816406,-2.2148438 -0.04687,0 -0.105469,0.023437 -0.105469,0.09375 0,0.035156 0,0.058594 0.199219,0.2695313 1.195312,1.2070312 1.875,3.1757812 1.875,5.6132812 0,2.3203125 -0.5625,4.3125 -1.957032,5.7304688 -0.117187,0.1054687 -0.117187,0.1289062 -0.117187,0.1640625 0,0.070312 0.05859,0.09375 0.105469,0.09375 0.164062,0 1.136718,-0.8554688 1.722656,-2.0273438 0.609375,-1.21875 0.890625,-2.5195312 0.890625,-3.9492187 z m 0,0"
         style="fill:#000000;fill-opacity:1;fill-rule:nonzero;stroke:none" />
    </g>
    <path
       id="path28"
       d="M 28.3468,0 0,28.3468"
       style="fill:none;stroke:#000000;stroke-width:0.99628;stroke-linecap:round;stroke-linejoin:miter;stroke-miterlimit:10;stroke-dasharray:none;stroke-opacity:1"
       transform="matrix(1.3333333,0,0,-1.3333333,54.797333,183.24933)" />
    <path
       id="path29"
       d="M 0,0 H 446.46225"
       style="fill:none;stroke:#000000;stroke-width:0.99628;stroke-linecap:round;stroke-linejoin:miter;stroke-miterlimit:10;stroke-dasharray:none;stroke-opacity:1"
       transform="matrix(1.3333333,0,0,-1.3333333,54.797333,183.24933)" />
    <path
       id="path30"
       d="M 0,0 V 127.56062"
       style="fill:none;stroke:#000000;stroke-width:0.99628;stroke-linecap:round;stroke-linejoin:miter;stroke-miterlimit:10;stroke-dasharray:none;stroke-opacity:1"
       transform="matrix(1.3333333,0,0,-1.3333333,54.797333,183.24933)" />
    <path
       id="path31"
       d="M 0,127.56062 446.46225,0"
       style="fill:none;stroke:#000000;stroke-width:0.99628;stroke-linecap:round;stroke-linejoin:miter;stroke-miterlimit:10;stroke-dasharray:none;stroke-opacity:1"
       transform="matrix(1.3333333,0,0,-1.3333333,54.797333,183.24933)" />
    <path
       id="path32"
       d="M 0,28.3468 99.21382,0"
       style="fill:none;stroke:#000000;stroke-width:0.99628;stroke-linecap:round;stroke-linejoin:miter;stroke-miterlimit:10;stroke-dasharray:none;stroke-opacity:1"
       transform="matrix(1.3333333,0,0,-1.3333333,54.797333,183.24933)" />
    <path
       id="path33"
       d="M 127.56062,0 0,127.56062"
       style="fill:none;stroke:#000000;stroke-width:0.99628;stroke-linecap:round;stroke-linejoin:miter;stroke-miterlimit:10;stroke-dasharray:none;stroke-opacity:1"
       transform="matrix(1.3333333,0,0,-1.3333333,54.797333,183.24933)" />
    <path
       id="path34"
       d="m 100.70824,0 c 0,0.82533 -0.66907,1.49442 -1.49442,1.49442 -0.82535,0 -1.49442,-0.66909 -1.49442,-1.49442 0,-0.82533 0.66907,-1.49442 1.49442,-1.49442 0.82535,0 1.49442,0.66909 1.49442,1.49442 z"
       style="fill:#ffffff;fill-opacity:1;fill-rule:nonzero;stroke:#000000;stroke-width:0.3985;stroke-linecap:butt;stroke-linejoin:miter;stroke-miterlimit:10;stroke-dasharray:none;stroke-opacity:1"
       transform="matrix(1.3333333,0,0,-1.3333333,54.797333,183.24933)" />
    <path
       id="path35"
       d="m 129.05504,0 c 0,0.82533 -0.66907,1.49442 -1.49442,1.49442 -0.82533,0 -1.49441,-0.66909 -1.49441,-1.49442 0,-0.82533 0.66908,-1.49442 1.49441,-1.49442 0.82535,0 1.49442,0.66909 1.49442,1.49442 z"
       style="fill:#ffffff;fill-opacity:1;fill-rule:nonzero;stroke:#000000;stroke-width:0.3985;stroke-linecap:butt;stroke-linejoin:miter;stroke-miterlimit:10;stroke-dasharray:none;stroke-opacity:1"
       transform="matrix(1.3333333,0,0,-1.3333333,54.797333,183.24933)" />
    <path
       id="path36"
       d="m 1.49442,127.56062 c 0,0.82535 -0.66909,1.49442 -1.49442,1.49442 -0.82533,0 -1.49442,-0.66907 -1.49442,-1.49442 0,-0.82533 0.66909,-1.49441 1.49442,-1.49441 0.82533,0 1.49442,0.66908 1.49442,1.49441 z"
       style="fill:#ffffff;fill-opacity:1;fill-rule:nonzero;stroke:#000000;stroke-width:0.3985;stroke-linecap:butt;stroke-linejoin:miter;stroke-miterlimit:10;stroke-dasharray:none;stroke-opacity:1"
       transform="matrix(1.3333333,0,0,-1.3333333,54.797333,183.24933)" />
    <path
       id="path37"
       d="m 29.84122,0 c 0,0.82533 -0.66907,1.49442 -1.49442,1.49442 -0.82535,0 -1.49441,-0.66909 -1.49441,-1.49442 0,-0.82533 0.66906,-1.49442 1.49441,-1.49442 0.82535,0 1.49442,0.66909 1.49442,1.49442 z"
       style="fill:#ffffff;fill-opacity:1;fill-rule:nonzero;stroke:#000000;stroke-width:0.3985;stroke-linecap:butt;stroke-linejoin:miter;stroke-miterlimit:10;stroke-dasharray:none;stroke-opacity:1"
       transform="matrix(1.3333333,0,0,-1.3333333,54.797333,183.24933)" />
    <path
       id="path38"
       d="m 1.49442,28.3468 c 0,0.82535 -0.66909,1.49442 -1.49442,1.49442 -0.82533,0 -1.49442,-0.66907 -1.49442,-1.49442 0,-0.82535 0.66909,-1.49441 1.49442,-1.49441 0.82533,0 1.49442,0.66906 1.49442,1.49441 z"
       style="fill:#ffffff;fill-opacity:1;fill-rule:nonzero;stroke:#000000;stroke-width:0.3985;stroke-linecap:butt;stroke-linejoin:miter;stroke-miterlimit:10;stroke-dasharray:none;stroke-opacity:1"
       transform="matrix(1.3333333,0,0,-1.3333333,54.797333,183.24933)" />
    <path
       id="path39"
       d="M 1.49442,0 C 1.49442,0.82533 0.82533,1.49442 0,1.49442 -0.82533,1.49442 -1.49442,0.82533 -1.49442,0 c 0,-0.82533 0.66909,-1.49442 1.49442,-1.49442 0.82533,0 1.49442,0.66909 1.49442,1.49442 z"
       style="fill:#ffffff;fill-opacity:1;fill-rule:nonzero;stroke:#000000;stroke-width:0.3985;stroke-linecap:butt;stroke-linejoin:miter;stroke-miterlimit:10;stroke-dasharray:none;stroke-opacity:1"
       transform="matrix(1.3333333,0,0,-1.3333333,54.797333,183.24933)" />
    <path
       id="path40"
       d="m 447.95667,0 c 0,0.82533 -0.66909,1.49442 -1.49442,1.49442 -0.82535,0 -1.49442,-0.66909 -1.49442,-1.49442 0,-0.82533 0.66907,-1.49442 1.49442,-1.49442 0.82533,0 1.49442,0.66909 1.49442,1.49442 z"
       style="fill:#ffffff;fill-opacity:1;fill-rule:nonzero;stroke:#000000;stroke-width:0.3985;stroke-linecap:butt;stroke-linejoin:miter;stroke-miterlimit:10;stroke-dasharray:none;stroke-opacity:1"
       transform="matrix(1.3333333,0,0,-1.3333333,54.797333,183.24933)" />
  </g>
</svg>
