<?xml version="1.0" encoding="UTF-8" standalone="no"?>
<!-- Created with Inkscape (http://www.inkscape.org/) -->

<svg
   version="1.1"
   id="svg1"
   width="1119.1107"
   height="796.03998"
   viewBox="0 0 1119.1107 796.03998"
   sodipodi:docname="TikZ.pdf"
   xmlns:inkscape="http://www.inkscape.org/namespaces/inkscape"
   xmlns:sodipodi="http://sodipodi.sourceforge.net/DTD/sodipodi-0.dtd"
   xmlns="http://www.w3.org/2000/svg"
   xmlns:svg="http://www.w3.org/2000/svg">
  <defs
     id="defs1" />
  <sodipodi:namedview
     id="namedview1"
     pagecolor="#505050"
     bordercolor="#eeeeee"
     borderopacity="1"
     inkscape:showpageshadow="0"
     inkscape:pageopacity="0"
     inkscape:pagecheckerboard="0"
     inkscape:deskcolor="#505050">
    <inkscape:page
       x="0"
       y="0"
       inkscape:label="1"
       id="page1"
       width="1119.1107"
       height="796.03998"
       margin="0"
       bleed="0" />
  </sodipodi:namedview>
  <g
     id="g1"
     inkscape:groupmode="layer"
     inkscape:label="1">
    <path
       id="path1"
       d="m 8.6849375,-5.2378984 c 0,-1.96875 -1.3007812,-3.1757813 -2.9648437,-3.1757813 -2.5664063,0 -5.1445313,2.7539063 -5.1445313,5.5078125 0,1.875 1.2421875,3.15234376 2.9765625,3.15234376 2.5078125,0 5.1328125,-2.61328126 5.1328125,-5.48437496 z m -5.0625,5.21484371 c -0.984375,0 -2.015625,-0.71484375 -2.015625,-2.57812501 0,-1.0898437 0.3867188,-2.8710937 1.3710938,-4.0664062 0.8671875,-1.0546875 1.875,-1.4882813 2.671875,-1.4882813 1.0546875,0 2.0742187,0.7734375 2.0742187,2.4960938 0,1.0546875 -0.4570312,2.71875 -1.2539062,3.8554687 -0.8789063,1.21875001 -1.9570313,1.78125001 -2.8476563,1.78125001 z m 0,0"
       style="fill:#000000;fill-opacity:1;fill-rule:nonzero;stroke:none"
       aria-label="O"
       transform="matrix(1.3333333,0,0,1.3333333,5.2013333,304.58933)" />
    <path
       id="path2"
       d="m 2.0280703,-1.3243672 c -0.4101562,0.70312501 -0.8203125,0.93750001 -1.39453124,0.97265626 -0.12890625,0.0117188 -0.22265625,0.0117188 -0.22265625,0.234375 0,0.0703125 0.0585938,0.1171875025 0.140625,0.1171875025 0.2109375,0 0.74999999,-0.0234375025 0.97265629,-0.0234375025 0.3398437,0 0.7265625,0.0234375025 1.0546875,0.0234375025 0.070312,0 0.2226562,0 0.2226562,-0.2226562525 0,-0.1171875 -0.09375,-0.12890625 -0.1757812,-0.12890625 -0.2695313,-0.0234375 -0.4921875,-0.1171875 -0.4921875,-0.3984375 0,-0.17578125 0.070312,-0.30468746 0.2226562,-0.56249996 l 0.9023438,-1.5117188 h 3.0585937 c 0.011719,0.1054688 0.011719,0.2109375 0.023437,0.3164063 0.035156,0.3046875 0.1757813,1.54687496 0.1757813,1.78124996 0,0.3515625 -0.609375,0.375 -0.796875,0.375 -0.140625,0 -0.2695313,0 -0.2695313,0.22265625 0,0.1289062525 0.1054688,0.1289062525 0.1757813,0.1289062525 0.2109375,0 0.4453125,-0.0234375025 0.65625,-0.0234375025 h 0.6796875 c 0.7265625,0 1.2539062,0.0234375025 1.265625,0.0234375025 0.082031,0 0.2109375,0 0.2109375,-0.2226562525 0,-0.12890625 -0.1054688,-0.12890625 -0.28125,-0.12890625 -0.65625,0 -0.6679688,-0.10546875 -0.7148438,-0.45703125 L 6.7155703,-8.2735859 c -0.023437,-0.234375 -0.070312,-0.2578125 -0.1992187,-0.2578125 -0.1171875,0 -0.1875,0.023437 -0.3046875,0.1992187 z m 1.4414063,-1.8398437 2.4023437,-4.0195313 0.4101563,4.0195313 z m 0,0"
       style="fill:#000000;fill-opacity:1;fill-rule:nonzero;stroke:none"
       aria-label="A"
       transform="matrix(1.3333333,0,0,1.3333333,683.292,174.23067)" />
    <path
       id="path3"
       d="m 4.3703594,-7.3478203 c 0.1171875,-0.4453125 0.1640625,-0.46875 0.6210937,-0.46875 h 1.5585938 c 1.3476562,0 1.3476562,1.1484375 1.3476562,1.2539062 0,0.9726563 -0.9609375,2.203125 -2.5429687,2.203125 H 3.6320781 Z m 2.0273437,3.0820312 c 1.3007813,-0.2460937 2.484375,-1.1484375 2.484375,-2.25 0,-0.9257812 -0.8320312,-1.6523437 -2.1796875,-1.6523437 H 2.8703594 c -0.234375,0 -0.3398438,0 -0.3398438,0.234375 0,0.1171875 0.1054688,0.1171875 0.2929688,0.1171875 0.7265625,0 0.7265625,0.09375 0.7265625,0.2226562 0,0.023437 0,0.09375 -0.046875,0.28125 l -1.6171875,6.43359379 c -0.1054688,0.41015625 -0.1289063,0.52734375 -0.96093752,0.52734375 -0.234375,0 -0.3515625,0 -0.3515625,0.22265625 0,0.1289062475 0.0703125,0.1289062475 0.3046875,0.1289062475 H 4.9797344 c 1.828125,0 3.2460937,-1.3828125375 3.2460937,-2.5898437375 0,-0.984375 -0.8671875,-1.5820313 -1.828125,-1.6757813 z M 4.6984844,-0.35172656 H 3.0812969 c -0.1640625,0 -0.1875,0 -0.2578125,-0.0117188 -0.1289063,-0.0117188 -0.1523438,-0.0351563 -0.1523438,-0.12890625 0,-0.0820313 0.035156,-0.15234375 0.058594,-0.2578125 l 0.832031,-3.37499999 h 2.25 c 1.40625,0 1.40625,1.3125 1.40625,1.40625 0,1.1484375 -1.0429687,2.36718754 -2.5195312,2.36718754 z m 0,0"
       style="fill:#000000;fill-opacity:1;fill-rule:nonzero;stroke:none"
       aria-label="B"
       transform="matrix(1.3333333,0,0,1.3333333,398.43067,293.676)" />
    <path
       id="path4"
       d="m 8.9283281,-8.3097266 c 0,-0.1054687 -0.082031,-0.1054687 -0.1054687,-0.1054687 -0.023437,0 -0.070312,0 -0.1757813,0.1171875 l -0.8203125,1.0078125 c -0.421875,-0.7148438 -1.078125,-1.125 -1.96875,-1.125 -2.5898437,0 -5.26171872,2.6132812 -5.26171872,5.4257812 0,1.99218754 1.39453122,3.23437504 3.14062502,3.23437504 0.9609375,0 1.7929687,-0.3984375 2.484375,-0.984375 1.0429687,-0.87890624 1.359375,-2.03906254 1.359375,-2.13281254 0,-0.1054687 -0.09375,-0.1054687 -0.140625,-0.1054687 -0.1054688,0 -0.1171875,0.070312 -0.140625,0.1171875 -0.5507813,1.86328124 -2.15625,2.76562499 -3.3515625,2.76562499 -1.2773438,0 -2.3671875,-0.8203125 -2.3671875,-2.50781249 0,-0.3867188 0.1171875,-2.4609375 1.4648437,-4.03125 0.65625,-0.7617188 1.78125,-1.4414063 2.9179688,-1.4414063 1.3125,0 1.8984375,1.0898438 1.8984375,2.3085938 0,0.3164062 -0.035156,0.5742187 -0.035156,0.6210937 0,0.1171875 0.1171875,0.1171875 0.1523438,0.1171875 0.140625,0 0.1523437,-0.011719 0.1992187,-0.234375 z m 0,0"
       style="fill:#000000;fill-opacity:1;fill-rule:nonzero;stroke:none"
       aria-label="C"
       transform="matrix(1.3333333,0,0,1.3333333,818.744,447.28667)" />
    <g
       id="g4"
       aria-label="A&#10;′"
       transform="matrix(1.3333333,0,0,1.3333333,858.228,142.728)">
      <path
         id="path5"
         d="m 2.0262656,-1.3252969 c -0.4101562,0.70312503 -0.8203125,0.93750003 -1.39453122,0.97265628 -0.12890625,0.0117188 -0.22265625,0.0117188 -0.22265625,0.234375 0,0.0703125 0.0585938,0.1171875 0.140625,0.1171875 0.2109375,0 0.74999997,-0.0234375 0.97265627,-0.0234375 0.3398437,0 0.7265625,0.0234375 1.0546875,0.0234375 0.070312,0 0.2226562,0 0.2226562,-0.22265625 0,-0.1171875 -0.09375,-0.12890625 -0.1757812,-0.12890625 -0.2695313,-0.0234375 -0.4921875,-0.1171875 -0.4921875,-0.3984375 0,-0.17578125 0.070312,-0.30468748 0.2226562,-0.56249998 l 0.9023438,-1.5117188 h 3.0585937 c 0.011719,0.1054688 0.011719,0.2109375 0.023437,0.3164063 0.035156,0.3046875 0.1757813,1.54687498 0.1757813,1.78124998 0,0.3515625 -0.609375,0.375 -0.796875,0.375 -0.140625,0 -0.2695313,0 -0.2695313,0.22265625 0,0.12890625 0.1054688,0.12890625 0.1757813,0.12890625 0.2109375,0 0.4453125,-0.0234375 0.65625,-0.0234375 h 0.6796875 c 0.7265625,0 1.2539062,0.0234375 1.265625,0.0234375 0.082031,0 0.2109375,0 0.2109375,-0.22265625 0,-0.12890625 -0.1054688,-0.12890625 -0.28125,-0.12890625 -0.65625,0 -0.6679688,-0.10546875 -0.7148438,-0.45703125 L 6.7137656,-8.2745156 c -0.023437,-0.234375 -0.070312,-0.2578125 -0.1992187,-0.2578125 -0.1171875,0 -0.1875,0.023437 -0.3046875,0.1992187 z m 1.4414063,-1.8398437 2.4023437,-4.0195313 0.4101563,4.0195313 z m 0,0"
         style="fill:#000000;fill-opacity:1;fill-rule:nonzero;stroke:none" />
      <path
         id="path6"
         d="m 10.885641,-8.1104531 c 0.04687,-0.1054688 0.07031,-0.1640625 0.07031,-0.2460938 0,-0.2578125 -0.234375,-0.4335937 -0.457031,-0.4335937 -0.316406,0 -0.410156,0.28125 -0.445313,0.3867187 l -1.0078121,3.4335938 c -0.035156,0.09375 -0.035156,0.1171875 -0.035156,0.1289062 0,0.070312 0.046875,0.09375 0.1289063,0.1171875 0.1523437,0.058594 0.1640625,0.058594 0.1757812,0.058594 0.023437,0 0.070312,0 0.1289063,-0.1289063 z m 0,0"
         style="fill:#000000;fill-opacity:1;fill-rule:nonzero;stroke:none" />
    </g>
    <g
       id="g6"
       aria-label="B&#10;′"
       transform="matrix(1.3333333,0,0,1.3333333,619.55867,293.676)">
      <path
         id="path7"
         d="m 4.3710391,-7.3478203 c 0.1171875,-0.4453125 0.1640625,-0.46875 0.6210937,-0.46875 h 1.5585938 c 1.3476562,0 1.3476562,1.1484375 1.3476562,1.2539062 0,0.9726563 -0.9609375,2.203125 -2.5429687,2.203125 H 3.6327578 Z m 2.0273437,3.0820312 c 1.3007813,-0.2460937 2.484375,-1.1484375 2.484375,-2.25 0,-0.9257812 -0.8320312,-1.6523437 -2.1796875,-1.6523437 H 2.8710391 c -0.234375,0 -0.3398438,0 -0.3398438,0.234375 0,0.1171875 0.1054688,0.1171875 0.2929688,0.1171875 0.7265625,0 0.7265625,0.09375 0.7265625,0.2226562 0,0.023437 0,0.09375 -0.046875,0.28125 l -1.6171875,6.43359379 c -0.1054688,0.41015625 -0.1289063,0.52734375 -0.96093754,0.52734375 -0.234375,0 -0.3515625,0 -0.3515625,0.22265625 0,0.1289062475 0.0703125,0.1289062475 0.3046875,0.1289062475 H 4.9804141 c 1.828125,0 3.2460937,-1.3828125375 3.2460937,-2.5898437375 0,-0.984375 -0.8671875,-1.5820313 -1.828125,-1.6757813 z M 4.6991641,-0.35172656 H 3.0819766 c -0.1640625,0 -0.1875,0 -0.2578125,-0.0117188 -0.1289063,-0.0117188 -0.1523438,-0.0351563 -0.1523438,-0.12890625 0,-0.0820313 0.035156,-0.15234375 0.058594,-0.2578125 l 0.832031,-3.37499999 h 2.25 c 1.40625,0 1.40625,1.3125 1.40625,1.40625 0,1.1484375 -1.0429687,2.36718754 -2.5195312,2.36718754 z m 0,0"
         style="fill:#000000;fill-opacity:1;fill-rule:nonzero;stroke:none" />
      <path
         id="path8"
         d="m 11.604438,-8.1124688 c 0.04687,-0.1054687 0.07031,-0.1640625 0.07031,-0.2460937 0,-0.2578125 -0.234375,-0.4335938 -0.457031,-0.4335938 -0.316406,0 -0.410156,0.28125 -0.445313,0.3867188 l -1.0078122,3.4335937 c -0.035156,0.09375 -0.035156,0.1171875 -0.035156,0.1289063 0,0.070312 0.046875,0.09375 0.1289063,0.1171875 0.1523439,0.058594 0.1640619,0.058594 0.1757809,0.058594 0.02344,0 0.07031,0 0.128906,-0.1289062 z m 0,0"
         style="fill:#000000;fill-opacity:1;fill-rule:nonzero;stroke:none" />
    </g>
    <g
       id="g8"
       aria-label="C&#10;′"
       transform="matrix(1.3333333,0,0,1.3333333,918.91733,466.75867)">
      <path
         id="path9"
         d="m 8.9301641,-8.3092344 c 0,-0.1054687 -0.082031,-0.1054687 -0.1054688,-0.1054687 -0.023437,0 -0.070312,0 -0.1757812,0.1171875 l -0.8203125,1.0078125 c -0.421875,-0.7148438 -1.078125,-1.125 -1.96875,-1.125 -2.5898438,0 -5.26171879,2.6132812 -5.26171879,5.4257812 0,1.99218753 1.39453129,3.23437503 3.14062499,3.23437503 0.9609375,0 1.7929688,-0.3984375 2.484375,-0.984375 1.0429688,-0.87890623 1.359375,-2.03906253 1.359375,-2.13281253 0,-0.1054687 -0.09375,-0.1054687 -0.140625,-0.1054687 -0.1054687,0 -0.1171875,0.070312 -0.140625,0.1171875 -0.5507812,1.86328123 -2.15625,2.76562498 -3.3515625,2.76562498 -1.2773437,0 -2.3671875,-0.8203125 -2.3671875,-2.50781248 0,-0.3867188 0.1171875,-2.4609375 1.4648438,-4.03125 0.65625,-0.7617188 1.78125,-1.4414063 2.9179687,-1.4414063 1.3125,0 1.8984375,1.0898438 1.8984375,2.3085938 0,0.3164062 -0.035156,0.5742187 -0.035156,0.6210937 0,0.1171875 0.1171875,0.1171875 0.1523437,0.1171875 0.140625,0 0.1523438,-0.011719 0.1992188,-0.234375 z m 0,0"
         style="fill:#000000;fill-opacity:1;fill-rule:nonzero;stroke:none" />
      <path
         id="path10"
         d="m 11.341297,-8.1129453 c 0.04687,-0.1054688 0.07031,-0.1640625 0.07031,-0.2460938 0,-0.2578125 -0.234375,-0.4335937 -0.457031,-0.4335937 -0.316406,0 -0.410156,0.28125 -0.445312,0.3867187 l -1.0078129,3.4335938 c -0.035156,0.09375 -0.035156,0.1171875 -0.035156,0.1289062 0,0.070312 0.046875,0.09375 0.1289062,0.1171875 0.1523438,0.058594 0.1640625,0.058594 0.1757813,0.058594 0.023437,0 0.070312,0 0.1289062,-0.1289063 z m 0,0"
         style="fill:#000000;fill-opacity:1;fill-rule:nonzero;stroke:none" />
    </g>
    <g
       id="g10"
       aria-label="D&#10;A"
       transform="matrix(1.3333333,0,0,1.3333333,998.09333,536.55067)">
      <path
         id="path11"
         d="m 1.8753125,-0.87882031 c -0.1054688,0.41015625 -0.1289063,0.52734375 -0.9609375,0.52734375 -0.234375,0 -0.3515625,0 -0.3515625,0.22265625 0,0.1289062475 0.0703125,0.1289062475 0.3046875,0.1289062475 h 3.796875 c 2.4140625,0 4.7695312,-2.4960937375 4.7695312,-5.1679687375 0,-1.7226563 -1.03125,-3 -2.7421875,-3 H 2.8596875 c -0.234375,0 -0.3398438,0 -0.3398438,0.234375 0,0.1171875 0.1054688,0.1171875 0.2929688,0.1171875 0.7265625,0 0.7265625,0.09375 0.7265625,0.2226562 0,0.023437 0,0.09375 -0.046875,0.28125 z M 4.3948437,-7.3475703 c 0.1171875,-0.4453125 0.1640625,-0.46875 0.6210938,-0.46875 h 1.3242187 c 1.1132813,0 2.1445313,0.609375 2.1445313,2.2617187 0,0.5976563 -0.234375,2.671875 -1.3945313,3.984375 -0.3398437,0.3984375 -1.2421875,1.21875004 -2.625,1.21875004 h -1.359375 c -0.1640625,0 -0.1875,0 -0.2578125,-0.0117188 -0.1289062,-0.0117188 -0.140625,-0.0351563 -0.140625,-0.12890625 0,-0.0820313 0.023437,-0.15234375 0.046875,-0.2578125 z m 0,0"
         style="fill:#000000;fill-opacity:1;fill-rule:nonzero;stroke:none" />
      <path
         id="path12"
         d="M 11.194648,0.84383594 C 10.831367,1.4297734 10.503242,1.5118047 10.210273,1.5352422 c -0.08203,0 -0.175781,0.011719 -0.175781,0.140625 0,0.035156 0.02344,0.1171875 0.117188,0.1171875 0.07031,0 0.117187,-0.023437 0.679687,-0.023437 0.539063,0 0.714844,0.023437 0.761719,0.023437 0.03516,0 0.152344,0 0.152344,-0.1523438 0,-0.1054687 -0.09375,-0.1054687 -0.140625,-0.1054687 -0.164063,-0.011719 -0.328125,-0.082031 -0.328125,-0.2578125 0,-0.1171875 0.05859,-0.2226563 0.210937,-0.44531251 l 0.539063,-0.87890625 h 2.191406 l 0.164062,1.34765626 c 0,0.1054687 -0.140625,0.234375 -0.515625,0.234375 -0.128906,0 -0.222656,0 -0.222656,0.140625 0,0.011719 0,0.1171875 0.128906,0.1171875 0.08203,0 0.386719,-0.011719 0.457032,-0.023437 h 0.503906 c 0.714844,0 0.84375,0.023437 0.914062,0.023437 0.03516,0 0.164063,0 0.164063,-0.1523438 0,-0.1054687 -0.105469,-0.1054687 -0.234375,-0.1054687 -0.445313,0 -0.445313,-0.082031 -0.46875,-0.28125 l -0.632813,-4.921875 c -0.02344,-0.1757813 -0.03516,-0.234375 -0.164062,-0.234375 -0.152344,0 -0.199219,0.082031 -0.246094,0.1640625 z m 0.996094,-1.16015625 1.652344,-2.61328129 0.339844,2.61328129 z m 0,0"
         style="fill:#000000;fill-opacity:1;fill-rule:nonzero;stroke:none" />
    </g>
    <g
       id="g12"
       aria-label="D&#10;B"
       transform="matrix(1.3333333,0,0,1.3333333,950.68533,788.448)">
      <path
         id="path13"
         d="m 1.8736953,-0.87799219 c -0.1054687,0.41015625 -0.1289062,0.52734375 -0.96093749,0.52734375 -0.234375,0 -0.3515625,0 -0.3515625,0.22265625 0,0.1289062525 0.0703125,0.1289062525 0.3046875,0.1289062525 H 4.6627578 c 2.4140625,0 4.7695313,-2.4960937625 4.7695313,-5.1679687625 0,-1.7226562 -1.03125,-3 -2.7421875,-3 H 2.8580703 c -0.234375,0 -0.3398437,0 -0.3398437,0.234375 0,0.1171875 0.1054687,0.1171875 0.2929687,0.1171875 0.7265625,0 0.7265625,0.09375 0.7265625,0.2226563 0,0.023437 0,0.09375 -0.046875,0.28125 z M 4.3932266,-7.3467422 c 0.1171875,-0.4453125 0.1640625,-0.46875 0.6210937,-0.46875 h 1.3242188 c 1.1132812,0 2.1445312,0.609375 2.1445312,2.2617188 0,0.5976562 -0.234375,2.671875 -1.3945312,3.984375 -0.3398438,0.3984375 -1.2421875,1.21874996 -2.625,1.21874996 h -1.359375 c -0.1640625,0 -0.1875,0 -0.2578125,-0.0117188 -0.1289063,-0.0117188 -0.140625,-0.0351563 -0.140625,-0.12890625 0,-0.0820312 0.023437,-0.15234375 0.046875,-0.2578125 z m 0,0"
         style="fill:#000000;fill-opacity:1;fill-rule:nonzero;stroke:none" />
      <path
         id="path14"
         d="m 11.067055,1.1610703 c -0.07031,0.3046875 -0.09375,0.375 -0.679688,0.375 -0.152344,0 -0.246094,0 -0.246094,0.140625 0,0.1171875 0.105469,0.1171875 0.234375,0.1171875 h 2.964844 c 1.3125,0 2.296875,-0.93749999 2.296875,-1.71093749 0,-0.57421875 -0.503906,-1.04296875 -1.300781,-1.13671871 0.925781,-0.1757813 1.722656,-0.7734375 1.722656,-1.4765625 0,-0.5976563 -0.585937,-1.1132813 -1.59375,-1.1132813 h -2.777344 c -0.140625,0 -0.246093,0 -0.246093,0.140625 0,0.1171875 0.09375,0.1171875 0.234375,0.1171875 0.257812,0 0.492187,0 0.492187,0.1289063 0,0.035156 -0.01172,0.035156 -0.03516,0.140625 z m 1.242187,-2.3085937 0.480469,-1.9453125 c 0.08203,-0.2695313 0.08203,-0.2929688 0.410156,-0.2929688 h 1.148438 c 0.785156,0 0.960937,0.515625 0.960937,0.8320313 0,0.6796875 -0.726562,1.40625 -1.746094,1.40625 z m -0.550781,2.6835937 c -0.07031,-0.023437 -0.09375,-0.023437 -0.09375,-0.082031 0,-0.058594 0.01172,-0.1171875 0.03516,-0.1757813 l 0.550781,-2.20312499 h 1.617188 c 0.75,0 0.996094,0.50390625 0.996094,0.94921875 0,0.78515625 -0.773438,1.51171874 -1.722657,1.51171874 z m 0,0"
         style="fill:#000000;fill-opacity:1;fill-rule:nonzero;stroke:none" />
    </g>
    <g
       id="g14"
       aria-label="D&#10;C"
       transform="matrix(1.3333333,0,0,1.3333333,1091.488,16.093333)">
      <path
         id="path15"
         d="M 1.8752109,-0.87859375 C 1.7697422,-0.4684375 1.7463047,-0.35125 0.91427344,-0.35125 c -0.234375,0 -0.3515625,0 -0.3515625,0.22265625 0,0.12890625 0.0703125,0.12890625 0.3046875,0.12890625 H 4.6642734 c 2.4140625,0 4.7695313,-2.4960937 4.7695313,-5.1679687 0,-1.7226563 -1.03125,-3 -2.7421875,-3 H 2.8595859 c -0.234375,0 -0.3398437,0 -0.3398437,0.234375 0,0.1171875 0.1054687,0.1171875 0.2929687,0.1171875 0.7265625,0 0.7265625,0.09375 0.7265625,0.2226562 0,0.023437 0,0.09375 -0.046875,0.28125 z M 4.3947422,-7.3473437 c 0.1171875,-0.4453125 0.1640625,-0.46875 0.6210937,-0.46875 h 1.3242188 c 1.1132812,0 2.1445312,0.609375 2.1445312,2.2617187 0,0.5976563 -0.234375,2.671875 -1.3945312,3.984375 -0.3398438,0.3984375 -1.2421875,1.21875 -2.625,1.21875 h -1.359375 c -0.1640625,0 -0.1875,0 -0.2578125,-0.0117188 -0.1289063,-0.0117188 -0.140625,-0.0351563 -0.140625,-0.12890625 0,-0.0820312 0.023437,-0.15234375 0.046875,-0.2578125 z m 0,0"
         style="fill:#000000;fill-opacity:1;fill-rule:nonzero;stroke:none" />
      <path
         id="path16"
         d="m 16.060758,-3.5973437 c 0.01172,-0.035156 0.02344,-0.082031 0.02344,-0.1289063 0,-0.046875 -0.04687,-0.09375 -0.105468,-0.09375 -0.04687,0 -0.07031,0.023437 -0.140625,0.09375 L 15.28732,-3.1051562 C 15.217008,-3.210625 14.783414,-3.82 13.857633,-3.82 c -1.851563,0 -3.714844,1.7109375 -3.714844,3.55078125 0,1.38281255 1.054688,2.22656255 2.320313,2.22656255 1.042968,0 1.921875,-0.6328125 2.355468,-1.2539063 0.269532,-0.38671875 0.363282,-0.7734375 0.363282,-0.8203125 0,-0.0703125 -0.04687,-0.10546875 -0.117188,-0.10546875 -0.09375,0 -0.105469,0.0351563 -0.128906,0.12890625 -0.339844,1.1015625 -1.417969,1.7929688 -2.367188,1.7929688 -0.820312,0 -1.664062,-0.4804688 -1.664062,-1.6992188 0,-0.2578125 0.08203,-1.5820312 0.972656,-2.578125 0.597656,-0.6679687 1.40625,-0.9726562 2.039063,-0.9726562 0.996093,0 1.417968,0.796875 1.417968,1.5585937 0,0.1171875 -0.03516,0.2578125 -0.03516,0.3632813 0,0.09375 0.105469,0.09375 0.140625,0.09375 0.09375,0 0.117188,-0.023437 0.140625,-0.1757813 z m 0,0"
         style="fill:#000000;fill-opacity:1;fill-rule:nonzero;stroke:none" />
    </g>
    <path
       id="path17"
       d="M 508.07886,89.58545 691.65115,-354.71402"
       style="fill:none;stroke:#ff0000;stroke-width:0.99628;stroke-linecap:round;stroke-linejoin:miter;stroke-miterlimit:10;stroke-dasharray:none;stroke-opacity:1"
       transform="matrix(1.3333333,0,0,-1.3333333,23.029333,299.14267)" />
    <path
       id="path18"
       d="M 727.20752,-165.78877 286.30295,0"
       style="fill:none;stroke:#ff0000;stroke-width:0.99628;stroke-linecap:round;stroke-linejoin:miter;stroke-miterlimit:10;stroke-dasharray:none;stroke-opacity:1"
       transform="matrix(1.3333333,0,0,-1.3333333,23.029333,299.14267)" />
    <path
       id="path19"
       d="M 727.20752,-165.78877 453.54895,0"
       style="fill:none;stroke:#ff0000;stroke-width:0.99628;stroke-linecap:round;stroke-linejoin:miter;stroke-miterlimit:10;stroke-dasharray:none;stroke-opacity:1"
       transform="matrix(1.3333333,0,0,-1.3333333,23.029333,299.14267)" />
    <path
       id="path20"
       d="m 642.0778,113.2124 49.57335,-467.92642"
       style="fill:none;stroke:#ff0000;stroke-width:0.99628;stroke-linecap:round;stroke-linejoin:miter;stroke-miterlimit:10;stroke-dasharray:none;stroke-opacity:1"
       transform="matrix(1.3333333,0,0,-1.3333333,23.029333,299.14267)" />
    <path
       id="path21"
       d="M 286.30295,0 797.25487,206.39673"
       style="fill:none;stroke:#ff0000;stroke-width:0.99628;stroke-linecap:round;stroke-linejoin:miter;stroke-miterlimit:10;stroke-dasharray:none;stroke-opacity:1"
       transform="matrix(1.3333333,0,0,-1.3333333,23.029333,299.14267)" />
    <path
       id="path22"
       d="M 453.54895,0 797.25487,206.39673"
       style="fill:none;stroke:#ff0000;stroke-width:0.99628;stroke-linecap:round;stroke-linejoin:miter;stroke-miterlimit:10;stroke-dasharray:none;stroke-opacity:1"
       transform="matrix(1.3333333,0,0,-1.3333333,23.029333,299.14267)" />
    <path
       id="path23"
       d="M 691.65115,-354.71402 797.25487,206.39673"
       style="fill:none;stroke:#00ff00;stroke-width:0.99628;stroke-linecap:round;stroke-linejoin:miter;stroke-miterlimit:10;stroke-dasharray:2.98883, 2.98883;stroke-dashoffset:0;stroke-opacity:1"
       transform="matrix(1.3333333,0,0,-1.3333333,23.029333,299.14267)" />
    <path
       id="path24"
       d="M 642.0778,113.2124 0,0"
       style="fill:none;stroke:#0000ff;stroke-width:0.99628;stroke-linecap:round;stroke-linejoin:miter;stroke-miterlimit:10;stroke-dasharray:none;stroke-opacity:1"
       transform="matrix(1.3333333,0,0,-1.3333333,23.029333,299.14267)" />
    <path
       id="path25"
       d="M 453.54895,0 H 0"
       style="fill:none;stroke:#0000ff;stroke-width:0.99628;stroke-linecap:round;stroke-linejoin:miter;stroke-miterlimit:10;stroke-dasharray:none;stroke-opacity:1"
       transform="matrix(1.3333333,0,0,-1.3333333,23.029333,299.14267)" />
    <path
       id="path26"
       d="M 667.82448,-129.8131 0,0"
       style="fill:none;stroke:#0000ff;stroke-width:0.99628;stroke-linecap:round;stroke-linejoin:miter;stroke-miterlimit:10;stroke-dasharray:none;stroke-opacity:1"
       transform="matrix(1.3333333,0,0,-1.3333333,23.029333,299.14267)" />
    <path
       id="path27"
       d="M 1.49442,0 C 1.49442,0.82533 0.82533,1.49442 0,1.49442 -0.82533,1.49442 -1.49442,0.82533 -1.49442,0 c 0,-0.82533 0.66909,-1.49442 1.49442,-1.49442 0.82533,0 1.49442,0.66909 1.49442,1.49442 z"
       style="fill:#ffffff;fill-opacity:1;fill-rule:nonzero;stroke:#000000;stroke-width:0.3985;stroke-linecap:butt;stroke-linejoin:miter;stroke-miterlimit:10;stroke-dasharray:none;stroke-opacity:1"
       transform="matrix(1.3333333,0,0,-1.3333333,23.029333,299.14267)" />
    <path
       id="path28"
       d="m 509.57327,89.58545 c 0,0.82535 -0.66907,1.49441 -1.49441,1.49441 -0.82535,0 -1.49442,-0.66906 -1.49442,-1.49441 0,-0.82535 0.66907,-1.49442 1.49442,-1.49442 0.82534,0 1.49441,0.66907 1.49441,1.49442 z"
       style="fill:#ffffff;fill-opacity:1;fill-rule:nonzero;stroke:#000000;stroke-width:0.3985;stroke-linecap:butt;stroke-linejoin:miter;stroke-miterlimit:10;stroke-dasharray:none;stroke-opacity:1"
       transform="matrix(1.3333333,0,0,-1.3333333,23.029333,299.14267)" />
    <path
       id="path29"
       d="m 643.57222,113.2124 c 0,0.82535 -0.66907,1.49442 -1.49442,1.49442 -0.82534,0 -1.49441,-0.66907 -1.49441,-1.49442 0,-0.82533 0.66907,-1.49441 1.49441,-1.49441 0.82535,0 1.49442,0.66908 1.49442,1.49441 z"
       style="fill:#ffffff;fill-opacity:1;fill-rule:nonzero;stroke:#000000;stroke-width:0.3985;stroke-linecap:butt;stroke-linejoin:miter;stroke-miterlimit:10;stroke-dasharray:none;stroke-opacity:1"
       transform="matrix(1.3333333,0,0,-1.3333333,23.029333,299.14267)" />
    <path
       id="path30"
       d="m 287.79736,0 c 0,0.82533 -0.66908,1.49442 -1.49441,1.49442 -0.82535,0 -1.49442,-0.66909 -1.49442,-1.49442 0,-0.82533 0.66907,-1.49442 1.49442,-1.49442 0.82533,0 1.49441,0.66909 1.49441,1.49442 z"
       style="fill:#ffffff;fill-opacity:1;fill-rule:nonzero;stroke:#000000;stroke-width:0.3985;stroke-linecap:butt;stroke-linejoin:miter;stroke-miterlimit:10;stroke-dasharray:none;stroke-opacity:1"
       transform="matrix(1.3333333,0,0,-1.3333333,23.029333,299.14267)" />
    <path
       id="path31"
       d="m 455.04337,0 c 0,0.82533 -0.66907,1.49442 -1.49442,1.49442 -0.82535,0 -1.49442,-0.66909 -1.49442,-1.49442 0,-0.82533 0.66907,-1.49442 1.49442,-1.49442 0.82535,0 1.49442,0.66909 1.49442,1.49442 z"
       style="fill:#ffffff;fill-opacity:1;fill-rule:nonzero;stroke:#000000;stroke-width:0.3985;stroke-linecap:butt;stroke-linejoin:miter;stroke-miterlimit:10;stroke-dasharray:none;stroke-opacity:1"
       transform="matrix(1.3333333,0,0,-1.3333333,23.029333,299.14267)" />
    <path
       id="path32"
       d="m 594.18872,-115.20912 c 0,0.82533 -0.66907,1.49442 -1.49442,1.49442 -0.82534,0 -1.49441,-0.66909 -1.49441,-1.49442 0,-0.82535 0.66907,-1.49442 1.49441,-1.49442 0.82535,0 1.49442,0.66907 1.49442,1.49442 z"
       style="fill:#ffffff;fill-opacity:1;fill-rule:nonzero;stroke:#000000;stroke-width:0.3985;stroke-linecap:butt;stroke-linejoin:miter;stroke-miterlimit:10;stroke-dasharray:none;stroke-opacity:1"
       transform="matrix(1.3333333,0,0,-1.3333333,23.029333,299.14267)" />
    <path
       id="path33"
       d="m 669.3189,-129.8131 c 0,0.82535 -0.66907,1.49442 -1.49442,1.49442 -0.82533,0 -1.49442,-0.66907 -1.49442,-1.49442 0,-0.82534 0.66909,-1.49441 1.49442,-1.49441 0.82535,0 1.49442,0.66907 1.49442,1.49441 z"
       style="fill:#ffffff;fill-opacity:1;fill-rule:nonzero;stroke:#000000;stroke-width:0.3985;stroke-linecap:butt;stroke-linejoin:miter;stroke-miterlimit:10;stroke-dasharray:none;stroke-opacity:1"
       transform="matrix(1.3333333,0,0,-1.3333333,23.029333,299.14267)" />
    <path
       id="path34"
       d="m 728.70193,-165.78877 c 0,0.82535 -0.66906,1.49441 -1.49441,1.49441 -0.82535,0 -1.49442,-0.66906 -1.49442,-1.49441 0,-0.82535 0.66907,-1.49442 1.49442,-1.49442 0.82535,0 1.49441,0.66907 1.49441,1.49442 z"
       style="fill:#ffffff;fill-opacity:1;fill-rule:nonzero;stroke:#000000;stroke-width:0.3985;stroke-linecap:butt;stroke-linejoin:miter;stroke-miterlimit:10;stroke-dasharray:none;stroke-opacity:1"
       transform="matrix(1.3333333,0,0,-1.3333333,23.029333,299.14267)" />
    <path
       id="path35"
       d="m 693.14557,-354.71402 c 0,0.82535 -0.66907,1.49442 -1.49442,1.49442 -0.82535,0 -1.49441,-0.66907 -1.49441,-1.49442 0,-0.82535 0.66906,-1.49442 1.49441,-1.49442 0.82535,0 1.49442,0.66907 1.49442,1.49442 z"
       style="fill:#ffffff;fill-opacity:1;fill-rule:nonzero;stroke:#000000;stroke-width:0.3985;stroke-linecap:butt;stroke-linejoin:miter;stroke-miterlimit:10;stroke-dasharray:none;stroke-opacity:1"
       transform="matrix(1.3333333,0,0,-1.3333333,23.029333,299.14267)" />
    <path
       id="path36"
       d="m 798.74928,206.39673 c 0,0.82535 -0.66906,1.49441 -1.49441,1.49441 -0.82535,0 -1.49442,-0.66906 -1.49442,-1.49441 0,-0.82533 0.66907,-1.49442 1.49442,-1.49442 0.82535,0 1.49441,0.66909 1.49441,1.49442 z"
       style="fill:#ffffff;fill-opacity:1;fill-rule:nonzero;stroke:#000000;stroke-width:0.3985;stroke-linecap:butt;stroke-linejoin:miter;stroke-miterlimit:10;stroke-dasharray:none;stroke-opacity:1"
       transform="matrix(1.3333333,0,0,-1.3333333,23.029333,299.14267)" />
  </g>
</svg>
