<?xml version="1.0" encoding="UTF-8" standalone="no"?>
<!-- Created with Inkscape (http://www.inkscape.org/) -->

<svg
   version="1.1"
   id="svg1"
   width="810.32269"
   height="353.96799"
   viewBox="0 0 810.32269 353.96799"
   sodipodi:docname="TikZ.pdf"
   xmlns:inkscape="http://www.inkscape.org/namespaces/inkscape"
   xmlns:sodipodi="http://sodipodi.sourceforge.net/DTD/sodipodi-0.dtd"
   xmlns="http://www.w3.org/2000/svg"
   xmlns:svg="http://www.w3.org/2000/svg">
  <defs
     id="defs1" />
  <sodipodi:namedview
     id="namedview1"
     pagecolor="#505050"
     bordercolor="#eeeeee"
     borderopacity="1"
     inkscape:showpageshadow="0"
     inkscape:pageopacity="0"
     inkscape:pagecheckerboard="0"
     inkscape:deskcolor="#505050">
    <inkscape:page
       x="0"
       y="0"
       inkscape:label="1"
       id="page1"
       width="810.32269"
       height="353.96799"
       margin="0"
       bleed="0" />
  </sodipodi:namedview>
  <g
     id="g1"
     inkscape:groupmode="layer"
     inkscape:label="1">
    <path
       id="path1"
       d="m 8.6849375,-5.2393281 c 0,-1.96875 -1.3007812,-3.1757813 -2.9648437,-3.1757813 -2.5664063,0 -5.1445313,2.7539063 -5.1445313,5.5078125 0,1.875 1.2421875,3.15234378 2.9765625,3.15234378 2.5078125,0 5.1328125,-2.61328128 5.1328125,-5.48437498 z m -5.0625,5.21484373 c -0.984375,0 -2.015625,-0.71484375 -2.015625,-2.57812503 0,-1.0898437 0.3867188,-2.8710937 1.3710938,-4.0664062 0.8671875,-1.0546875 1.875,-1.4882813 2.671875,-1.4882813 1.0546875,0 2.0742187,0.7734375 2.0742187,2.4960938 0,1.0546875 -0.4570312,2.71875 -1.2539062,3.8554687 -0.8789063,1.21875003 -1.9570313,1.78125003 -2.8476563,1.78125003 z m 0,0"
       style="fill:#000000;fill-opacity:1;fill-rule:nonzero;stroke:none"
       aria-label="O"
       transform="matrix(1.3333333,0,0,1.3333333,5.2013333,167.83733)" />
    <g
       id="g2"
       aria-label="A&#10;1"
       transform="matrix(1.3333333,0,0,1.3333333,308.63467,75.605333)">
      <path
         id="path2"
         d="m 2.0259531,-1.3241172 c -0.4101562,0.70312501 -0.8203125,0.93750001 -1.39453122,0.97265626 -0.12890625,0.0117188 -0.22265625,0.0117188 -0.22265625,0.234375 0,0.0703125 0.0585938,0.1171875025 0.140625,0.1171875025 0.2109375,0 0.74999997,-0.0234375025 0.97265627,-0.0234375025 0.3398437,0 0.7265625,0.0234375025 1.0546875,0.0234375025 0.070312,0 0.2226562,0 0.2226562,-0.2226562525 0,-0.1171875 -0.09375,-0.12890625 -0.1757812,-0.12890625 -0.2695313,-0.0234375 -0.4921875,-0.1171875 -0.4921875,-0.3984375 0,-0.17578125 0.070312,-0.30468746 0.2226562,-0.56249996 l 0.9023438,-1.5117188 h 3.0585937 c 0.011719,0.1054688 0.011719,0.2109375 0.023437,0.3164063 0.035156,0.3046875 0.1757813,1.54687496 0.1757813,1.78124996 0,0.3515625 -0.609375,0.375 -0.796875,0.375 -0.140625,0 -0.2695313,0 -0.2695313,0.22265625 0,0.1289062525 0.1054688,0.1289062525 0.1757813,0.1289062525 0.2109375,0 0.4453125,-0.0234375025 0.65625,-0.0234375025 h 0.6796875 c 0.7265625,0 1.2539062,0.0234375025 1.265625,0.0234375025 0.082031,0 0.2109375,0 0.2109375,-0.2226562525 0,-0.12890625 -0.1054688,-0.12890625 -0.28125,-0.12890625 -0.65625,0 -0.6679688,-0.10546875 -0.7148438,-0.45703125 L 6.7134531,-8.2733359 c -0.023437,-0.234375 -0.070312,-0.2578125 -0.1992187,-0.2578125 -0.1171875,0 -0.1875,0.023437 -0.3046875,0.1992187 z m 1.4414063,-1.8398437 2.4023437,-4.0195313 0.4101563,4.0195313 z m 0,0"
         style="fill:#000000;fill-opacity:1;fill-rule:nonzero;stroke:none" />
      <path
         id="path3"
         d="m 11.283766,-3.2811484 c 0,-0.2226563 -0.02344,-0.2226563 -0.234375,-0.2226563 -0.328125,0.3164063 -0.75,0.5039063 -1.5117191,0.5039063 v 0.2695312 c 0.2226562,0 0.6445311,0 1.1132811,-0.2226562 v 4.0898437 c 0,0.2929688 -0.02344,0.3984375 -0.7851561,0.3984375 h -0.28125 v 0.2578125 c 0.328125,-0.023437 1.0195311,-0.023437 1.3710941,-0.023437 0.363281,0 1.054687,0 1.382812,0.023437 V 1.5352578 h -0.28125 c -0.75,0 -0.773437,-0.1054687 -0.773437,-0.3984375 z m 0,0"
         style="fill:#000000;fill-opacity:1;fill-rule:nonzero;stroke:none" />
    </g>
    <g
       id="g3"
       aria-label="B&#10;1"
       transform="matrix(1.3333333,0,0,1.3333333,455.86267,41.598667)">
      <path
         id="path4"
         d="m 4.3715547,-7.3484141 c 0.1171875,-0.4453125 0.1640625,-0.46875 0.6210937,-0.46875 h 1.5585938 c 1.3476562,0 1.3476562,1.1484375 1.3476562,1.2539063 0,0.9726562 -0.9609375,2.203125 -2.5429687,2.203125 H 3.6332734 Z m 2.0273437,3.0820313 c 1.3007813,-0.2460938 2.484375,-1.1484375 2.484375,-2.25 0,-0.9257813 -0.8320312,-1.6523438 -2.1796875,-1.6523438 H 2.8715547 c -0.234375,0 -0.3398438,0 -0.3398438,0.234375 0,0.1171875 0.1054688,0.1171875 0.2929688,0.1171875 0.7265625,0 0.7265625,0.09375 0.7265625,0.2226563 0,0.023437 0,0.09375 -0.046875,0.28125 l -1.6171875,6.43359374 c -0.1054688,0.41015625 -0.1289063,0.52734375 -0.96093751,0.52734375 -0.234375,0 -0.3515625,0 -0.3515625,0.22265625 0,0.1289062475 0.0703125,0.1289062475 0.3046875,0.1289062475 H 4.9809297 c 1.828125,0 3.2460937,-1.3828124875 3.2460937,-2.5898437875 0,-0.984375 -0.8671875,-1.5820312 -1.828125,-1.6757812 z M 4.6996797,-0.35232031 H 3.0824922 c -0.1640625,0 -0.1875,0 -0.2578125,-0.0117188 -0.1289063,-0.0117188 -0.1523438,-0.0351563 -0.1523438,-0.12890625 0,-0.0820312 0.035156,-0.15234375 0.058594,-0.2578125 l 0.832031,-3.37499994 h 2.25 c 1.40625,0 1.40625,1.3125 1.40625,1.40625 0,1.1484375 -1.0429687,2.36718749 -2.5195312,2.36718749 z m 0,0"
         style="fill:#000000;fill-opacity:1;fill-rule:nonzero;stroke:none" />
      <path
         id="path5"
         d="m 11.399875,-3.2820078 c 0,-0.2226563 -0.02344,-0.2226563 -0.234375,-0.2226563 -0.328125,0.3164063 -0.75,0.5039063 -1.5117187,0.5039063 v 0.2695312 c 0.2226562,0 0.6445317,0 1.1132817,-0.2226562 v 4.0898437 c 0,0.2929688 -0.02344,0.3984375 -0.7851567,0.3984375 h -0.28125 v 0.2578125 c 0.3281247,-0.023437 1.0195317,-0.023437 1.3710937,-0.023437 0.363281,0 1.054688,0 1.382813,0.023437 V 1.5343984 h -0.28125 c -0.75,0 -0.773438,-0.1054687 -0.773438,-0.3984375 z m 0,0"
         style="fill:#000000;fill-opacity:1;fill-rule:nonzero;stroke:none" />
    </g>
    <g
       id="g5"
       aria-label="C&#10;1"
       transform="matrix(1.3333333,0,0,1.3333333,580.89067,16.093333)">
      <path
         id="path6"
         d="m 8.9296563,-8.3082812 c 0,-0.1054688 -0.082031,-0.1054688 -0.1054688,-0.1054688 -0.023437,0 -0.070312,0 -0.1757812,0.1171875 L 7.8280938,-7.28875 c -0.421875,-0.7148437 -1.078125,-1.125 -1.96875,-1.125 -2.5898438,0 -5.2617188,2.6132813 -5.2617188,5.4257813 0,1.99218745 1.3945313,3.23437495 3.140625,3.23437495 0.9609375,0 1.7929688,-0.3984375 2.484375,-0.984375 C 7.2655938,-1.616875 7.582,-2.7770312 7.582,-2.8707812 7.582,-2.97625 7.48825,-2.97625 7.441375,-2.97625 c -0.1054687,0 -0.1171875,0.070312 -0.140625,0.1171875 -0.5507812,1.86328125 -2.15625,2.765625 -3.3515625,2.765625 C 2.6718438,-0.0934375 1.582,-0.91375 1.582,-2.60125 c 0,-0.3867187 0.1171875,-2.4609375 1.4648438,-4.03125 0.65625,-0.7617187 1.78125,-1.4414062 2.9179687,-1.4414062 1.3125,0 1.8984375,1.0898437 1.8984375,2.3085937 0,0.3164063 -0.035156,0.5742188 -0.035156,0.6210938 0,0.1171875 0.1171875,0.1171875 0.1523437,0.1171875 0.140625,0 0.1523438,-0.011719 0.1992188,-0.234375 z m 0,0"
         style="fill:#000000;fill-opacity:1;fill-rule:nonzero;stroke:none" />
      <path
         id="path7"
         d="m 10.883758,-3.2809375 c 0,-0.2226562 -0.02344,-0.2226562 -0.234375,-0.2226562 -0.328125,0.3164062 -0.7500002,0.5039062 -1.5117189,0.5039062 v 0.2695313 c 0.2226562,0 0.6445312,0 1.1132809,-0.2226563 v 4.0898438 c 0,0.2929687 -0.02344,0.3984375 -0.7851559,0.3984375 h -0.28125 v 0.2578125 c 0.328125,-0.023437 1.0195309,-0.023437 1.3710939,-0.023437 0.363281,0 1.054687,0 1.382812,0.023437 V 1.5354688 h -0.28125 c -0.75,0 -0.773437,-0.1054688 -0.773437,-0.3984375 z m 0,0"
         style="fill:#000000;fill-opacity:1;fill-rule:nonzero;stroke:none" />
    </g>
    <g
       id="g7"
       aria-label="A&#10;2"
       transform="matrix(1.3333333,0,0,1.3333333,183.684,210.34667)">
      <path
         id="path8"
         d="m 2.0270391,-1.3234766 c -0.4101563,0.70312504 -0.8203125,0.93750004 -1.39453129,0.97265629 -0.12890625,0.0117188 -0.22265625,0.0117188 -0.22265625,0.234375 0,0.0703125 0.0585938,0.1171874975 0.140625,0.1171874975 0.2109375,0 0.75000004,-0.0234374975 0.97265624,-0.0234374975 0.3398438,0 0.7265625,0.0234374975 1.0546875,0.0234374975 0.070312,0 0.2226563,0 0.2226563,-0.2226562475 0,-0.1171875 -0.09375,-0.12890625 -0.1757813,-0.12890625 -0.2695312,-0.0234375 -0.4921875,-0.1171875 -0.4921875,-0.3984375 0,-0.17578125 0.070312,-0.30468749 0.2226563,-0.56249999 l 0.9023437,-1.5117188 h 3.0585938 c 0.011719,0.1054688 0.011719,0.2109375 0.023437,0.3164063 0.035156,0.3046875 0.1757812,1.54687499 0.1757812,1.78124999 0,0.3515625 -0.609375,0.375 -0.796875,0.375 -0.140625,0 -0.2695312,0 -0.2695312,0.22265625 0,0.1289062475 0.1054687,0.1289062475 0.1757812,0.1289062475 0.2109375,0 0.4453125,-0.0234374975 0.65625,-0.0234374975 h 0.6796875 c 0.7265625,0 1.2539063,0.0234374975 1.265625,0.0234374975 0.082031,0 0.2109375,0 0.2109375,-0.2226562475 0,-0.12890625 -0.1054687,-0.12890625 -0.28125,-0.12890625 -0.65625,0 -0.6679687,-0.10546875 -0.7148437,-0.45703125 L 6.7145391,-8.2726953 c -0.023437,-0.234375 -0.070312,-0.2578125 -0.1992188,-0.2578125 -0.1171875,0 -0.1875,0.023437 -0.3046875,0.1992187 z m 1.4414062,-1.8398437 2.4023438,-4.0195313 0.4101562,4.0195313 z m 0,0"
         style="fill:#000000;fill-opacity:1;fill-rule:nonzero;stroke:none" />
      <path
         id="path9"
         d="m 11.024109,0.16480469 c 0.128907,-0.1171875 0.457032,-0.375 0.585938,-0.4921875 0.492187,-0.45703125 0.960937,-0.89062499 0.960937,-1.61718749 0,-0.9492188 -0.796875,-1.5585938 -1.792968,-1.5585938 -0.9492191,0 -1.5820316,0.7265625 -1.5820316,1.4296875 0,0.3984375 0.3164062,0.4453125 0.421875,0.4453125 0.1640625,0 0.4101566,-0.1171875 0.4101566,-0.421875 0,-0.4101562 -0.3984379,-0.4101562 -0.4921879,-0.4101562 0.234375,-0.5859375 0.7734379,-0.7851563 1.1601559,-0.7851563 0.738282,0 1.125,0.6328125 1.125,1.3007813 0,0.8320312 -0.585937,1.42968749 -1.523437,2.40234374 L 9.2897344,1.4890234 c -0.09375,0.09375 -0.09375,0.1054688 -0.09375,0.3046875 h 3.1523436 l 0.222656,-1.42968746 h -0.246093 c -0.02344,0.1640625 -0.08203,0.5625 -0.175782,0.71484376 -0.04687,0.058594 -0.65625,0.058594 -0.785156,0.058594 H 9.9459844 Z m 0,0"
         style="fill:#000000;fill-opacity:1;fill-rule:nonzero;stroke:none" />
    </g>
    <g
       id="g9"
       aria-label="B&#10;2"
       transform="matrix(1.3333333,0,0,1.3333333,441.312,269.86)">
      <path
         id="path10"
         d="m 4.3714688,-7.348125 c 0.1171875,-0.4453125 0.1640625,-0.46875 0.6210937,-0.46875 h 1.5585938 c 1.3476562,0 1.3476562,1.1484375 1.3476562,1.2539063 0,0.9726562 -0.9609375,2.203125 -2.5429687,2.203125 H 3.6331875 Z m 2.0273437,3.0820313 c 1.3007813,-0.2460938 2.484375,-1.1484375 2.484375,-2.25 0,-0.9257813 -0.8320312,-1.6523438 -2.1796875,-1.6523438 H 2.8714688 c -0.234375,0 -0.3398438,0 -0.3398438,0.234375 0,0.1171875 0.1054688,0.1171875 0.2929688,0.1171875 0.7265625,0 0.7265625,0.09375 0.7265625,0.2226563 0,0.023437 0,0.09375 -0.046875,0.28125 L 1.8870938,-0.879375 c -0.1054688,0.41015625 -0.1289063,0.52734375 -0.96093755,0.52734375 -0.234375,0 -0.3515625,0 -0.3515625,0.22265625 0,0.12890625 0.0703125,0.12890625 0.3046875,0.12890625 H 4.9808438 c 1.828125,0 3.2460937,-1.38281245 3.2460937,-2.58984375 0,-0.984375 -0.8671875,-1.5820312 -1.828125,-1.6757812 z M 4.6995938,-0.35203125 H 3.0824063 c -0.1640625,0 -0.1875,0 -0.2578125,-0.0117188 -0.1289063,-0.0117187 -0.1523438,-0.0351562 -0.1523438,-0.1289062 0,-0.0820313 0.035156,-0.15234375 0.058594,-0.2578125 L 3.562875,-4.1254687 h 2.25 c 1.40625,0 1.40625,1.3125 1.40625,1.40625 0,1.1484375 -1.0429687,2.36718745 -2.5195312,2.36718745 z m 0,0"
         style="fill:#000000;fill-opacity:1;fill-rule:nonzero;stroke:none" />
      <path
         id="path11"
         d="m 11.141977,0.16359375 c 0.128906,-0.1171875 0.457031,-0.375 0.585937,-0.4921875 0.492188,-0.45703125 0.960938,-0.89062495 0.960938,-1.61718745 0,-0.9492188 -0.796875,-1.5585938 -1.792969,-1.5585938 -0.9492189,0 -1.5820314,0.7265625 -1.5820314,1.4296875 0,0.3984375 0.3164062,0.4453125 0.421875,0.4453125 0.1640625,0 0.4101564,-0.1171875 0.4101564,-0.421875 0,-0.4101562 -0.3984377,-0.4101562 -0.4921877,-0.4101562 0.234375,-0.5859375 0.7734377,-0.7851563 1.1601567,-0.7851563 0.738281,0 1.125,0.6328125 1.125,1.3007813 0,0.8320312 -0.585938,1.42968745 -1.523438,2.4023437 l -1.0078124,1.03125 c -0.09375,0.09375 -0.09375,0.1054688 -0.09375,0.3046875 h 3.1523434 l 0.222657,-1.4296875 h -0.246094 c -0.02344,0.1640625 -0.08203,0.5625 -0.175781,0.7148438 -0.04687,0.058594 -0.65625,0.058594 -0.785157,0.058594 h -1.417968 z m 0,0"
         style="fill:#000000;fill-opacity:1;fill-rule:nonzero;stroke:none" />
    </g>
    <g
       id="g11"
       aria-label="C&#10;2"
       transform="matrix(1.3333333,0,0,1.3333333,787.64533,346.376)">
      <path
         id="path12"
         d="m 8.9290859,-8.3093437 c 0,-0.1054688 -0.082031,-0.1054688 -0.1054687,-0.1054688 -0.023437,0 -0.070312,0 -0.1757813,0.1171875 l -0.8203125,1.0078125 c -0.421875,-0.7148437 -1.078125,-1.125 -1.96875,-1.125 -2.5898437,0 -5.26171871,2.6132813 -5.26171871,5.4257813 0,1.99218745 1.39453121,3.23437495 3.14062501,3.23437495 0.9609375,0 1.7929687,-0.3984375 2.484375,-0.984375 1.0429687,-0.87890625 1.359375,-2.03906245 1.359375,-2.13281245 0,-0.1054688 -0.09375,-0.1054688 -0.140625,-0.1054688 -0.1054688,0 -0.1171875,0.070312 -0.140625,0.1171875 -0.5507813,1.86328125 -2.15625,2.765625 -3.3515625,2.765625 -1.2773438,0 -2.3671875,-0.8203125 -2.3671875,-2.5078125 0,-0.3867187 0.1171875,-2.4609375 1.4648437,-4.03125 0.65625,-0.7617187 1.78125,-1.4414062 2.9179688,-1.4414062 1.3125,0 1.8984375,1.0898437 1.8984375,2.3085937 0,0.3164063 -0.035156,0.5742188 -0.035156,0.6210938 0,0.1171875 0.1171875,0.1171875 0.1523438,0.1171875 0.140625,0 0.1523437,-0.011719 0.1992187,-0.234375 z m 0,0"
         style="fill:#000000;fill-opacity:1;fill-rule:nonzero;stroke:none" />
      <path
         id="path13"
         d="m 10.625375,0.1633125 c 0.128906,-0.1171875 0.457031,-0.375 0.585938,-0.4921875 0.492187,-0.45703125 0.960937,-0.890625 0.960937,-1.6171875 0,-0.9492187 -0.796875,-1.5585937 -1.792969,-1.5585937 -0.9492185,0 -1.582031,0.7265625 -1.582031,1.4296875 0,0.3984375 0.3164063,0.4453125 0.421875,0.4453125 0.1640625,0 0.4101563,-0.1171875 0.4101563,-0.421875 0,-0.4101563 -0.3984375,-0.4101563 -0.4921875,-0.4101563 0.234375,-0.5859375 0.7734375,-0.7851562 1.1601562,-0.7851562 0.738281,0 1.125,0.6328125 1.125,1.3007812 0,0.8320313 -0.585937,1.4296875 -1.5234375,2.40234375 L 8.891,1.4875313 C 8.79725,1.5812813 8.79725,1.593 8.79725,1.7922188 h 3.152344 L 12.17225,0.36253125 h -0.246094 c -0.02344,0.1640625 -0.08203,0.5625 -0.175781,0.71484375 -0.04687,0.058594 -0.65625,0.058594 -0.785156,0.058594 H 9.54725 Z m 0,0"
         style="fill:#000000;fill-opacity:1;fill-rule:nonzero;stroke:none" />
    </g>
    <g
       id="g13"
       aria-label="P&#10;A"
       transform="matrix(1.3333333,0,0,1.3333333,540.188,100.664)">
      <path
         id="path14"
         d="m 3.5386875,-3.7968281 h 2.0039063 c 1.6523437,0 3.3046875,-1.21875 3.3046875,-2.5898438 0,-0.9257812 -0.796875,-1.78125 -2.296875,-1.78125 H 2.859 c -0.234375,0 -0.3398437,0 -0.3398437,0.234375 0,0.1171875 0.1054687,0.1171875 0.2929687,0.1171875 0.7265625,0 0.7265625,0.09375 0.7265625,0.2226563 0,0.023437 0,0.09375 -0.046875,0.28125 L 1.874625,-0.87885937 c -0.1054687,0.41015625 -0.1289062,0.52734375 -0.9609375,0.52734375 -0.234375,0 -0.3515625,0 -0.3515625,0.22265625 0,0.128906245 0.10546875,0.128906245 0.17578125,0.128906245 0.234375,0 0.46875005,-0.023437495 0.69140625,-0.023437495 h 1.40625 c 0.2226563,0 0.4804688,0.023437495 0.703125,0.023437495 0.09375,0 0.2226563,0 0.2226563,-0.222656245 0,-0.12890625 -0.1054688,-0.12890625 -0.28125,-0.12890625 -0.7148438,0 -0.7265625,-0.0820313 -0.7265625,-0.19921875 0,-0.0585938 0.011719,-0.140625 0.023437,-0.19921875 z m 0.8554688,-3.5507813 c 0.1171875,-0.4453125 0.1640625,-0.46875 0.6210937,-0.46875 h 1.1835938 c 0.9023437,0 1.640625,0.28125 1.640625,1.1835938 0,0.3046875 -0.1523438,1.3242187 -0.703125,1.875 -0.1992188,0.2109375 -0.7734375,0.6679687 -1.8632813,0.6679687 h -1.6875 z m 0,0"
         style="fill:#000000;fill-opacity:1;fill-rule:nonzero;stroke:none" />
      <path
         id="path15"
         d="M 9.0230625,0.84379688 C 8.6597813,1.4297344 8.3316563,1.5117656 8.0386875,1.5352031 c -0.082031,0 -0.1757812,0.011719 -0.1757812,0.140625 0,0.035156 0.023437,0.1171875 0.1171875,0.1171875 0.070313,0 0.1171875,-0.023437 0.6796875,-0.023437 0.5390625,0 0.7148437,0.023437 0.7617187,0.023437 0.035156,0 0.1523438,0 0.1523438,-0.1523437 0,-0.1054688 -0.09375,-0.1054688 -0.140625,-0.1054688 -0.1640625,-0.011719 -0.328125,-0.082031 -0.328125,-0.2578125 0,-0.1171875 0.058594,-0.2226562 0.2109375,-0.44531247 L 9.8550938,-0.04682812 H 12.0465 l 0.164063,1.34765622 c 0,0.1054688 -0.140625,0.234375 -0.515625,0.234375 -0.128907,0 -0.222657,0 -0.222657,0.140625 0,0.011719 0,0.1171875 0.128907,0.1171875 0.08203,0 0.386718,-0.011719 0.457031,-0.023437 h 0.503906 c 0.714844,0 0.84375,0.023437 0.914063,0.023437 0.03516,0 0.164062,0 0.164062,-0.1523437 0,-0.1054688 -0.105469,-0.1054688 -0.234375,-0.1054688 -0.445312,0 -0.445312,-0.082031 -0.46875,-0.28125 l -0.632812,-4.921875 c -0.02344,-0.1757812 -0.03516,-0.234375 -0.164063,-0.234375 -0.152344,0 -0.199219,0.082031 -0.246094,0.1640625 z m 0.9960935,-1.16015625 1.652344,-2.61328123 0.339844,2.61328123 z m 0,0"
         style="fill:#000000;fill-opacity:1;fill-rule:nonzero;stroke:none" />
    </g>
    <g
       id="g15"
       aria-label="P&#10;B"
       transform="matrix(1.3333333,0,0,1.3333333,368.688,131.20133)">
      <path
         id="path16"
         d="m 3.5386875,-3.7955312 h 2.0039062 c 1.6523438,0 3.3046875,-1.21875 3.3046875,-2.5898438 0,-0.9257812 -0.796875,-1.78125 -2.296875,-1.78125 H 2.859 c -0.234375,0 -0.3398438,0 -0.3398438,0.234375 0,0.1171875 0.1054688,0.1171875 0.2929688,0.1171875 0.7265625,0 0.7265625,0.09375 0.7265625,0.2226563 0,0.023437 0,0.09375 -0.046875,0.28125 L 1.874625,-0.8775625 c -0.1054688,0.41015625 -0.1289063,0.52734375 -0.9609375,0.52734375 -0.234375,0 -0.3515625,0 -0.3515625,0.22265625 0,0.12890625 0.10546875,0.12890625 0.17578125,0.12890625 0.234375,0 0.46874995,-0.0234375 0.69140625,-0.0234375 h 1.40625 c 0.2226562,0 0.4804687,0.0234375 0.703125,0.0234375 0.09375,0 0.2226562,0 0.2226562,-0.22265625 0,-0.12890625 -0.1054687,-0.12890625 -0.28125,-0.12890625 -0.7148437,0 -0.7265625,-0.0820313 -0.7265625,-0.19921875 0,-0.0585938 0.011719,-0.140625 0.023437,-0.19921875 z m 0.8554687,-3.5507813 c 0.1171875,-0.4453125 0.1640625,-0.46875 0.6210938,-0.46875 h 1.1835937 c 0.9023438,0 1.640625,0.28125 1.640625,1.1835938 0,0.3046875 -0.1523437,1.3242187 -0.703125,1.875 C 6.937125,-4.5455312 6.3629062,-4.0885 5.2730625,-4.0885 h -1.6875 z m 0,0"
         style="fill:#000000;fill-opacity:1;fill-rule:nonzero;stroke:none" />
      <path
         id="path17"
         d="m 8.8912266,1.1615 c -0.070312,0.3046875 -0.09375,0.375 -0.6796875,0.375 -0.1523438,0 -0.2460938,0 -0.2460938,0.140625 0,0.1171875 0.1054688,0.1171875 0.234375,0.1171875 h 2.9648437 c 1.3125,0 2.296875,-0.9375 2.296875,-1.7109375 0,-0.57421875 -0.503906,-1.04296875 -1.300781,-1.1367187 0.925781,-0.1757813 1.722656,-0.7734375 1.722656,-1.4765625 0,-0.5976563 -0.585937,-1.1132813 -1.59375,-1.1132813 H 9.5123203 c -0.140625,0 -0.2460937,0 -0.2460937,0.140625 0,0.1171875 0.09375,0.1171875 0.234375,0.1171875 0.2578125,0 0.4921875,0 0.4921875,0.1289063 0,0.035156 -0.011719,0.035156 -0.035156,0.140625 z m 1.2421874,-2.3085937 0.480469,-1.9453125 c 0.08203,-0.2695313 0.08203,-0.2929688 0.410156,-0.2929688 h 1.148438 c 0.785156,0 0.960937,0.515625 0.960937,0.8320313 0,0.6796875 -0.726562,1.40625 -1.746094,1.40625 z M 9.5826328,1.5365 c -0.070312,-0.023437 -0.09375,-0.023437 -0.09375,-0.082031 0,-0.058594 0.011719,-0.1171875 0.035156,-0.1757813 l 0.5507812,-2.203125 h 1.617188 c 0.75,0 0.996094,0.50390625 0.996094,0.94921875 0,0.78515625 -0.773438,1.51171875 -1.722657,1.51171875 z m 0,0"
         style="fill:#000000;fill-opacity:1;fill-rule:nonzero;stroke:none" />
    </g>
    <g
       id="g17"
       aria-label="P&#10;C"
       transform="matrix(1.3333333,0,0,1.3333333,336.20667,108.30533)">
      <path
         id="path18"
         d="m 3.5393359,-3.7973594 h 2.0039063 c 1.6523437,0 3.3046875,-1.21875 3.3046875,-2.5898437 0,-0.9257813 -0.796875,-1.78125 -2.296875,-1.78125 H 2.8596484 c -0.234375,0 -0.3398437,0 -0.3398437,0.234375 0,0.1171875 0.1054687,0.1171875 0.2929687,0.1171875 0.7265625,0 0.7265625,0.09375 0.7265625,0.2226562 0,0.023437 0,0.09375 -0.046875,0.28125 l -1.6171875,6.43359378 c -0.1054687,0.41015625 -0.1289062,0.52734375 -0.96093746,0.52734375 -0.234375,0 -0.3515625,0 -0.3515625,0.22265625 0,0.128906245 0.10546875,0.128906245 0.17578125,0.128906245 0.234375,0 0.46875001,-0.023437495 0.69140621,-0.023437495 h 1.40625 c 0.2226563,0 0.4804688,0.023437495 0.703125,0.023437495 0.09375,0 0.2226563,0 0.2226563,-0.222656245 0,-0.12890625 -0.1054688,-0.12890625 -0.28125,-0.12890625 -0.7148438,0 -0.7265625,-0.0820313 -0.7265625,-0.19921875 0,-0.0585938 0.011719,-0.140625 0.023437,-0.19921875 z m 0.8554688,-3.5507812 c 0.1171875,-0.4453125 0.1640625,-0.46875 0.6210937,-0.46875 h 1.1835938 c 0.9023437,0 1.640625,0.28125 1.640625,1.1835937 0,0.3046875 -0.1523438,1.3242188 -0.703125,1.875 -0.1992188,0.2109375 -0.7734375,0.6679688 -1.8632813,0.6679688 h -1.6875 z m 0,0"
         style="fill:#000000;fill-opacity:1;fill-rule:nonzero;stroke:none" />
      <path
         id="path19"
         d="m 13.884063,-3.5981406 c 0.01172,-0.035156 0.02344,-0.082031 0.02344,-0.1289063 0,-0.046875 -0.04687,-0.09375 -0.105469,-0.09375 -0.04687,0 -0.07031,0.023437 -0.140625,0.09375 l -0.550781,0.6210938 c -0.07031,-0.1054688 -0.503906,-0.7148438 -1.429687,-0.7148438 -1.851563,0 -3.7148442,1.7109375 -3.7148442,3.55078128 0,1.38281252 1.0546875,2.22656252 2.3203122,2.22656252 1.042969,0 1.921875,-0.6328125 2.355469,-1.25390627 0.269531,-0.38671875 0.363281,-0.7734375 0.363281,-0.8203125 0,-0.0703125 -0.04687,-0.10546875 -0.117187,-0.10546875 -0.09375,0 -0.105469,0.0351563 -0.128906,0.12890625 -0.339844,1.10156247 -1.417969,1.79296877 -2.367188,1.79296877 -0.8203125,0 -1.6640625,-0.4804688 -1.6640625,-1.699218775 0,-0.257812495 0.082031,-1.582031225 0.9726563,-2.578125025 0.5976562,-0.6679687 1.4062502,-0.9726562 2.0390622,-0.9726562 0.996094,0 1.417969,0.796875 1.417969,1.5585937 0,0.1171875 -0.03516,0.2578125 -0.03516,0.3632813 0,0.09375 0.105469,0.09375 0.140625,0.09375 0.09375,0 0.117187,-0.023437 0.140625,-0.1757813 z m 0,0"
         style="fill:#000000;fill-opacity:1;fill-rule:nonzero;stroke:none" />
    </g>
    <path
       id="path20"
       d="M 220.96112,51.01175 331.44168,-76.51762"
       style="fill:none;stroke:#000000;stroke-width:0.99628;stroke-linecap:round;stroke-linejoin:miter;stroke-miterlimit:10;stroke-dasharray:none;stroke-opacity:1"
       transform="matrix(1.3333333,0,0,-1.3333333,23.029333,151.47867)" />
    <path
       id="path21"
       d="m 220.96112,51.01175 359.06181,-184.9176"
       style="fill:none;stroke:#000000;stroke-width:0.99628;stroke-linecap:round;stroke-linejoin:miter;stroke-miterlimit:10;stroke-dasharray:none;stroke-opacity:1"
       transform="matrix(1.3333333,0,0,-1.3333333,23.029333,151.47867)" />
    <path
       id="path22"
       d="M 138.1007,-31.88234 331.44168,76.51762"
       style="fill:none;stroke:#000000;stroke-width:0.99628;stroke-linecap:round;stroke-linejoin:miter;stroke-miterlimit:10;stroke-dasharray:none;stroke-opacity:1"
       transform="matrix(1.3333333,0,0,-1.3333333,23.029333,151.47867)" />
    <path
       id="path23"
       d="M 138.1007,-31.88234 414.3021,95.64703"
       style="fill:none;stroke:#000000;stroke-width:0.99628;stroke-linecap:round;stroke-linejoin:miter;stroke-miterlimit:10;stroke-dasharray:none;stroke-opacity:1"
       transform="matrix(1.3333333,0,0,-1.3333333,23.029333,151.47867)" />
    <path
       id="path24"
       d="M 331.44168,76.51762 580.02293,-133.90585"
       style="fill:none;stroke:#000000;stroke-width:0.99628;stroke-linecap:round;stroke-linejoin:miter;stroke-miterlimit:10;stroke-dasharray:none;stroke-opacity:1"
       transform="matrix(1.3333333,0,0,-1.3333333,23.029333,151.47867)" />
    <path
       id="path25"
       d="M 331.44168,-76.51762 414.3021,95.64703"
       style="fill:none;stroke:#000000;stroke-width:0.99628;stroke-linecap:round;stroke-linejoin:miter;stroke-miterlimit:10;stroke-dasharray:none;stroke-opacity:1"
       transform="matrix(1.3333333,0,0,-1.3333333,23.029333,151.47867)" />
    <path
       id="path26"
       d="M 414.3021,95.64703 0,0"
       style="fill:none;stroke:#000000;stroke-width:0.99628;stroke-linecap:round;stroke-linejoin:miter;stroke-miterlimit:10;stroke-dasharray:none;stroke-opacity:1"
       transform="matrix(1.3333333,0,0,-1.3333333,23.029333,151.47867)" />
    <path
       id="path27"
       d="M 580.02293,-133.90585 0,0"
       style="fill:none;stroke:#000000;stroke-width:0.99628;stroke-linecap:round;stroke-linejoin:miter;stroke-miterlimit:10;stroke-dasharray:none;stroke-opacity:1"
       transform="matrix(1.3333333,0,0,-1.3333333,23.029333,151.47867)" />
    <path
       id="path28"
       d="M 500.88937,36.95908 217.75517,25.49681"
       style="fill:none;stroke:#000000;stroke-width:0.99628;stroke-linecap:round;stroke-linejoin:miter;stroke-miterlimit:10;stroke-dasharray:2.98883, 2.98883;stroke-dashoffset:0;stroke-opacity:1"
       transform="matrix(1.3333333,0,0,-1.3333333,23.029333,151.47867)" />
    <path
       id="path29"
       d="m 222.45554,51.01175 c 0,0.82535 -0.66909,1.49441 -1.49442,1.49441 -0.82535,0 -1.49442,-0.66906 -1.49442,-1.49441 0,-0.82535 0.66907,-1.49442 1.49442,-1.49442 0.82533,0 1.49442,0.66907 1.49442,1.49442 z"
       style="fill:#ffffff;fill-opacity:1;fill-rule:nonzero;stroke:#000000;stroke-width:0.3985;stroke-linecap:butt;stroke-linejoin:miter;stroke-miterlimit:10;stroke-dasharray:none;stroke-opacity:1"
       transform="matrix(1.3333333,0,0,-1.3333333,23.029333,151.47867)" />
    <path
       id="path30"
       d="m 332.9361,76.51762 c 0,0.82535 -0.66909,1.49442 -1.49442,1.49442 -0.82535,0 -1.49441,-0.66907 -1.49441,-1.49442 0,-0.82533 0.66906,-1.49441 1.49441,-1.49441 0.82533,0 1.49442,0.66908 1.49442,1.49441 z"
       style="fill:#ffffff;fill-opacity:1;fill-rule:nonzero;stroke:#000000;stroke-width:0.3985;stroke-linecap:butt;stroke-linejoin:miter;stroke-miterlimit:10;stroke-dasharray:none;stroke-opacity:1"
       transform="matrix(1.3333333,0,0,-1.3333333,23.029333,151.47867)" />
    <path
       id="path31"
       d="m 415.79651,95.64703 c 0,0.82535 -0.66907,1.49442 -1.49441,1.49442 -0.82535,0 -1.49442,-0.66907 -1.49442,-1.49442 0,-0.82533 0.66907,-1.49441 1.49442,-1.49441 0.82534,0 1.49441,0.66908 1.49441,1.49441 z"
       style="fill:#ffffff;fill-opacity:1;fill-rule:nonzero;stroke:#000000;stroke-width:0.3985;stroke-linecap:butt;stroke-linejoin:miter;stroke-miterlimit:10;stroke-dasharray:none;stroke-opacity:1"
       transform="matrix(1.3333333,0,0,-1.3333333,23.029333,151.47867)" />
    <path
       id="path32"
       d="m 139.59511,-31.88234 c 0,0.82535 -0.66907,1.49442 -1.49441,1.49442 -0.82536,0 -1.49442,-0.66907 -1.49442,-1.49442 0,-0.82535 0.66906,-1.49441 1.49442,-1.49441 0.82534,0 1.49441,0.66906 1.49441,1.49441 z"
       style="fill:#ffffff;fill-opacity:1;fill-rule:nonzero;stroke:#000000;stroke-width:0.3985;stroke-linecap:butt;stroke-linejoin:miter;stroke-miterlimit:10;stroke-dasharray:none;stroke-opacity:1"
       transform="matrix(1.3333333,0,0,-1.3333333,23.029333,151.47867)" />
    <path
       id="path33"
       d="m 332.9361,-76.51762 c 0,0.82533 -0.66909,1.49441 -1.49442,1.49441 -0.82535,0 -1.49441,-0.66908 -1.49441,-1.49441 0,-0.82535 0.66906,-1.49442 1.49441,-1.49442 0.82533,0 1.49442,0.66907 1.49442,1.49442 z"
       style="fill:#ffffff;fill-opacity:1;fill-rule:nonzero;stroke:#000000;stroke-width:0.3985;stroke-linecap:butt;stroke-linejoin:miter;stroke-miterlimit:10;stroke-dasharray:none;stroke-opacity:1"
       transform="matrix(1.3333333,0,0,-1.3333333,23.029333,151.47867)" />
    <path
       id="path34"
       d="m 581.51735,-133.90585 c 0,0.82533 -0.66907,1.49441 -1.49442,1.49441 -0.82534,0 -1.49441,-0.66908 -1.49441,-1.49441 0,-0.82535 0.66907,-1.49442 1.49441,-1.49442 0.82535,0 1.49442,0.66907 1.49442,1.49442 z"
       style="fill:#ffffff;fill-opacity:1;fill-rule:nonzero;stroke:#000000;stroke-width:0.3985;stroke-linecap:butt;stroke-linejoin:miter;stroke-miterlimit:10;stroke-dasharray:none;stroke-opacity:1"
       transform="matrix(1.3333333,0,0,-1.3333333,23.029333,151.47867)" />
    <path
       id="path35"
       d="M 1.49442,0 C 1.49442,0.82533 0.82533,1.49442 0,1.49442 -0.82533,1.49442 -1.49442,0.82533 -1.49442,0 c 0,-0.82533 0.66909,-1.49442 1.49442,-1.49442 0.82533,0 1.49442,0.66909 1.49442,1.49442 z"
       style="fill:#ffffff;fill-opacity:1;fill-rule:nonzero;stroke:#000000;stroke-width:0.3985;stroke-linecap:butt;stroke-linejoin:miter;stroke-miterlimit:10;stroke-dasharray:none;stroke-opacity:1"
       transform="matrix(1.3333333,0,0,-1.3333333,23.029333,151.47867)" />
    <path
       id="path36"
       d="m 385.26894,32.21802 c 0,0.82535 -0.66909,1.49441 -1.49442,1.49441 -0.82535,0 -1.49442,-0.66906 -1.49442,-1.49441 0,-0.82535 0.66907,-1.49442 1.49442,-1.49442 0.82533,0 1.49442,0.66907 1.49442,1.49442 z"
       style="fill:#ffffff;fill-opacity:1;fill-rule:nonzero;stroke:#000000;stroke-width:0.3985;stroke-linecap:butt;stroke-linejoin:miter;stroke-miterlimit:10;stroke-dasharray:none;stroke-opacity:1"
       transform="matrix(1.3333333,0,0,-1.3333333,23.029333,151.47867)" />
    <path
       id="path37"
       d="m 268.15407,27.47696 c 0,0.82534 -0.66907,1.49441 -1.49442,1.49441 -0.82533,0 -1.49441,-0.66907 -1.49441,-1.49441 0,-0.82535 0.66908,-1.49442 1.49441,-1.49442 0.82535,0 1.49442,0.66907 1.49442,1.49442 z"
       style="fill:#ffffff;fill-opacity:1;fill-rule:nonzero;stroke:#000000;stroke-width:0.3985;stroke-linecap:butt;stroke-linejoin:miter;stroke-miterlimit:10;stroke-dasharray:none;stroke-opacity:1"
       transform="matrix(1.3333333,0,0,-1.3333333,23.029333,151.47867)" />
    <path
       id="path38"
       d="m 243.70183,26.4869 c 0,0.82533 -0.66907,1.49441 -1.49442,1.49441 -0.82535,0 -1.49441,-0.66908 -1.49441,-1.49441 0,-0.82536 0.66906,-1.49442 1.49441,-1.49442 0.82535,0 1.49442,0.66906 1.49442,1.49442 z"
       style="fill:#ffffff;fill-opacity:1;fill-rule:nonzero;stroke:#000000;stroke-width:0.3985;stroke-linecap:butt;stroke-linejoin:miter;stroke-miterlimit:10;stroke-dasharray:none;stroke-opacity:1"
       transform="matrix(1.3333333,0,0,-1.3333333,23.029333,151.47867)" />
  </g>
</svg>
